# Apple ModelIO OBJ File: desk_mat_03
mtllib desk_mat_03.mtl
g desk_mat.001_deskMat_Mat.001
v -2.65721 -0.051028 2.96004
v -2.74462 -0.050886 2.54815
v -2.69432 -0.051013 2.9159
v -2.74462 -0.048037 -5.70568
v -2.65721 -0.047895 -6.11757
v -2.69432 -0.04791 -6.07343
v -2.73336 -0.186796 2.5481
v -2.64595 -0.186934 2.949
v -2.68307 -0.186919 2.90487
v -2.64595 -0.183809 -6.10663
v -2.73336 -0.183947 -5.70572
v -2.68307 -0.183824 -6.06249
v -2.50319 -0.082995 -6.25109
v -2.50319 -0.149593 -6.25111
v -2.55992 -0.149595 -6.24566
v -2.55992 -0.082997 -6.24564
v -2.61448 -0.149601 -6.22951
v -2.61448 -0.083002 -6.22948
v -2.66475 -0.14961 -6.20328
v -2.66475 -0.083012 -6.20325
v -2.70882 -0.149622 -6.16798
v -2.70882 -0.083024 -6.16795
v -2.74499 -0.149637 -6.12496
v -2.74499 -0.083039 -6.12494
v -2.77186 -0.149654 -6.07589
v -2.77186 -0.083055 -6.07587
v -2.78841 -0.149672 -6.02265
v -2.78841 -0.083074 -6.02262
v -2.794 -0.149691 -5.96727
v -2.794 -0.083093 -5.96725
v -2.55855 -0.067215 -6.2456
v -2.61342 -0.06722 -6.22935
v -2.664 -0.067229 -6.20297
v -2.70832 -0.067242 -6.16746
v -2.7447 -0.067257 -6.1242
v -2.77173 -0.067274 -6.07483
v -2.78838 -0.067292 -6.02128
v -2.50148 -0.067213 -6.25108
v -2.54153 -0.053527 -6.23142
v -2.597 -0.053533 -6.21499
v -2.64812 -0.053542 -6.18832
v -2.69293 -0.053554 -6.15243
v -2.7297 -0.053569 -6.1087
v -2.75703 -0.053587 -6.0588
v -2.48385 -0.053525 -6.23696
v -2.2352 -0.082995 -6.25109
v -2.2352 -0.067213 -6.25108
v -2.2352 -0.149593 -6.25111
v -2.61199 -0.047882 -6.15379
v -2.56039 -0.047873 -6.18071
v -2.50441 -0.047867 -6.19728
v -2.7219 -0.047927 -6.02307
v -2.44619 -0.047865 -6.20288
v -2.73888 -0.047946 -5.96843
v -2.77385 -0.053605 -6.00466
v -2.794 -0.067311 -5.96558
v -2.77954 -0.053625 -5.94836
v -2.74462 -0.047966 -5.9116
v -2.77954 -0.053709 -5.70568
v -2.794 -0.067401 -5.70568
v -2.2352 -0.053525 -6.23696
v -2.794 -0.083183 -5.70569
v -2.77954 -0.056557 2.54815
v -2.794 -0.07025 2.54814
v -2.2352 -0.048037 -5.70568
v -2.2352 -0.050886 2.54815
v -2.74462 -0.050957 2.75408
v -2.2352 -0.051057 3.04535
v -2.73888 -0.050976 2.8109
v -2.77954 -0.056641 2.79083
v -2.2352 -0.047865 -6.20288
v -1.6764 -0.050886 2.54815
v -2.77385 -0.05666 2.84713
v -2.794 -0.070339 2.80804
v -2.78838 -0.070359 2.86373
v -2.794 -0.086032 2.54814
v -2.794 -0.149782 -5.70571
v -2.794 -0.160079 -5.96561
v -2.78838 -0.16006 -6.02131
v -2.77173 -0.160041 -6.07487
v -2.7447 -0.160024 -6.12423
v -2.70832 -0.160009 -6.16749
v -2.664 -0.159997 -6.203
v -2.61342 -0.159988 -6.22938
v -2.55855 -0.159982 -6.24563
v -2.77624 -0.1769 -5.94519
v -2.77056 -0.17688 -6.00149
v -2.75373 -0.176862 -6.05563
v -2.72641 -0.176845 -6.10552
v -2.68963 -0.176829 -6.14926
v -2.64483 -0.176817 -6.18515
v -2.5937 -0.176808 -6.21182
v -2.794 -0.160169 -5.70572
v -2.794 -0.15263 2.54811
v -2.794 -0.086122 2.8097
v -2.78841 -0.086141 2.86507
v -2.60073 -0.183796 -6.14285
v -2.71064 -0.183841 -6.01213
v -2.72763 -0.18386 -5.95749
v -2.54914 -0.183787 -6.16977
v -2.73336 -0.18388 -5.90067
v -2.49315 -0.183781 -6.18634
v -2.53824 -0.176802 -6.22824
v -2.77624 -0.176983 -5.70572
v -2.50148 -0.159981 -6.25111
v -2.48055 -0.1768 -6.23379
v -2.794 -0.163018 2.54811
v -2.2352 -0.159981 -6.25111
v -2.77624 -0.179831 2.5481
v -2.794 -0.152721 2.80967
v -2.794 -0.163107 2.808
v -2.77624 -0.179914 2.78757
v -2.78838 -0.163127 2.8637
v -2.78841 -0.15274 2.86505
v -2.2352 -0.1768 -6.23379
v -2.77056 -0.179933 2.84387
v -2.77173 -0.163145 2.91726
v -2.77186 -0.152758 2.91829
v -2.75373 -0.179952 2.89801
v -2.7447 -0.163162 2.96662
v -2.74499 -0.152775 2.96737
v -2.72641 -0.179969 2.94791
v -2.70832 -0.163177 3.00989
v -2.70882 -0.15279 3.01038
v -2.68963 -0.179984 2.99164
v -2.664 -0.163189 3.04539
v -2.66475 -0.152802 3.04568
v -2.64483 -0.179997 3.02753
v -2.61342 -0.163198 3.07178
v -2.61448 -0.152811 3.07191
v -2.5937 -0.180006 3.0542
v -2.55855 -0.163204 3.08802
v -2.55992 -0.152817 3.08806
v -2.53824 -0.180012 3.07062
v -2.50148 -0.163206 3.09351
v -2.50319 -0.152819 3.09351
v -2.48055 -0.180014 3.07617
v -2.60073 -0.186947 2.98523
v -2.54914 -0.186956 3.01214
v -2.49315 -0.186962 3.02872
v -2.43493 -0.186964 3.03432
v -2.71064 -0.186901 2.85451
v -2.72763 -0.186883 2.79987
v -2.73336 -0.186863 2.74304
v -2.2352 -0.186796 2.5481
v -2.2352 -0.183947 -5.70572
v -2.2352 -0.180014 3.07617
v -2.2352 -0.186964 3.03432
v -2.2352 -0.163206 3.09351
v -2.2352 -0.152819 3.09351
v -2.2352 -0.08622 3.09354
v -2.50319 -0.08622 3.09354
v -1.6764 -0.163206 3.09351
v -1.6764 -0.152819 3.09351
v -1.6764 -0.180014 3.07617
v -1.6764 -0.08622 3.09354
v -1.6764 -0.186796 2.5481
v -1.6764 -0.186964 3.03432
v -1.6764 -0.183947 -5.70572
v -1.1176 -0.152819 3.09351
v -1.1176 -0.163206 3.09351
v -1.1176 -0.08622 3.09354
v -1.1176 -0.180014 3.07617
v -1.6764 -0.070438 3.09354
v -1.1176 -0.070438 3.09354
v -2.2352 -0.070438 3.09354
v -0.5588 -0.152819 3.09351
v -0.5588 -0.08622 3.09354
v -0.5588 -0.163206 3.09351
v -0.5588 -0.070438 3.09354
v -1.1176 -0.186964 3.03432
v -0.5588 -0.180014 3.07617
v -1.1176 -0.186796 2.5481
v -1.1176 -0.183947 -5.70572
v 0 -0.152819 3.09351
v 0 -0.08622 3.09354
v 0 -0.070438 3.09354
v 0 -0.163206 3.09351
v -0.5588 -0.186964 3.03432
v -0.5588 -0.186796 2.5481
v -0.5588 -0.183947 -5.70572
v 0 -0.180014 3.07617
v 0.5588 -0.08622 3.09354
v 0.5588 -0.152819 3.09351
v 0.5588 -0.070438 3.09354
v 0.5588 -0.163206 3.09351
v 0 -0.186796 2.5481
v 0 -0.186964 3.03432
v 0 -0.183947 -5.70572
v 0.5588 -0.180014 3.07617
v 1.1176 -0.08622 3.09354
v 1.1176 -0.152819 3.09351
v 1.1176 -0.070438 3.09354
v 1.1176 -0.163206 3.09351
v 0.5588 -0.186796 2.5481
v 0.5588 -0.186964 3.03432
v 0.5588 -0.183947 -5.70572
v 1.1176 -0.180014 3.07617
v 1.6764 -0.08622 3.09354
v 1.6764 -0.152819 3.09351
v 1.6764 -0.070438 3.09354
v 1.6764 -0.163206 3.09351
v 1.1176 -0.186796 2.5481
v 1.1176 -0.186964 3.03432
v 1.1176 -0.183947 -5.70572
v 1.6764 -0.180014 3.07617
v 2.2352 -0.08622 3.09354
v 2.2352 -0.152819 3.09351
v 2.2352 -0.070438 3.09354
v 2.2352 -0.163206 3.09351
v 1.6764 -0.186796 2.5481
v 1.6764 -0.186964 3.03432
v 1.6764 -0.183947 -5.70572
v 2.2352 -0.180014 3.07617
v 2.50319 -0.08622 3.09354
v 2.50319 -0.152819 3.09351
v 2.50148 -0.070438 3.09354
v 2.55992 -0.086218 3.08808
v 2.55855 -0.070436 3.08805
v 2.61448 -0.086213 3.07193
v 2.48385 -0.056741 3.07943
v 2.61342 -0.070431 3.07181
v 2.66475 -0.086204 3.0457
v 2.50148 -0.163206 3.09351
v 2.2352 -0.056741 3.07943
v 2.54153 -0.056739 3.07388
v 2.664 -0.070421 3.04542
v 2.70882 -0.086192 3.0104
v 1.6764 -0.056741 3.07943
v 2.44619 -0.051057 3.04535
v 2.597 -0.056733 3.05746
v 2.70832 -0.070409 3.00992
v 2.74499 -0.086177 2.96739
v 1.1176 -0.056741 3.07943
v 2.2352 -0.051057 3.04535
v 2.50441 -0.051055 3.03975
v 2.64812 -0.056724 3.03079
v 2.7447 -0.070394 2.96665
v 2.77186 -0.08616 2.91832
v 1.6764 -0.051057 3.04535
v 2.2352 -0.050886 2.54815
v 2.56039 -0.05105 3.02318
v 2.69293 -0.056711 2.9949
v 2.61199 -0.05104 2.99626
v 2.65721 -0.051028 2.96004
v 1.6764 -0.050886 2.54815
v 2.69432 -0.051013 2.9159
v 2.7297 -0.056696 2.95117
v 2.77173 -0.070377 2.91729
v 2.78841 -0.086141 2.86507
v 2.75703 -0.056679 2.90127
v 2.78838 -0.070359 2.86373
v 2.794 -0.086122 2.8097
v 2.7219 -0.050995 2.86554
v 2.77385 -0.05666 2.84713
v 2.794 -0.070339 2.80804
v 2.73888 -0.050976 2.8109
v 2.77954 -0.056641 2.79083
v 2.794 -0.07025 2.54814
v 2.794 -0.086032 2.54814
v 2.74462 -0.050957 2.75408
v 2.77954 -0.056557 2.54815
v 2.74462 -0.050886 2.54815
v 2.2352 -0.048037 -5.70568
v 2.74462 -0.048037 -5.70568
v 1.6764 -0.048037 -5.70568
v 2.77954 -0.053709 -5.70568
v 2.73888 -0.047946 -5.96843
v 2.2352 -0.047865 -6.20288
v 2.7219 -0.047927 -6.02307
v 2.74462 -0.047966 -5.9116
v 2.794 -0.067401 -5.70568
v 2.77954 -0.053625 -5.94836
v 2.77385 -0.053605 -6.00466
v 2.794 -0.083183 -5.70569
v 2.794 -0.067311 -5.96558
v 2.75703 -0.053587 -6.0588
v 2.78838 -0.067292 -6.02128
v 2.77173 -0.067274 -6.07483
v 2.78841 -0.083074 -6.02262
v 2.77186 -0.083055 -6.07587
v 2.794 -0.083093 -5.96725
v 2.74499 -0.083039 -6.12494
v 2.794 -0.149782 -5.70571
v 2.794 -0.149691 -5.96727
v 2.7447 -0.067257 -6.1242
v 2.70882 -0.083024 -6.16795
v 2.7297 -0.053569 -6.1087
v 2.70832 -0.067242 -6.16746
v 2.66475 -0.083012 -6.20325
v 2.69432 -0.04791 -6.07343
v 2.664 -0.067229 -6.20297
v 2.61448 -0.083002 -6.22948
v 2.69293 -0.053554 -6.15243
v 2.61342 -0.06722 -6.22935
v 2.55992 -0.082997 -6.24564
v 2.65721 -0.047895 -6.11757
v 2.64812 -0.053542 -6.18832
v 2.55855 -0.067215 -6.2456
v 2.50319 -0.082995 -6.25109
v 2.61199 -0.047882 -6.15379
v 2.597 -0.053533 -6.21499
v 2.56039 -0.047873 -6.18071
v 2.54153 -0.053527 -6.23142
v 2.50148 -0.067213 -6.25108
v 2.50441 -0.047867 -6.19728
v 2.44619 -0.047865 -6.20288
v 2.48385 -0.053525 -6.23696
v 2.2352 -0.067213 -6.25108
v 2.2352 -0.082995 -6.25109
v 2.2352 -0.053525 -6.23696
v 1.6764 -0.047865 -6.20288
v 1.6764 -0.053525 -6.23696
v 1.1176 -0.048037 -5.70568
v 1.6764 -0.067213 -6.25108
v 1.1176 -0.047865 -6.20288
v 1.1176 -0.053525 -6.23696
v 1.1176 -0.050886 2.54815
v 0.5588 -0.048037 -5.70568
v 0.5588 -0.047865 -6.20288
v 1.1176 -0.051057 3.04535
v 0.5588 -0.056741 3.07943
v 0.5588 -0.051057 3.04535
v 0 -0.056741 3.07943
v 0.5588 -0.050886 2.54815
v -0.5588 -0.056741 3.07943
v 0 -0.051057 3.04535
v 0 -0.048037 -5.70568
v -1.1176 -0.056741 3.07943
v -0.5588 -0.051057 3.04535
v 0 -0.050886 2.54815
v -1.6764 -0.056741 3.07943
v -1.1176 -0.051057 3.04535
v -0.5588 -0.050886 2.54815
v -0.5588 -0.048037 -5.70568
v 0 -0.047865 -6.20288
v 0.5588 -0.053525 -6.23696
v 1.1176 -0.067213 -6.25108
v 1.6764 -0.082995 -6.25109
v -1.6764 -0.051057 3.04535
v -1.1176 -0.050886 2.54815
v -1.1176 -0.048037 -5.70568
v -0.5588 -0.047865 -6.20288
v 0 -0.053525 -6.23696
v 0.5588 -0.067213 -6.25108
v 1.1176 -0.082995 -6.25109
v -2.2352 -0.056741 3.07943
v -2.50148 -0.070438 3.09354
v -1.1176 -0.047865 -6.20288
v -0.5588 -0.053525 -6.23696
v 0 -0.067213 -6.25108
v 0.5588 -0.082995 -6.25109
v -1.6764 -0.048037 -5.70568
v -1.6764 -0.047865 -6.20288
v -1.1176 -0.053525 -6.23696
v -1.6764 -0.053525 -6.23696
v -0.5588 -0.067213 -6.25108
v -2.48385 -0.056741 3.07943
v -1.6764 -0.067213 -6.25108
v -1.1176 -0.067213 -6.25108
v 0 -0.082995 -6.25109
v -1.6764 -0.082995 -6.25109
v -1.1176 -0.082995 -6.25109
v -0.5588 -0.082995 -6.25109
v -1.6764 -0.149593 -6.25111
v -1.1176 -0.149593 -6.25111
v -0.5588 -0.149593 -6.25111
v 0 -0.149593 -6.25111
v 0.5588 -0.149593 -6.25111
v -1.6764 -0.159981 -6.25111
v -1.1176 -0.159981 -6.25111
v -0.5588 -0.159981 -6.25111
v 0 -0.159981 -6.25111
v -1.6764 -0.1768 -6.23379
v -1.1176 -0.1768 -6.23379
v -0.5588 -0.1768 -6.23379
v 0.5588 -0.159981 -6.25111
v 0 -0.1768 -6.23379
v 0.5588 -0.1768 -6.23379
v -1.6764 -0.183779 -6.19194
v -1.1176 -0.183779 -6.19194
v -0.5588 -0.183779 -6.19194
v 0 -0.183779 -6.19194
v 0.5588 -0.183779 -6.19194
v -2.2352 -0.183779 -6.19194
v -2.43493 -0.183779 -6.19194
v 1.1176 -0.183779 -6.19194
v 1.6764 -0.183779 -6.19194
v 1.1176 -0.1768 -6.23379
v 1.1176 -0.159981 -6.25111
v 1.6764 -0.1768 -6.23379
v 2.2352 -0.183779 -6.19194
v 1.1176 -0.149593 -6.25111
v 1.6764 -0.159981 -6.25111
v 1.6764 -0.149593 -6.25111
v 2.2352 -0.1768 -6.23379
v 2.2352 -0.183947 -5.70572
v 2.2352 -0.159981 -6.25111
v 2.2352 -0.149593 -6.25111
v 2.43493 -0.183779 -6.19194
v 2.2352 -0.186796 2.5481
v 2.48055 -0.1768 -6.23379
v 2.50319 -0.149593 -6.25111
v 2.50148 -0.159981 -6.25111
v 2.55992 -0.149595 -6.24566
v 2.49315 -0.183781 -6.18634
v 2.73336 -0.183947 -5.70572
v 2.54914 -0.183787 -6.16977
v 2.53824 -0.176802 -6.22824
v 2.55855 -0.159982 -6.24563
v 2.61448 -0.149601 -6.22951
v 2.5937 -0.176808 -6.21182
v 2.61342 -0.159988 -6.22938
v 2.66475 -0.14961 -6.20328
v 2.664 -0.159997 -6.203
v 2.70882 -0.149622 -6.16798
v 2.64483 -0.176817 -6.18515
v 2.70832 -0.160009 -6.16749
v 2.74499 -0.149637 -6.12496
v 2.60073 -0.183796 -6.14285
v 2.68963 -0.176829 -6.14926
v 2.7447 -0.160024 -6.12423
v 2.77186 -0.149654 -6.07589
v 2.64595 -0.183809 -6.10663
v 2.72641 -0.176845 -6.10552
v 2.77173 -0.160041 -6.07487
v 2.78841 -0.149672 -6.02265
v 2.68307 -0.183824 -6.06249
v 2.78838 -0.16006 -6.02131
v 2.75373 -0.176862 -6.05563
v 2.71064 -0.183841 -6.01213
v 2.77056 -0.17688 -6.00149
v 2.794 -0.160079 -5.96561
v 2.72763 -0.18386 -5.95749
v 2.73336 -0.18388 -5.90067
v 2.77624 -0.1769 -5.94519
v 2.794 -0.160169 -5.70572
v 2.77624 -0.176983 -5.70572
v 2.73336 -0.186796 2.5481
v 2.77624 -0.179831 2.5481
v 2.794 -0.163018 2.54811
v 2.72763 -0.186883 2.79987
v 2.71064 -0.186902 2.85451
v 2.68307 -0.186919 2.90487
v 2.73336 -0.186863 2.74304
v 2.77624 -0.179914 2.78757
v 2.794 -0.15263 2.54811
v 2.77056 -0.179933 2.84387
v 2.75373 -0.179952 2.89801
v 2.794 -0.163107 2.808
v 2.794 -0.152721 2.80967
v 2.78841 -0.15274 2.86505
v 2.78838 -0.163127 2.8637
v 2.77186 -0.152758 2.91829
v 2.77173 -0.163145 2.91726
v 2.74499 -0.152775 2.96737
v 2.7447 -0.163162 2.96662
v 2.70882 -0.15279 3.01038
v 2.72641 -0.179969 2.94791
v 2.70832 -0.163177 3.00989
v 2.66475 -0.152802 3.04568
v 2.68963 -0.179984 2.99164
v 2.664 -0.163189 3.04539
v 2.61448 -0.152811 3.07191
v 2.64595 -0.186934 2.949
v 2.64483 -0.179997 3.02753
v 2.61342 -0.163198 3.07178
v 2.55992 -0.152817 3.08806
v 2.55855 -0.163204 3.08802
v 2.60073 -0.186947 2.98523
v 2.5937 -0.180006 3.0542
v 2.53824 -0.180012 3.07062
v 2.54914 -0.186956 3.01214
v 2.48055 -0.180014 3.07617
v 2.49315 -0.186962 3.02872
v 2.2352 -0.186964 3.03432
v 2.43493 -0.186963 3.03432
v -2.77186 -0.08616 2.91832
v -2.74499 -0.086177 2.96739
v -2.77173 -0.070377 2.91729
v -2.70882 -0.086192 3.0104
v -2.75703 -0.056679 2.90127
v -2.7447 -0.070394 2.96665
v -2.66475 -0.086204 3.0457
v -2.7219 -0.050995 2.86554
v -2.7297 -0.056696 2.95117
v -2.70832 -0.070409 3.00992
v -2.61448 -0.086213 3.07193
v -2.69293 -0.056711 2.9949
v -2.664 -0.070421 3.04542
v -2.55992 -0.086218 3.08808
v -2.64812 -0.056724 3.03079
v -2.61342 -0.070431 3.07181
v -2.55855 -0.070436 3.08805
v -2.61199 -0.05104 2.99626
v -2.597 -0.056733 3.05746
v -2.54153 -0.056739 3.07388
v -2.56039 -0.05105 3.02318
v -2.50441 -0.051055 3.03975
v -2.44619 -0.051057 3.04535
vn -0.0419 0.9982 0.0434
vn -0.0804 0.9968 0.0003
vn -0.0509 0.9981 0.0343
vn -0.0419 0.9982 -0.0427
vn -0.0509 0.9981 -0.0336
vn -0.0804 -0.9968 -0.0003
vn -0.0421 -0.9982 0.0429
vn -0.0511 -0.9981 0.0337
vn -0.0421 -0.9982 -0.0436
vn -0.0511 -0.9981 -0.0344
vn -0.0495 0.0031 -0.9988
vn -0.0504 -0.004 -0.9987
vn -0.1945 -0.0143 -0.9808
vn -0.1932 0.0099 -0.9811
vn -0.3774 -0.0245 -0.9257
vn -0.3766 0.0167 -0.9262
vn -0.5473 -0.031 -0.8363
vn -0.5471 0.0208 -0.8368
vn -0.6983 -0.0333 -0.715
vn -0.6985 0.0223 -0.7153
vn -0.8241 -0.0313 -0.5656
vn -0.8246 0.0209 -0.5653
vn -0.9192 -0.0251 -0.3929
vn -0.9198 0.0167 -0.3921
vn -0.979 -0.0149 -0.2035
vn -0.9793 0.0098 -0.2022
vn -0.9986 -0.0044 -0.0528
vn -0.9986 0.0028 -0.0519
vn -0.1792 0.4377 -0.8811
vn -0.3363 0.4665 -0.8181
vn -0.4807 0.4827 -0.732
vn -0.6099 0.4885 -0.624
vn -0.7211 0.4841 -0.4956
vn -0.8113 0.4691 -0.3488
vn -0.8777 0.4414 -0.1864
vn -0.0494 0.406 -0.9125
vn -0.0686 0.9103 -0.4083
vn -0.1345 0.9269 -0.3503
vn -0.1904 0.9354 -0.2978
vn -0.2415 0.9383 -0.2474
vn -0.2915 0.9363 -0.1957
vn -0.3438 0.9287 -0.1386
vn -0.0151 0.8954 -0.4451
vn -0 0.0003 -1
vn -0 0.39 -0.9208
vn -0.033 0.9981 -0.0519
vn -0.0232 0.9978 -0.0621
vn -0.0113 0.9971 -0.0748
vn -0.061 0.9979 -0.0236
vn -0.0019 0.9966 -0.0824
vn -0.0734 0.9972 -0.0114
vn -0.4018 0.913 -0.0708
vn -0.9103 0.4107 -0.0513
vn -0.4385 0.8986 -0.0154
vn -0.0809 0.9967 -0.0017
vn -0.4435 0.8963 0.0003
vn -0.9186 0.3953 0.0001
vn -0 0.8928 -0.4504
vn -1 -0 -0
vn -0 1 0.0003
vn -0.0809 0.9967 0.0024
vn -0 0.9966 0.0827
vn -0.0734 0.9972 0.0121
vn -0.4385 0.8986 0.016
vn -0 0.9966 -0.082
vn -0.4018 0.9129 0.0715
vn -0.9103 0.4107 0.0516
vn -0.8777 0.4413 0.1867
vn -0.9102 -0.411 -0.0504
vn -0.8768 -0.444 -0.1847
vn -0.8091 -0.4745 -0.3469
vn -0.7181 -0.4911 -0.4931
vn -0.6068 -0.4959 -0.6212
vn -0.478 -0.4894 -0.7294
vn -0.3341 -0.4713 -0.8163
vn -0.1772 -0.4397 -0.8805
vn -0.4387 -0.8985 -0.0162
vn -0.4029 -0.9124 -0.072
vn -0.3457 -0.9278 -0.1402
vn -0.2936 -0.9352 -0.1979
vn -0.2434 -0.9372 -0.25
vn -0.1919 -0.9342 -0.3006
vn -0.1355 -0.9258 -0.3529
vn -0.9186 -0.3953 -0.0001
vn -0.9986 0.0028 0.0519
vn -0.9793 0.0096 0.2022
vn -0.0331 -0.9981 -0.0528
vn -0.0612 -0.9978 -0.0244
vn -0.0735 -0.9972 -0.0122
vn -0.0233 -0.9977 -0.063
vn -0.0809 -0.9967 -0.0024
vn -0.0114 -0.9971 -0.0756
vn -0.0691 -0.9095 -0.41
vn -0.4435 -0.8963 -0.0003
vn -0.0483 -0.4057 -0.9127
vn -0.0153 -0.8949 -0.4459
vn -0 -0.3894 -0.9211
vn -0.9986 -0.0045 0.0528
vn -0.9102 -0.411 0.0501
vn -0.4387 -0.8985 0.0156
vn -0.8768 -0.4441 0.1844
vn -0.979 -0.015 0.2035
vn -0 -0.8925 -0.451
vn -0.4029 -0.9124 0.0713
vn -0.8091 -0.4747 0.3465
vn -0.9192 -0.0254 0.3929
vn -0.3457 -0.9279 0.1396
vn -0.7181 -0.4915 0.4928
vn -0.8241 -0.0317 0.5655
vn -0.2936 -0.9354 0.1972
vn -0.6068 -0.4964 0.6208
vn -0.6983 -0.0338 0.715
vn -0.2434 -0.9373 0.2494
vn -0.478 -0.49 0.729
vn -0.5474 -0.0315 0.8363
vn -0.1919 -0.9344 0.3
vn -0.3341 -0.4718 0.8159
vn -0.3774 -0.0252 0.9257
vn -0.1355 -0.9261 0.3522
vn -0.1772 -0.4403 0.8802
vn -0.1945 -0.015 0.9808
vn -0.0691 -0.9097 0.4094
vn -0.0483 -0.4063 0.9125
vn -0.0504 -0.0047 0.9987
vn -0.0153 -0.8953 0.4453
vn -0.0331 -0.9981 0.0521
vn -0.0233 -0.9978 0.0623
vn -0.0114 -0.9971 0.0749
vn -0.0019 -0.9966 0.0824
vn -0.0612 -0.9978 0.0237
vn -0.0735 -0.9972 0.0115
vn -0.0809 -0.9967 0.0017
vn -0 -1 -0.0003
vn -0 -0.8928 0.4504
vn -0 -0.9966 0.082
vn -0 -0.39 0.9208
vn -0 -0.0004 1
vn -0 -0.0003 1
vn -0.0495 0.0024 0.9988
vn -0 0.3894 0.9211
vn 0.0495 0.0024 0.9988
vn 0.0504 -0.0047 0.9987
vn 0.0494 0.4054 0.9128
vn 0.1932 0.0092 0.9811
vn 0.1791 0.4371 0.8814
vn 0.3766 0.016 0.9262
vn 0.0151 0.895 0.4457
vn 0.3363 0.4659 0.8185
vn 0.5471 0.0203 0.8368
vn 0.0483 -0.4063 0.9125
vn -0 0.8925 0.451
vn 0.0686 0.91 0.4089
vn 0.4807 0.4822 0.7324
vn 0.6985 0.0218 0.7153
vn 0.0019 0.9965 0.0831
vn 0.1345 0.9267 0.3509
vn 0.6099 0.4881 0.6243
vn 0.8246 0.0206 0.5653
vn 0.0113 0.9971 0.0755
vn 0.1904 0.9352 0.2985
vn 0.7211 0.4838 0.4959
vn 0.9198 0.0165 0.3921
vn 0.0232 0.9978 0.0628
vn 0.2415 0.9382 0.2481
vn 0.033 0.9981 0.0526
vn 0.0419 0.9982 0.0434
vn 0.0509 0.9981 0.0343
vn 0.2915 0.9362 0.1963
vn 0.8113 0.4689 0.3491
vn 0.9793 0.0096 0.2022
vn 0.3438 0.9287 0.1393
vn 0.8777 0.4413 0.1867
vn 0.9986 0.0028 0.0519
vn 0.061 0.9978 0.0243
vn 0.4018 0.9129 0.0715
vn 0.9103 0.4106 0.0516
vn 0.0734 0.9972 0.0121
vn 0.4385 0.8986 0.016
vn 0.9186 0.3953 0.0001
vn 1 -0 -0
vn 0.0809 0.9967 0.0024
vn 0.4435 0.8963 0.0003
vn 0.0804 0.9968 0.0003
vn 0.0734 0.9972 -0.0114
vn 0.061 0.9979 -0.0236
vn 0.0809 0.9967 -0.0017
vn 0.4385 0.8986 -0.0154
vn 0.4018 0.913 -0.0708
vn 0.9103 0.4107 -0.0513
vn 0.3438 0.9287 -0.1386
vn 0.8777 0.4414 -0.1864
vn 0.8113 0.4692 -0.3488
vn 0.9793 0.0098 -0.2022
vn 0.9198 0.0167 -0.3921
vn 0.9986 0.0028 -0.0519
vn 0.8246 0.0209 -0.5653
vn 0.9986 -0.0044 -0.0528
vn 0.7211 0.4841 -0.4956
vn 0.6985 0.0223 -0.7153
vn 0.2915 0.9363 -0.1957
vn 0.6099 0.4885 -0.624
vn 0.5471 0.0209 -0.8368
vn 0.0509 0.9981 -0.0336
vn 0.4807 0.4827 -0.732
vn 0.3766 0.0166 -0.9262
vn 0.2415 0.9383 -0.2474
vn 0.3363 0.4664 -0.8182
vn 0.1932 0.0099 -0.9811
vn 0.0419 0.9982 -0.0427
vn 0.1904 0.9354 -0.2978
vn 0.1791 0.4377 -0.8811
vn 0.0495 0.0031 -0.9988
vn 0.033 0.9981 -0.0519
vn 0.1345 0.9269 -0.3503
vn 0.0232 0.9978 -0.0621
vn 0.0686 0.9103 -0.4083
vn 0.0494 0.406 -0.9126
vn 0.0113 0.9971 -0.0748
vn 0.0019 0.9966 -0.0824
vn 0.0151 0.8953 -0.4451
vn -0 0.3901 -0.9208
vn -0 0.0004 -1
vn -0.0494 0.4053 0.9128
vn -0.0151 0.895 0.4457
vn -0 -0.9966 -0.0827
vn -0.0019 -0.9965 -0.0831
vn 0.0019 -0.9965 -0.0831
vn 0.0153 -0.8949 -0.4459
vn 0.0504 -0.004 -0.9987
vn 0.0483 -0.4057 -0.9127
vn 0.1945 -0.0143 -0.9808
vn 0.0114 -0.9971 -0.0756
vn 0.0804 -0.9968 -0.0003
vn 0.0233 -0.9977 -0.063
vn 0.0691 -0.9095 -0.41
vn 0.1772 -0.4397 -0.8805
vn 0.3774 -0.0245 -0.9257
vn 0.1355 -0.9258 -0.3529
vn 0.3341 -0.4713 -0.8163
vn 0.5474 -0.031 -0.8363
vn 0.478 -0.4895 -0.7293
vn 0.6983 -0.0333 -0.715
vn 0.1919 -0.9342 -0.3006
vn 0.6068 -0.4959 -0.6212
vn 0.8241 -0.0313 -0.5656
vn 0.0331 -0.9981 -0.0528
vn 0.2434 -0.9372 -0.25
vn 0.7181 -0.4911 -0.4931
vn 0.9192 -0.0252 -0.3929
vn 0.0421 -0.9982 -0.0436
vn 0.2936 -0.9352 -0.1979
vn 0.8091 -0.4745 -0.3469
vn 0.979 -0.0149 -0.2035
vn 0.0511 -0.9981 -0.0344
vn 0.8768 -0.444 -0.1847
vn 0.3457 -0.9278 -0.1402
vn 0.0612 -0.9978 -0.0244
vn 0.4029 -0.9124 -0.072
vn 0.9102 -0.411 -0.0504
vn 0.0735 -0.9972 -0.0122
vn 0.0809 -0.9967 -0.0024
vn 0.4387 -0.8985 -0.0162
vn 0.9186 -0.3953 -0.0001
vn 0.4435 -0.8963 -0.0003
vn 0.0735 -0.9972 0.0115
vn 0.0612 -0.9978 0.0237
vn 0.0511 -0.9981 0.0337
vn 0.0809 -0.9967 0.0017
vn 0.4387 -0.8985 0.0156
vn 0.4029 -0.9124 0.0713
vn 0.3457 -0.9279 0.1396
vn 0.9102 -0.411 0.0501
vn 0.9986 -0.0045 0.0528
vn 0.979 -0.015 0.2035
vn 0.8768 -0.4441 0.1844
vn 0.9192 -0.0254 0.3929
vn 0.8091 -0.4747 0.3465
vn 0.8241 -0.0317 0.5655
vn 0.7181 -0.4915 0.4928
vn 0.6983 -0.0338 0.715
vn 0.2936 -0.9354 0.1972
vn 0.6068 -0.4964 0.6208
vn 0.5474 -0.0315 0.8363
vn 0.2434 -0.9373 0.2494
vn 0.478 -0.49 0.729
vn 0.3774 -0.0252 0.9257
vn 0.0421 -0.9982 0.0429
vn 0.1919 -0.9344 0.3
vn 0.3341 -0.4718 0.8159
vn 0.1945 -0.015 0.9808
vn 0.1772 -0.4403 0.8802
vn 0.0331 -0.9981 0.0521
vn 0.1355 -0.9261 0.3522
vn 0.0691 -0.9098 0.4094
vn 0.0233 -0.9978 0.0623
vn 0.0153 -0.8953 0.4453
vn 0.0114 -0.9971 0.0749
vn 0.0019 -0.9966 0.0824
vn -0.9198 0.0165 0.3921
vn -0.8246 0.0206 0.5653
vn -0.8113 0.4689 0.3491
vn -0.6985 0.0218 0.7153
vn -0.3438 0.9287 0.1393
vn -0.7211 0.4838 0.4959
vn -0.5471 0.0203 0.8368
vn -0.061 0.9978 0.0243
vn -0.2915 0.9362 0.1963
vn -0.6099 0.4881 0.6243
vn -0.3766 0.016 0.9263
vn -0.2415 0.9382 0.2481
vn -0.4807 0.4822 0.7324
vn -0.1932 0.0092 0.9811
vn -0.1904 0.9352 0.2985
vn -0.3363 0.4659 0.8185
vn -0.1791 0.4371 0.8814
vn -0.033 0.9981 0.0526
vn -0.1345 0.9267 0.3509
vn -0.0686 0.91 0.4089
vn -0.0232 0.9978 0.0628
vn -0.0113 0.9971 0.0755
vn -0.0019 0.9965 0.0831
vt 0.025072 0.020322
vt 0.015899 0.063545
vt 0.021177 0.024954
vt 0.015899 0.92969
vt 0.025071 0.972913
vt 0.021177 0.968281
vt 0.619319 0.933962
vt 0.624245 0.956554
vt 0.622154 0.954067
vt 0.624245 0.446244
vt 0.619319 0.468836
vt 0.622154 0.448731
vt 0.752737 0.09162
vt 0.749335 0.091511
vt 0.749502 0.08864
vt 0.752754 0.088772
vt 0.749663 0.085829
vt 0.752915 0.08602
vt 0.749802 0.08295
vt 0.75323 0.08324
vt 0.749884 0.079815
vt 0.753768 0.080279
vt 0.954354 0.959924
vt 0.950463 0.959372
vt 0.951075 0.956436
vt 0.9545 0.956792
vt 0.951441 0.95371
vt 0.954683 0.953947
vt 0.951628 0.951037
vt 0.954862 0.95119
vt 0.951643 0.948279
vt 0.955026 0.94839
vt 0.753521 0.088853
vt 0.753677 0.086127
vt 0.754022 0.083385
vt 0.955268 0.959956
vt 0.754635 0.080462
vt 0.955332 0.956802
vt 0.95548 0.953946
vt 0.955658 0.951173
vt 0.75356 0.091702
vt 0.754596 0.089563
vt 0.754785 0.08671
vt 0.755207 0.083868
vt 0.956804 0.959866
vt 0.755958 0.080942
vt 0.956691 0.956578
vt 0.956742 0.953527
vt 0.75466 0.092561
vt 0.752965 0.106373
vt 0.753857 0.106365
vt 0.749155 0.106384
vt 0.959854 0.959441
vt 0.75752 0.085017
vt 0.758428 0.082036
vt 0.959538 0.955922
vt 0.029817 0.976714
vt 0.756963 0.088085
vt 0.035231 0.979539
vt 0.756679 0.091209
vt 0.041106 0.981278
vt 0.018283 0.962997
vt 0.959385 0.952401
vt 0.047216 0.981865
vt 0.756718 0.09443
vt 0.016501 0.957263
vt 0.95684 0.950543
vt 0.95919 0.948911
vt 0.955867 0.948342
vt 0.956989 0.947508
vt 0.015899 0.9513
vt 0.959041 0.945547
vt 0.959232 0.933974
vt 0.957228 0.93396
vt 0.956099 0.933953
vt 0.754969 0.106355
vt 0.955212 0.933948
vt 0.956502 0.467289
vt 0.958496 0.467269
vt 0.955381 0.4673
vt 0.069357 0.92969
vt 0.069357 0.063545
vt 0.958292 0.455684
vt 0.069357 0.01137
vt 0.016501 0.035972
vt 0.015899 0.041935
vt 0.956191 0.453887
vt 0.069357 0.981865
vt 0.756923 0.106335
vt 0.127996 0.063545
vt 0.95612 0.450975
vt 0.958247 0.452542
vt 0.955081 0.453061
vt 0.955037 0.450302
vt 0.954491 0.467308
vt 0.951412 0.93396
vt 0.951104 0.948197
vt 0.951126 0.95096
vt 0.950942 0.953618
vt 0.950554 0.956322
vt 0.949896 0.959244
vt 0.74929 0.079806
vt 0.749253 0.08296
vt 0.749136 0.085851
vt 0.748976 0.088677
vt 0.949748 0.947219
vt 0.949806 0.950148
vt 0.949581 0.952949
vt 0.949094 0.955762
vt 0.747421 0.080013
vt 0.948248 0.958676
vt 0.747617 0.083318
vt 0.747624 0.086417
vt 0.950828 0.933965
vt 0.950689 0.467316
vt 0.954264 0.452983
vt 0.954276 0.450225
vt 0.743728 0.080845
vt 0.744189 0.084391
vt 0.945182 0.95734
vt 0.946221 0.954377
vt 0.626793 0.444202
vt 0.946868 0.951319
vt 0.6206 0.451569
vt 0.947196 0.948216
vt 0.619642 0.454648
vt 0.629701 0.442686
vt 0.744462 0.087993
vt 0.619319 0.45785
vt 0.947155 0.945044
vt 0.632856 0.441751
vt 0.747555 0.089473
vt 0.744746 0.091593
vt 0.949447 0.933978
vt 0.946991 0.934
vt 0.748778 0.091577
vt 0.747418 0.0926
vt 0.950107 0.467312
vt 0.748569 0.106381
vt 0.948719 0.467303
vt 0.950892 0.452875
vt 0.950339 0.452937
vt 0.94897 0.453917
vt 0.950534 0.450135
vt 0.951055 0.4501
vt 0.747195 0.106374
vt 0.946249 0.467286
vt 0.949111 0.450887
vt 0.95068 0.447395
vt 0.951202 0.447373
vt 0.949168 0.447914
vt 0.950776 0.444565
vt 0.951321 0.444552
vt 0.949138 0.444872
vt 0.950784 0.441436
vt 0.951377 0.441441
vt 0.94891 0.441586
vt 0.876971 0.356093
vt 0.876877 0.359169
vt 0.87631 0.359039
vt 0.877495 0.356209
vt 0.875527 0.355477
vt 0.874685 0.358409
vt 0.877365 0.353333
vt 0.877867 0.353428
vt 0.876014 0.352615
vt 0.877552 0.350596
vt 0.878059 0.350676
vt 0.876241 0.349741
vt 0.877532 0.347743
vt 0.878075 0.347828
vt 0.876186 0.346727
vt 0.872715 0.353974
vt 0.873357 0.350881
vt 0.873683 0.347717
vt 0.629701 0.960112
vt 0.626793 0.958596
vt 0.632856 0.961047
vt 0.871688 0.356946
vt 0.636137 0.961362
vt 0.873647 0.344465
vt 0.945182 0.442289
vt 0.945676 0.445817
vt 0.945965 0.44937
vt 0.6206 0.951229
vt 0.946248 0.452902
vt 0.619642 0.94815
vt 0.946432 0.456306
vt 0.619319 0.944948
vt 0.647392 0.933962
vt 0.647392 0.468836
vt 0.875882 0.333099
vt 0.647392 0.961362
vt 0.873475 0.333121
vt 0.877251 0.333086
vt 0.877837 0.33308
vt 0.881646 0.333065
vt 0.881486 0.347936
vt 0.877172 0.301368
vt 0.877762 0.301366
vt 0.8758 0.301371
vt 0.881547 0.301354
vt 0.678882 0.933962
vt 0.87339 0.301378
vt 0.678882 0.961362
vt 0.678882 0.468836
vt 0.87767 0.269625
vt 0.87708 0.269626
vt 0.881453 0.269614
vt 0.875709 0.26963
vt 0.882443 0.301351
vt 0.88235 0.269611
vt 0.882537 0.333068
vt 0.877578 0.237884
vt 0.881361 0.237873
vt 0.876988 0.237886
vt 0.882257 0.237871
vt 0.873299 0.269637
vt 0.875616 0.23789
vt 0.710372 0.933962
vt 0.710372 0.961362
vt 0.710372 0.468836
vt 0.877485 0.206144
vt 0.881268 0.206133
vt 0.882165 0.20613
vt 0.876895 0.206145
vt 0.873206 0.237897
vt 0.741862 0.933962
vt 0.741862 0.961362
vt 0.741862 0.468836
vt 0.875524 0.206149
vt 0.881175 0.174392
vt 0.877393 0.174403
vt 0.882072 0.174389
vt 0.876803 0.174405
vt 0.773352 0.933962
vt 0.873114 0.206156
vt 0.773352 0.961362
vt 0.773352 0.468836
vt 0.875431 0.174409
vt 0.881083 0.142651
vt 0.8773 0.142662
vt 0.88198 0.142649
vt 0.87671 0.142664
vt 0.804842 0.933962
vt 0.873021 0.174416
vt 0.804842 0.961362
vt 0.804842 0.468836
vt 0.875338 0.142668
vt 0.880992 0.11091
vt 0.877206 0.110922
vt 0.881888 0.110907
vt 0.876616 0.110924
vt 0.836332 0.933962
vt 0.872929 0.142675
vt 0.836332 0.961362
vt 0.836332 0.468836
vt 0.875245 0.110928
vt 0.880925 0.079199
vt 0.877115 0.07921
vt 0.881818 0.079192
vt 0.87653 0.079207
vt 0.867822 0.933962
vt 0.872835 0.110935
vt 0.867822 0.961362
vt 0.867822 0.468836
vt 0.875156 0.0792
vt 0.880698 0.064446
vt 0.877296 0.064337
vt 0.881521 0.064528
vt 0.880715 0.061598
vt 0.881482 0.061679
vt 0.880875 0.058847
vt 0.882621 0.065388
vt 0.881637 0.058953
vt 0.881191 0.056066
vt 0.876739 0.064403
vt 0.88293 0.079181
vt 0.882557 0.062389
vt 0.881983 0.056211
vt 0.881729 0.053105
vt 0.883005 0.110904
vt 0.884679 0.067256
vt 0.882746 0.059536
vt 0.882596 0.053288
vt 0.987296 0.95659
vt 0.988 0.959836
vt 0.987068 0.959781
vt 0.883097 0.142645
vt 0.884884 0.079161
vt 0.88464 0.064035
vt 0.883167 0.056694
vt 0.988143 0.95662
vt 0.987549 0.953699
vt 0.884968 0.110899
vt 0.560615 0.01137
vt 0.538474 0.063545
vt 0.538474 0.01137
vt 0.566724 0.011957
vt 0.479834 0.01137
vt 0.884923 0.060911
vt 0.572599 0.013696
vt 0.883919 0.053768
vt 0.989572 0.959782
vt 0.885481 0.057843
vt 0.578013 0.016521
vt 0.582759 0.020322
vt 0.886389 0.054862
vt 0.479834 0.063545
vt 0.586654 0.024954
vt 0.989534 0.956423
vt 0.9927 0.959417
vt 0.992455 0.955812
vt 0.988359 0.953716
vt 0.987791 0.950907
vt 0.989651 0.953315
vt 0.988597 0.950906
vt 0.98801 0.94809
vt 0.99236 0.952211
vt 0.589548 0.030238
vt 0.989802 0.950286
vt 0.988853 0.948052
vt 0.992193 0.94866
vt 0.59133 0.035972
vt 0.989982 0.947228
vt 0.989149 0.933706
vt 0.988264 0.9337
vt 0.591931 0.041936
vt 0.992045 0.945271
vt 0.990277 0.933715
vt 0.992279 0.933731
vt 0.591931 0.063545
vt 0.538474 0.92969
vt 0.990935 0.467408
vt 0.591931 0.92969
vt 0.479834 0.92969
vt 0.988932 0.467442
vt 0.59133 0.957263
vt 0.538474 0.981865
vt 0.589548 0.962997
vt 0.990606 0.456095
vt 0.990825 0.45303
vt 0.987814 0.467454
vt 0.988644 0.45425
vt 0.988718 0.45132
vt 0.986929 0.467462
vt 0.987565 0.453389
vt 0.989009 0.448498
vt 0.991235 0.44989
vt 0.987644 0.450598
vt 0.987886 0.447912
vt 0.986875 0.450493
vt 0.987118 0.447783
vt 0.986753 0.453288
vt 0.987509 0.445011
vt 0.983127 0.467481
vt 0.983396 0.453085
vt 0.988312 0.445179
vt 0.988131 0.44202
vt 0.989522 0.445658
vt 0.989012 0.442229
vt 0.752977 0.383747
vt 0.75373 0.386937
vt 0.752815 0.386902
vt 0.991904 0.4468
vt 0.586654 0.968281
vt 0.753814 0.383759
vt 0.753173 0.380844
vt 0.990371 0.442705
vt 0.755263 0.386796
vt 0.753978 0.380845
vt 0.753361 0.378004
vt 0.992925 0.443785
vt 0.582759 0.972913
vt 0.755172 0.383489
vt 0.758289 0.386252
vt 0.754165 0.377986
vt 0.753526 0.37511
vt 0.757993 0.382719
vt 0.578013 0.976714
vt 0.755238 0.380383
vt 0.757845 0.379152
vt 0.572599 0.979539
vt 0.755343 0.377316
vt 0.754373 0.375057
vt 0.566724 0.981278
vt 0.757647 0.375597
vt 0.560615 0.981865
vt 0.755486 0.374187
vt 0.757492 0.372156
vt 0.757659 0.360257
vt 0.754576 0.360242
vt 0.753686 0.360239
vt 0.755694 0.360247
vt 0.757562 0.328516
vt 0.479834 0.981865
vt 0.7556 0.328522
vt 0.421195 0.92969
vt 0.754483 0.328525
vt 0.757468 0.296776
vt 0.421195 0.981865
vt 0.755506 0.296782
vt 0.421195 0.063545
vt 0.362555 0.92969
vt 0.757376 0.265035
vt 0.362555 0.981865
vt 0.421195 0.01137
vt 0.885059 0.14264
vt 0.883189 0.174386
vt 0.362555 0.01137
vt 0.885152 0.17438
vt 0.883282 0.206127
vt 0.362555 0.063545
vt 0.883374 0.237867
vt 0.885244 0.206121
vt 0.303915 0.01137
vt 0.303915 0.92969
vt 0.883467 0.269608
vt 0.885337 0.237862
vt 0.303915 0.063545
vt 0.245276 0.01137
vt 0.88356 0.301348
vt 0.885429 0.269602
vt 0.245276 0.063545
vt 0.186636 0.01137
vt 0.245276 0.92969
vt 0.303915 0.981865
vt 0.755413 0.265041
vt 0.757283 0.233295
vt 0.754389 0.296785
vt 0.753586 0.328528
vt 0.885523 0.301342
vt 0.186636 0.063545
vt 0.127996 0.01137
vt 0.186636 0.92969
vt 0.245276 0.981865
vt 0.755321 0.233301
vt 0.757191 0.201554
vt 0.754296 0.265044
vt 0.753492 0.296788
vt 0.883655 0.333073
vt 0.882334 0.347883
vt 0.186636 0.981865
vt 0.755228 0.20156
vt 0.757098 0.169814
vt 0.754204 0.233304
vt 0.7534 0.265047
vt 0.127996 0.92969
vt 0.88562 0.333083
vt 0.127996 0.981865
vt 0.755136 0.169819
vt 0.757007 0.138073
vt 0.755045 0.138078
vt 0.754111 0.201563
vt 0.883447 0.347013
vt 0.753928 0.138081
vt 0.754019 0.169822
vt 0.753307 0.233306
vt 0.753031 0.138084
vt 0.753122 0.169825
vt 0.753215 0.201566
vt 0.749246 0.138096
vt 0.749339 0.169836
vt 0.749432 0.201577
vt 0.749524 0.233317
vt 0.749617 0.265058
vt 0.748656 0.138097
vt 0.748749 0.169838
vt 0.748842 0.201579
vt 0.748935 0.233319
vt 0.747284 0.138102
vt 0.747378 0.169842
vt 0.74747 0.201583
vt 0.749027 0.26506
vt 0.747563 0.233323
vt 0.747655 0.265064
vt 0.744874 0.138109
vt 0.744968 0.169849
vt 0.74506 0.20159
vt 0.745153 0.23333
vt 0.745246 0.265071
vt 0.744775 0.106362
vt 0.744938 0.095077
vt 0.636137 0.441436
vt 0.647392 0.441436
vt 0.678882 0.441436
vt 0.710372 0.441436
vt 0.741862 0.441436
vt 0.773352 0.441436
vt 0.804842 0.441436
vt 0.836332 0.441436
vt 0.745338 0.296811
vt 0.867822 0.441436
vt 0.747748 0.296804
vt 0.745429 0.328552
vt 0.74912 0.2968
vt 0.747839 0.328545
vt 0.899312 0.441436
vt 0.745514 0.360295
vt 0.749709 0.296799
vt 0.749211 0.328541
vt 0.749801 0.32854
vt 0.747922 0.360273
vt 0.899312 0.468836
vt 0.74929 0.36026
vt 0.749876 0.360254
vt 0.745686 0.371639
vt 0.910568 0.441436
vt 0.899312 0.933962
vt 0.748226 0.3739
vt 0.750114 0.375002
vt 0.749571 0.374917
vt 0.750098 0.37785
vt 0.913848 0.441751
vt 0.927385 0.468836
vt 0.917003 0.442686
vt 0.74828 0.376915
vt 0.745723 0.374891
vt 0.749591 0.37777
vt 0.749907 0.380602
vt 0.748054 0.379788
vt 0.745396 0.378055
vt 0.749404 0.380507
vt 0.749534 0.383383
vt 0.749011 0.383267
vt 0.748916 0.386342
vt 0.984161 0.441456
vt 0.747566 0.382651
vt 0.748349 0.386212
vt 0.984024 0.444639
vt 0.983554 0.441436
vt 0.744755 0.381148
vt 0.919911 0.444202
vt 0.746724 0.385583
vt 0.983467 0.444638
vt 0.981628 0.441543
vt 0.983832 0.447516
vt 0.743728 0.38412
vt 0.922459 0.446244
vt 0.981784 0.444914
vt 0.977786 0.44218
vt 0.9833 0.447526
vt 0.983619 0.450286
vt 0.978217 0.445812
vt 0.92455 0.448731
vt 0.98309 0.450311
vt 0.981746 0.448024
vt 0.978455 0.449461
vt 0.926105 0.451569
vt 0.981634 0.45105
vt 0.982841 0.453141
vt 0.927062 0.454648
vt 0.97872 0.453062
vt 0.927385 0.45785
vt 0.981463 0.454108
vt 0.978909 0.456496
vt 0.978691 0.467447
vt 0.982545 0.467477
vt 0.981159 0.467467
vt 0.980037 0.933785
vt 0.927385 0.933962
vt 0.982509 0.933741
vt 0.983885 0.933726
vt 0.927062 0.94815
vt 0.926105 0.951229
vt 0.92455 0.954067
vt 0.980361 0.944558
vt 0.980145 0.947639
vt 0.982788 0.946786
vt 0.984466 0.933721
vt 0.982719 0.949722
vt 0.982395 0.952549
vt 0.979693 0.950798
vt 0.984109 0.9478
vt 0.984644 0.947893
vt 0.984532 0.950679
vt 0.984027 0.950584
vt 0.984261 0.953378
vt 0.983757 0.95327
vt 0.983811 0.956138
vt 0.983284 0.956007
vt 0.983105 0.95911
vt 0.877845 0.052641
vt 0.981815 0.955395
vt 0.978935 0.953895
vt 0.982532 0.958963
vt 0.877763 0.055776
vt 0.877251 0.052632
vt 0.980869 0.958336
vt 0.877214 0.055786
vt 0.875382 0.052839
vt 0.877623 0.058655
vt 0.977786 0.956881
vt 0.922459 0.956554
vt 0.875578 0.056144
vt 0.871688 0.053671
vt 0.877097 0.058677
vt 0.877463 0.061466
vt 0.876937 0.061503
vt 0.872149 0.057217
vt 0.919911 0.958596
vt 0.875585 0.059243
vt 0.875516 0.0623
vt 0.872423 0.060819
vt 0.917003 0.960112
vt 0.875379 0.065426
vt 0.872707 0.06442
vt 0.913848 0.961047
vt 0.872736 0.079188
vt 0.899312 0.961362
vt 0.872898 0.067903
vt 0.910568 0.961362
vt 0.954428 0.447551
vt 0.954731 0.444824
vt 0.955185 0.447654
vt 0.955256 0.441885
vt 0.880775 0.359729
vt 0.956304 0.448194
vt 0.955521 0.444966
vt 0.880938 0.356573
vt 0.958528 0.449477
vt 0.018283 0.030238
vt 0.956718 0.445399
vt 0.956122 0.442064
vt 0.881691 0.359764
vt 0.881134 0.35367
vt 0.959082 0.446443
vt 0.957463 0.442489
vt 0.959989 0.443468
vt 0.881775 0.356586
vt 0.883224 0.359623
vt 0.881322 0.350831
vt 0.883133 0.356316
vt 0.886249 0.359078
vt 0.881939 0.353671
vt 0.882126 0.350812
vt 0.885953 0.355545
vt 0.029817 0.016521
vt 0.883199 0.353209
vt 0.883304 0.350142
vt 0.885806 0.351978
vt 0.035231 0.013696
vt 0.885607 0.348424
vt 0.041106 0.011957
vt 0.885453 0.344982
vt 0.047216 0.01137
usemtl deskMat_Mat.001
f 1/1/1 2/2/2 3/3/3
f 4/4/2 5/5/4 6/6/5
f 7/7/6 8/8/7 9/9/8
f 10/10/9 11/11/6 12/12/10
f 13/13/11 14/14/12 15/15/13
f 13/13/11 15/15/13 16/16/14
f 16/16/14 15/15/13 17/17/15
f 16/16/14 17/17/15 18/18/16
f 18/18/16 17/17/15 19/19/17
f 18/18/16 19/19/17 20/20/18
f 20/20/18 19/19/17 21/21/19
f 20/20/18 21/21/19 22/22/20
f 22/23/20 21/24/19 23/25/21
f 22/23/20 23/25/21 24/26/22
f 24/26/22 23/25/21 25/27/23
f 24/26/22 25/27/23 26/28/24
f 26/28/24 25/27/23 27/29/25
f 26/28/24 27/29/25 28/30/26
f 28/30/26 27/29/25 29/31/27
f 28/30/26 29/31/27 30/32/28
f 31/33/29 16/16/14 18/18/16
f 32/34/30 18/18/16 20/20/18
f 31/33/29 18/18/16 32/34/30
f 33/35/31 20/20/18 22/22/20
f 32/34/30 20/20/18 33/35/31
f 34/36/32 22/23/20 24/26/22
f 33/35/31 22/22/20 34/37/32
f 35/38/33 24/26/22 26/28/24
f 34/36/32 24/26/22 35/38/33
f 36/39/34 26/28/24 28/30/26
f 35/38/33 26/28/24 36/39/34
f 37/40/35 28/30/26 30/32/28
f 36/39/34 28/30/26 37/40/35
f 38/41/36 16/16/14 31/33/29
f 38/41/36 13/13/11 16/16/14
f 39/42/37 31/33/29 32/34/30
f 40/43/38 32/34/30 33/35/31
f 39/42/37 32/34/30 40/43/38
f 41/44/39 33/35/31 34/37/32
f 40/43/38 33/35/31 41/44/39
f 42/45/40 34/36/32 35/38/33
f 41/44/39 34/37/32 42/46/40
f 43/47/41 35/38/33 36/39/34
f 42/45/40 35/38/33 43/47/41
f 44/48/42 36/39/34 37/40/35
f 43/47/41 36/39/34 44/48/42
f 45/49/43 38/41/36 31/33/29
f 45/49/43 31/33/29 39/42/37
f 46/50/44 13/13/11 38/41/36
f 47/51/45 38/41/36 45/49/43
f 46/50/44 38/41/36 47/51/45
f 48/52/44 13/13/11 46/50/44
f 48/52/44 14/14/12 13/13/11
f 5/53/4 42/45/40 43/47/41
f 49/54/46 42/46/40 5/55/4
f 49/54/46 41/44/39 42/46/40
f 5/53/4 43/47/41 6/56/5
f 4/4/2 49/57/46 5/5/4
f 6/56/5 43/47/41 44/48/42
f 50/58/47 41/44/39 49/54/46
f 4/4/2 50/59/47 49/57/46
f 50/58/47 40/43/38 41/44/39
f 51/60/48 40/43/38 50/58/47
f 4/4/2 51/61/48 50/59/47
f 51/60/48 39/42/37 40/43/38
f 4/4/2 6/6/5 52/62/49
f 6/56/5 44/48/42 52/63/49
f 4/4/2 53/64/50 51/61/48
f 53/65/50 39/42/37 51/60/48
f 4/4/2 52/62/49 54/66/51
f 53/65/50 45/49/43 39/42/37
f 52/63/49 44/48/42 55/67/52
f 52/63/49 55/67/52 54/68/51
f 44/48/42 37/40/35 55/67/52
f 55/67/52 37/40/35 56/69/53
f 37/40/35 30/32/28 56/69/53
f 54/68/51 55/67/52 57/70/54
f 55/67/52 56/69/53 57/70/54
f 4/4/2 54/66/51 58/71/55
f 54/68/51 57/70/54 58/72/55
f 57/70/54 4/73/2 58/72/55
f 56/69/53 59/74/56 57/70/54
f 57/70/54 59/74/56 4/73/2
f 30/32/28 60/75/57 56/69/53
f 56/69/53 60/75/57 59/74/56
f 61/76/58 45/49/43 53/65/50
f 47/51/45 45/49/43 61/76/58
f 30/32/28 62/77/59 60/75/57
f 29/31/27 62/77/59 30/32/28
f 60/75/57 63/78/56 59/74/56
f 59/74/56 2/79/2 4/73/2
f 59/74/56 63/78/56 2/79/2
f 62/77/59 64/80/57 60/75/57
f 60/75/57 64/80/57 63/78/56
f 65/81/60 53/64/50 4/4/2
f 66/82/60 4/4/2 2/2/2
f 66/82/60 65/81/60 4/4/2
f 63/78/56 67/83/61 2/79/2
f 2/2/2 68/84/62 66/82/60
f 69/85/63 2/2/2 67/86/61
f 63/78/56 70/87/64 67/83/61
f 64/80/57 70/87/64 63/78/56
f 53/64/50 65/81/60 71/88/65
f 61/76/58 53/65/50 71/89/65
f 72/90/60 65/81/60 66/82/60
f 68/84/62 72/90/60 66/82/60
f 73/91/66 69/92/63 67/83/61
f 73/91/66 67/83/61 70/87/64
f 64/80/57 74/93/67 70/87/64
f 75/94/68 73/91/66 70/87/64
f 75/94/68 70/87/64 74/93/67
f 76/95/59 74/93/67 64/80/57
f 62/77/59 76/95/59 64/80/57
f 77/96/59 76/95/59 62/77/59
f 29/31/27 77/96/59 62/77/59
f 78/97/69 77/96/59 29/31/27
f 27/29/25 78/97/69 29/31/27
f 27/29/25 79/98/70 78/97/69
f 25/27/23 79/98/70 27/29/25
f 25/27/23 80/99/71 79/98/70
f 23/25/21 80/99/71 25/27/23
f 23/25/21 81/100/72 80/99/71
f 21/24/19 81/100/72 23/25/21
f 21/24/19 82/101/73 81/100/72
f 19/19/17 82/102/73 21/21/19
f 19/19/17 83/103/74 82/102/73
f 17/17/15 83/103/74 19/19/17
f 17/17/15 84/104/75 83/103/74
f 15/15/13 84/104/75 17/17/15
f 15/15/13 85/105/76 84/104/75
f 14/14/12 85/105/76 15/15/13
f 79/98/70 86/106/77 78/97/69
f 80/99/71 87/107/78 79/98/70
f 79/98/70 87/107/78 86/106/77
f 81/100/72 88/108/79 80/99/71
f 80/99/71 88/108/79 87/107/78
f 82/101/73 89/109/80 81/100/72
f 81/100/72 89/109/80 88/108/79
f 83/103/74 90/110/81 82/102/73
f 82/101/73 90/111/81 89/109/80
f 84/104/75 91/112/82 83/103/74
f 83/103/74 91/112/82 90/110/81
f 85/105/76 92/113/83 84/104/75
f 84/104/75 92/113/83 91/112/82
f 86/106/77 93/114/84 78/97/69
f 78/97/69 93/114/84 77/96/59
f 93/114/84 94/115/59 77/96/59
f 77/96/59 94/115/59 76/95/59
f 94/115/59 95/116/85 76/95/59
f 76/95/59 95/116/85 74/93/67
f 96/117/86 74/93/67 95/116/85
f 96/117/86 75/94/68 74/93/67
f 91/112/82 10/118/9 90/110/81
f 91/112/82 97/119/87 10/118/9
f 92/113/83 97/119/87 91/112/82
f 90/111/81 10/120/9 12/121/10
f 90/111/81 12/121/10 89/109/80
f 97/122/87 11/11/6 10/10/9
f 89/109/80 12/121/10 98/123/88
f 12/12/10 11/11/6 98/124/88
f 89/109/80 98/123/88 88/108/79
f 88/108/79 98/123/88 99/125/89
f 98/124/88 11/11/6 99/126/89
f 88/108/79 99/125/89 87/107/78
f 100/127/90 11/11/6 97/122/87
f 92/113/83 100/128/90 97/119/87
f 99/126/89 11/11/6 101/129/91
f 87/107/78 99/125/89 101/130/91
f 102/131/92 11/11/6 100/127/90
f 87/107/78 101/130/91 86/106/77
f 103/132/93 100/128/90 92/113/83
f 103/132/93 102/133/92 100/128/90
f 85/105/76 103/132/93 92/113/83
f 101/130/91 104/134/94 86/106/77
f 101/130/91 11/135/6 104/134/94
f 86/106/77 104/134/94 93/114/84
f 105/136/95 103/132/93 85/105/76
f 14/14/12 105/136/95 85/105/76
f 106/137/96 102/133/92 103/132/93
f 105/136/95 106/137/96 103/132/93
f 104/134/94 107/138/84 93/114/84
f 93/114/84 107/138/84 94/115/59
f 108/139/97 105/136/95 14/14/12
f 108/139/97 14/14/12 48/52/44
f 11/135/6 109/140/94 104/134/94
f 104/134/94 109/140/94 107/138/84
f 107/138/84 110/141/98 94/115/59
f 94/115/59 110/141/98 95/116/85
f 107/138/84 111/142/99 110/141/98
f 109/140/94 111/142/99 107/138/84
f 109/140/94 112/143/100 111/142/99
f 113/144/101 110/141/98 111/142/99
f 113/144/101 114/145/102 110/141/98
f 115/146/103 105/136/95 108/139/97
f 115/146/103 106/137/96 105/136/95
f 11/135/6 7/147/6 109/140/94
f 7/147/6 112/143/100 109/140/94
f 116/148/104 111/142/99 112/143/100
f 116/148/104 113/144/101 111/142/99
f 117/149/105 114/145/102 113/144/101
f 117/149/105 118/150/106 114/145/102
f 119/151/107 113/144/101 116/148/104
f 119/151/107 117/149/105 113/144/101
f 120/152/108 118/150/106 117/149/105
f 120/152/108 121/153/109 118/150/106
f 122/154/110 117/149/105 119/151/107
f 122/154/110 120/152/108 117/149/105
f 123/155/111 121/153/109 120/152/108
f 123/155/111 124/156/112 121/153/109
f 125/157/113 120/152/108 122/154/110
f 125/157/113 123/155/111 120/152/108
f 126/158/114 124/159/112 123/160/111
f 126/158/114 127/161/115 124/159/112
f 128/162/116 123/160/111 125/163/113
f 128/162/116 126/158/114 123/160/111
f 129/164/117 127/161/115 126/158/114
f 129/164/117 130/165/118 127/161/115
f 131/166/119 126/158/114 128/162/116
f 131/166/119 129/164/117 126/158/114
f 132/167/120 130/165/118 129/164/117
f 132/167/120 133/168/121 130/165/118
f 134/169/122 129/164/117 131/166/119
f 134/169/122 132/167/120 129/164/117
f 135/170/123 133/168/121 132/167/120
f 135/170/123 136/171/124 133/168/121
f 137/172/125 132/167/120 134/169/122
f 137/172/125 135/170/123 132/167/120
f 138/173/126 128/162/116 125/163/113
f 139/174/127 131/166/119 128/162/116
f 139/174/127 128/162/116 138/173/126
f 140/175/128 134/169/122 131/166/119
f 140/175/128 131/166/119 139/174/127
f 7/7/6 139/176/127 138/177/126
f 7/7/6 140/178/128 139/176/127
f 7/7/6 138/177/126 8/8/7
f 138/173/126 125/163/113 8/179/7
f 7/7/6 141/180/129 140/178/128
f 141/181/129 134/169/122 140/175/128
f 141/181/129 137/172/125 134/169/122
f 8/182/7 125/157/113 122/154/110
f 8/182/7 122/154/110 9/183/8
f 9/183/8 122/154/110 119/151/107
f 9/183/8 119/151/107 142/184/130
f 7/7/6 9/9/8 142/185/130
f 142/184/130 119/151/107 116/148/104
f 142/184/130 116/148/104 143/186/131
f 7/7/6 142/185/130 143/187/131
f 143/186/131 116/148/104 112/143/100
f 143/186/131 112/143/100 144/188/132
f 7/7/6 143/187/131 144/189/132
f 7/147/6 144/188/132 112/143/100
f 145/190/133 141/180/129 7/7/6
f 7/7/6 146/191/133 145/190/133
f 7/7/6 11/11/6 146/191/133
f 141/181/129 147/192/134 137/172/125
f 141/180/129 145/190/133 148/193/135
f 141/181/129 148/194/135 147/192/134
f 137/172/125 147/192/134 149/195/136
f 137/172/125 149/195/136 135/170/123
f 135/170/123 149/195/136 150/196/137
f 135/170/123 150/196/137 136/171/124
f 136/171/124 150/196/137 151/197/138
f 136/171/124 151/197/138 152/198/139
f 147/192/134 153/199/136 149/195/136
f 149/195/136 154/200/138 150/196/137
f 149/195/136 153/199/136 154/200/138
f 148/194/135 155/201/134 147/192/134
f 147/192/134 155/201/134 153/199/136
f 150/196/137 156/202/137 151/197/138
f 150/196/137 154/200/138 156/202/137
f 148/193/135 145/190/133 157/203/133
f 148/194/135 158/204/135 155/201/134
f 148/193/135 157/203/133 158/205/135
f 145/190/133 159/206/133 157/203/133
f 145/190/133 146/191/133 159/206/133
f 153/199/136 160/207/138 154/200/138
f 155/201/134 161/208/136 153/199/136
f 153/199/136 161/208/136 160/207/138
f 154/200/138 162/209/137 156/202/137
f 154/200/138 160/207/138 162/209/137
f 158/204/135 163/210/134 155/201/134
f 155/201/134 163/210/134 161/208/136
f 151/197/138 156/202/137 164/211/140
f 156/202/137 162/209/137 165/212/140
f 156/202/137 165/212/140 164/211/140
f 151/197/138 164/211/140 166/213/140
f 152/198/139 151/197/138 166/213/140
f 161/208/136 167/214/138 160/207/138
f 160/207/138 168/215/138 162/209/137
f 160/207/138 167/214/138 168/215/138
f 163/210/134 169/216/136 161/208/136
f 161/208/136 169/216/136 167/214/138
f 162/209/137 170/217/140 165/212/140
f 162/209/137 168/215/138 170/217/140
f 158/204/135 171/218/135 163/210/134
f 163/210/134 172/219/134 169/216/136
f 171/218/135 172/219/134 163/210/134
f 158/205/135 173/220/133 171/221/135
f 158/205/135 157/203/133 173/220/133
f 157/203/133 174/222/133 173/220/133
f 157/203/133 159/206/133 174/222/133
f 169/216/136 175/223/138 167/214/138
f 167/214/138 176/224/138 168/215/138
f 167/214/138 175/223/138 176/224/138
f 168/215/138 177/225/140 170/217/140
f 168/215/138 176/224/138 177/225/140
f 172/219/134 178/226/136 169/216/136
f 169/216/136 178/226/136 175/223/138
f 171/218/135 179/227/135 172/219/134
f 171/221/135 173/220/133 180/228/133
f 171/221/135 180/228/133 179/229/135
f 173/220/133 174/222/133 181/230/133
f 173/220/133 181/230/133 180/228/133
f 172/219/134 182/231/134 178/226/136
f 179/227/135 182/231/134 172/219/134
f 175/223/138 183/232/138 176/224/138
f 178/226/136 184/233/138 175/223/138
f 175/223/138 184/233/138 183/232/138
f 176/224/138 185/234/140 177/225/140
f 176/224/138 183/232/138 185/234/140
f 182/231/134 186/235/136 178/226/136
f 178/226/136 186/235/136 184/233/138
f 179/229/135 180/228/133 187/236/133
f 179/227/135 188/237/135 182/231/134
f 179/229/135 187/236/133 188/238/135
f 180/228/133 181/230/133 189/239/133
f 180/228/133 189/239/133 187/236/133
f 182/231/134 190/240/134 186/235/136
f 188/237/135 190/240/134 182/231/134
f 184/233/138 191/241/137 183/232/138
f 186/235/136 192/242/138 184/233/138
f 184/233/138 192/242/138 191/241/137
f 183/232/138 193/243/140 185/234/140
f 183/232/138 191/241/137 193/243/140
f 190/240/134 194/244/136 186/235/136
f 186/235/136 194/244/136 192/242/138
f 188/238/135 187/236/133 195/245/133
f 188/237/135 196/246/135 190/240/134
f 188/238/135 195/245/133 196/247/135
f 187/236/133 189/239/133 197/248/133
f 187/236/133 197/248/133 195/245/133
f 190/240/134 198/249/134 194/244/136
f 196/246/135 198/249/134 190/240/134
f 192/242/138 199/250/138 191/241/137
f 194/244/136 200/251/138 192/242/138
f 192/242/138 200/251/138 199/250/138
f 191/241/137 201/252/140 193/243/140
f 191/241/137 199/250/138 201/252/140
f 198/249/134 202/253/136 194/244/136
f 194/244/136 202/253/136 200/251/138
f 196/247/135 195/245/133 203/254/133
f 196/246/135 204/255/135 198/249/134
f 196/247/135 203/254/133 204/256/135
f 195/245/133 197/248/133 205/257/133
f 195/245/133 205/257/133 203/254/133
f 198/249/134 206/258/134 202/253/136
f 204/255/135 206/258/134 198/249/134
f 200/251/138 207/259/137 199/250/138
f 202/253/136 208/260/137 200/251/138
f 200/251/138 208/260/137 207/259/137
f 199/250/138 209/261/140 201/252/140
f 199/250/138 207/259/137 209/261/140
f 206/258/134 210/262/136 202/253/136
f 202/253/136 210/262/136 208/260/137
f 204/256/135 203/254/133 211/263/133
f 204/255/135 212/264/135 206/258/134
f 204/256/135 211/263/133 212/265/135
f 203/254/133 205/257/133 213/266/133
f 203/254/133 213/266/133 211/263/133
f 206/258/134 214/267/134 210/262/136
f 212/264/135 214/267/134 206/258/134
f 208/260/137 215/268/141 207/259/137
f 210/262/136 216/269/142 208/260/137
f 208/260/137 216/269/142 215/268/141
f 207/259/137 215/268/141 217/270/143
f 207/259/137 217/270/143 209/261/140
f 218/271/144 217/270/143 215/268/141
f 218/271/144 219/272/145 217/270/143
f 220/273/146 219/272/145 218/271/144
f 209/261/140 217/270/143 221/274/147
f 219/272/145 221/274/147 217/270/143
f 220/273/146 222/275/148 219/272/145
f 223/276/149 222/275/148 220/273/146
f 214/267/134 224/277/150 210/262/136
f 210/262/136 224/277/150 216/269/142
f 209/261/140 221/274/147 225/278/151
f 201/252/140 209/261/140 225/278/151
f 219/272/145 226/279/152 221/274/147
f 222/275/148 226/279/152 219/272/145
f 223/276/149 227/280/153 222/275/148
f 228/281/154 227/280/153 223/276/149
f 201/252/140 225/278/151 229/282/151
f 193/243/140 201/252/140 229/282/151
f 225/278/151 221/274/147 230/283/155
f 226/279/152 230/283/155 221/274/147
f 222/275/148 231/284/156 226/279/152
f 227/280/153 231/284/156 222/275/148
f 228/281/154 232/285/157 227/280/153
f 233/286/158 232/287/157 228/288/154
f 193/243/140 229/282/151 234/289/151
f 185/234/140 193/243/140 234/289/151
f 229/282/151 225/278/151 235/290/62
f 225/278/151 230/283/155 235/290/62
f 226/279/152 236/291/159 230/283/155
f 231/284/156 236/291/159 226/279/152
f 227/280/153 237/292/160 231/284/156
f 232/285/157 237/292/160 227/280/153
f 233/286/158 238/293/161 232/287/157
f 239/294/162 238/293/161 233/286/158
f 229/282/151 235/290/62 240/295/62
f 234/289/151 229/282/151 240/295/62
f 230/296/155 241/297/60 235/298/62
f 236/299/159 241/297/60 230/296/155
f 240/300/62 235/298/62 241/297/60
f 231/284/156 242/301/163 236/291/159
f 237/292/160 242/301/163 231/284/156
f 242/302/163 241/297/60 236/299/159
f 232/285/157 243/303/164 237/292/160
f 238/293/161 243/304/164 232/287/157
f 237/292/160 244/305/165 242/301/163
f 244/306/165 241/297/60 242/302/163
f 243/303/164 244/305/165 237/292/160
f 245/307/166 241/297/60 244/306/165
f 243/303/164 245/308/166 244/305/165
f 240/300/62 241/297/60 246/309/60
f 247/310/167 241/297/60 245/307/166
f 248/311/168 245/312/166 243/304/164
f 238/293/161 248/311/168 243/304/164
f 248/311/168 247/313/167 245/312/166
f 249/314/169 248/311/168 238/293/161
f 239/294/162 249/314/169 238/293/161
f 250/315/170 249/314/169 239/294/162
f 251/316/171 247/313/167 248/311/168
f 249/314/169 251/316/171 248/311/168
f 250/315/170 252/317/172 249/314/169
f 252/317/172 251/316/171 249/314/169
f 253/318/173 252/317/172 250/315/170
f 251/316/171 254/319/174 247/313/167
f 254/320/174 241/297/60 247/310/167
f 252/317/172 255/321/175 251/316/171
f 255/321/175 254/319/174 251/316/171
f 253/318/173 256/322/176 252/317/172
f 256/322/176 255/321/175 252/317/172
f 255/321/175 257/323/177 254/319/174
f 257/324/177 241/297/60 254/320/174
f 258/325/178 257/323/177 255/321/175
f 256/322/176 258/325/178 255/321/175
f 253/318/173 259/326/179 256/322/176
f 253/318/173 260/327/180 259/326/179
f 261/328/181 241/297/60 257/324/177
f 258/325/178 261/329/181 257/323/177
f 256/322/176 262/330/182 258/325/178
f 256/322/176 259/326/179 262/330/182
f 258/325/178 263/331/183 261/329/181
f 241/297/60 261/328/181 263/332/183
f 258/325/178 262/330/182 263/331/183
f 263/332/183 264/333/60 241/297/60
f 262/330/182 265/334/183 263/331/183
f 263/332/183 265/335/183 264/333/60
f 241/297/60 264/333/60 266/336/60
f 241/297/60 266/336/60 246/309/60
f 259/326/179 267/337/182 262/330/182
f 262/330/182 267/337/182 265/334/183
f 265/335/183 268/338/184 264/333/60
f 266/336/60 264/333/60 269/339/65
f 264/333/60 268/338/184 270/340/185
f 267/337/182 271/341/186 265/334/183
f 268/342/184 265/334/183 271/341/186
f 259/326/179 272/343/179 267/337/182
f 267/337/182 273/344/187 271/341/186
f 272/343/179 273/344/187 267/337/182
f 274/345/188 268/342/184 271/341/186
f 274/345/188 271/341/186 273/344/187
f 275/346/180 272/343/179 259/326/179
f 275/346/180 259/326/179 260/327/180
f 272/343/179 276/347/189 273/344/187
f 275/346/180 276/347/189 272/343/179
f 277/348/190 270/349/185 268/342/184
f 277/348/190 268/342/184 274/345/188
f 278/350/191 274/345/188 273/344/187
f 278/350/191 273/344/187 276/347/189
f 279/351/192 277/348/190 274/345/188
f 279/351/192 274/345/188 278/350/191
f 280/352/193 278/350/191 276/347/189
f 281/353/194 278/350/191 280/352/193
f 281/353/194 279/351/192 278/350/191
f 280/352/193 276/347/189 282/354/195
f 275/346/180 282/354/195 276/347/189
f 283/355/196 279/351/192 281/353/194
f 284/356/180 282/354/195 275/346/180
f 284/356/180 275/346/180 260/327/180
f 284/356/180 285/357/197 282/354/195
f 283/355/196 286/358/198 279/351/192
f 286/358/198 277/348/190 279/351/192
f 287/359/199 286/358/198 283/355/196
f 286/358/198 288/360/200 277/348/190
f 288/360/200 270/349/185 277/348/190
f 287/359/199 289/361/201 286/358/198
f 289/361/201 288/360/200 286/358/198
f 290/362/202 289/363/201 287/364/199
f 288/360/200 291/365/203 270/349/185
f 264/333/60 270/340/185 291/366/203
f 290/362/202 292/367/204 289/363/201
f 293/368/205 292/367/204 290/362/202
f 289/361/201 294/369/206 288/360/200
f 294/369/206 291/365/203 288/360/200
f 292/367/204 294/370/206 289/363/201
f 293/368/205 295/371/207 292/367/204
f 296/372/208 295/371/207 293/368/205
f 294/369/206 297/373/209 291/365/203
f 264/333/60 291/366/203 297/374/209
f 292/367/204 298/375/210 294/370/206
f 298/375/210 297/376/209 294/370/206
f 295/371/207 298/375/210 292/367/204
f 296/372/208 299/377/211 295/371/207
f 300/378/212 299/377/211 296/372/208
f 298/375/210 301/379/213 297/376/209
f 264/333/60 297/374/209 301/380/213
f 295/371/207 302/381/214 298/375/210
f 302/381/214 301/379/213 298/375/210
f 299/377/211 302/381/214 295/371/207
f 302/381/214 303/382/215 301/379/213
f 264/333/60 301/380/213 303/383/215
f 299/377/211 304/384/216 302/381/214
f 304/384/216 303/382/215 302/381/214
f 300/378/212 305/385/217 299/377/211
f 305/385/217 304/384/216 299/377/211
f 264/333/60 303/383/215 306/386/218
f 304/384/216 306/387/218 303/382/215
f 264/333/60 306/386/218 307/388/219
f 264/333/60 307/388/219 269/339/65
f 308/389/220 306/387/218 304/384/216
f 308/389/220 307/390/219 306/387/218
f 305/385/217 308/389/220 304/384/216
f 308/389/220 269/391/65 307/390/219
f 300/378/212 309/392/221 305/385/217
f 300/378/212 310/393/222 309/392/221
f 305/385/217 311/394/58 308/389/220
f 308/389/220 311/394/58 269/391/65
f 305/385/217 309/392/221 311/394/58
f 311/394/58 312/395/65 269/391/65
f 266/336/60 269/339/65 312/396/65
f 309/392/221 313/397/58 311/394/58
f 311/394/58 313/397/58 312/395/65
f 314/398/60 266/336/60 312/396/65
f 246/309/60 266/336/60 314/398/60
f 310/393/222 315/399/45 309/392/221
f 309/392/221 315/399/45 313/397/58
f 313/397/58 316/400/65 312/395/65
f 314/398/60 312/396/65 316/401/65
f 315/399/45 317/402/58 313/397/58
f 313/397/58 317/402/58 316/400/65
f 246/309/60 314/398/60 318/403/60
f 319/404/60 314/398/60 316/401/65
f 318/403/60 314/398/60 319/404/60
f 317/402/58 320/405/65 316/400/65
f 319/404/60 316/401/65 320/406/65
f 321/407/62 246/309/60 318/403/60
f 321/407/62 240/300/62 246/309/60
f 234/289/151 240/295/62 321/408/62
f 322/409/151 234/289/151 321/408/62
f 185/234/140 234/289/151 322/409/151
f 177/225/140 185/234/140 322/409/151
f 323/410/62 321/407/62 318/403/60
f 322/409/151 321/408/62 323/411/62
f 177/225/140 322/409/151 324/412/151
f 324/412/151 322/409/151 323/411/62
f 170/217/140 177/225/140 324/412/151
f 318/403/60 319/404/60 325/413/60
f 323/410/62 318/403/60 325/413/60
f 170/217/140 324/412/151 326/414/151
f 165/212/140 170/217/140 326/414/151
f 324/412/151 323/411/62 327/415/62
f 327/416/62 323/410/62 325/413/60
f 326/414/151 324/412/151 327/415/62
f 325/413/60 319/404/60 328/417/60
f 328/417/60 319/404/60 320/406/65
f 165/212/140 326/414/151 329/418/151
f 164/211/140 165/212/140 329/418/151
f 326/414/151 327/415/62 330/419/62
f 329/418/151 326/414/151 330/419/62
f 327/416/62 325/413/60 331/420/60
f 325/413/60 328/417/60 331/420/60
f 330/421/62 327/416/62 331/420/60
f 164/211/140 329/418/151 332/422/151
f 166/213/140 164/211/140 332/422/151
f 329/418/151 330/419/62 333/423/62
f 332/422/151 329/418/151 333/423/62
f 330/421/62 331/420/60 334/424/60
f 333/425/62 330/421/62 334/424/60
f 331/420/60 328/417/60 335/426/60
f 331/420/60 335/426/60 334/424/60
f 328/417/60 320/406/65 336/427/65
f 335/426/60 328/417/60 336/427/65
f 337/428/58 336/429/65 320/405/65
f 317/402/58 337/428/58 320/405/65
f 338/430/45 337/428/58 317/402/58
f 315/399/45 338/430/45 317/402/58
f 339/431/44 338/430/45 315/399/45
f 310/393/222 339/431/44 315/399/45
f 332/422/151 333/423/62 340/432/62
f 333/425/62 334/424/60 341/433/60
f 340/434/62 333/425/62 341/433/60
f 334/424/60 335/426/60 342/435/60
f 334/424/60 342/435/60 341/433/60
f 335/426/60 336/427/65 343/436/65
f 342/435/60 335/426/60 343/436/65
f 337/428/58 344/437/58 336/429/65
f 344/437/58 343/438/65 336/429/65
f 338/430/45 345/439/45 337/428/58
f 345/439/45 344/437/58 337/428/58
f 339/431/44 346/440/222 338/430/45
f 346/440/222 345/439/45 338/430/45
f 347/441/151 332/422/151 340/432/62
f 166/213/140 332/422/151 347/441/151
f 348/442/223 166/213/140 347/441/151
f 152/198/139 166/213/140 348/442/223
f 342/435/60 343/436/65 349/443/65
f 344/437/58 350/444/58 343/438/65
f 350/444/58 349/445/65 343/438/65
f 345/439/45 351/446/45 344/437/58
f 351/446/45 350/444/58 344/437/58
f 346/440/222 352/447/44 345/439/45
f 352/447/44 351/446/45 345/439/45
f 353/448/60 342/435/60 349/443/65
f 341/433/60 342/435/60 353/448/60
f 341/433/60 353/448/60 72/90/60
f 340/434/62 341/433/60 72/90/60
f 68/84/62 340/434/62 72/90/60
f 72/90/60 353/448/60 65/81/60
f 347/441/151 340/432/62 68/449/62
f 65/81/60 353/448/60 354/450/65
f 353/448/60 349/443/65 354/450/65
f 65/81/60 354/450/65 71/88/65
f 350/444/58 355/451/58 349/445/65
f 355/451/58 354/452/65 349/445/65
f 356/453/58 71/89/65 354/452/65
f 355/451/58 356/453/58 354/452/65
f 356/453/58 61/76/58 71/89/65
f 351/446/45 357/454/45 350/444/58
f 357/454/45 355/451/58 350/444/58
f 358/455/224 347/441/151 68/449/62
f 348/442/223 347/441/151 358/455/224
f 359/456/45 61/76/58 356/453/58
f 359/456/45 47/51/45 61/76/58
f 360/457/45 356/453/58 355/451/58
f 357/454/45 360/457/45 355/451/58
f 360/457/45 359/456/45 356/453/58
f 361/458/44 357/454/45 351/446/45
f 352/447/44 361/458/44 351/446/45
f 362/459/222 47/51/45 359/456/45
f 362/459/222 46/50/44 47/51/45
f 363/460/222 359/456/45 360/457/45
f 363/460/222 362/459/222 359/456/45
f 364/461/44 360/457/45 357/454/45
f 361/458/44 364/461/44 357/454/45
f 364/461/44 363/460/222 360/457/45
f 365/462/44 46/50/44 362/459/222
f 365/462/44 48/52/44 46/50/44
f 366/463/44 362/459/222 363/460/222
f 366/463/44 365/462/44 362/459/222
f 367/464/44 363/460/222 364/461/44
f 367/464/44 366/463/44 363/460/222
f 368/465/44 364/461/44 361/458/44
f 368/465/44 367/464/44 364/461/44
f 369/466/222 361/458/44 352/447/44
f 369/466/222 368/465/44 361/458/44
f 370/467/97 48/52/44 365/462/44
f 370/467/97 108/139/97 48/52/44
f 371/468/97 365/462/44 366/463/44
f 371/468/97 370/467/97 365/462/44
f 372/469/97 366/463/44 367/464/44
f 372/469/97 371/468/97 366/463/44
f 373/470/97 367/464/44 368/465/44
f 373/470/97 372/469/97 367/464/44
f 374/471/103 108/139/97 370/467/97
f 374/471/103 115/146/103 108/139/97
f 375/472/103 370/467/97 371/468/97
f 375/472/103 374/471/103 370/467/97
f 376/473/103 371/468/97 372/469/97
f 376/473/103 375/472/103 371/468/97
f 377/474/97 368/465/44 369/466/222
f 377/474/97 373/470/97 368/465/44
f 378/475/103 372/469/97 373/470/97
f 378/475/103 376/473/103 372/469/97
f 379/476/103 373/470/97 377/474/97
f 379/476/103 378/475/103 373/470/97
f 380/477/225 115/146/103 374/471/103
f 381/478/225 374/471/103 375/472/103
f 381/478/225 380/477/225 374/471/103
f 382/479/225 375/472/103 376/473/103
f 382/479/225 381/478/225 375/472/103
f 383/480/225 376/473/103 378/475/103
f 383/480/225 382/479/225 376/473/103
f 384/481/225 378/475/103 379/476/103
f 384/481/225 383/480/225 378/475/103
f 380/477/225 385/482/225 115/146/103
f 385/482/225 106/137/96 115/146/103
f 385/482/225 386/483/226 106/137/96
f 106/137/96 386/483/226 102/133/92
f 386/484/226 11/11/6 102/131/92
f 385/485/225 11/11/6 386/484/226
f 11/11/6 385/485/225 146/191/133
f 146/191/133 385/485/225 380/486/225
f 146/191/133 380/486/225 159/206/133
f 159/206/133 380/486/225 381/487/225
f 159/206/133 381/487/225 174/222/133
f 174/222/133 381/487/225 382/488/225
f 174/222/133 382/488/225 181/230/133
f 181/230/133 382/488/225 383/489/225
f 181/230/133 383/489/225 189/239/133
f 189/239/133 383/489/225 384/490/225
f 189/239/133 384/490/225 197/248/133
f 197/248/133 384/490/225 387/491/225
f 197/248/133 387/491/225 205/257/133
f 387/492/225 384/481/225 379/476/103
f 205/257/133 387/491/225 388/493/225
f 205/257/133 388/493/225 213/266/133
f 387/492/225 379/476/103 389/494/103
f 388/495/225 387/492/225 389/494/103
f 389/494/103 379/476/103 377/474/97
f 389/494/103 377/474/97 390/496/97
f 390/496/97 377/474/97 369/466/222
f 388/495/225 389/494/103 391/497/103
f 391/497/103 389/494/103 390/496/97
f 213/266/133 388/493/225 392/498/225
f 392/499/225 388/495/225 391/497/103
f 390/496/97 369/466/222 393/500/44
f 393/500/44 369/466/222 352/447/44
f 393/500/44 352/447/44 346/440/222
f 391/497/103 390/496/97 394/501/97
f 394/501/97 390/496/97 393/500/44
f 395/502/44 393/500/44 346/440/222
f 394/501/97 393/500/44 395/502/44
f 395/502/44 346/440/222 339/431/44
f 396/503/103 391/497/103 394/501/97
f 392/499/225 391/497/103 396/503/103
f 213/266/133 392/498/225 397/504/133
f 211/263/133 213/266/133 397/504/133
f 398/505/97 394/501/97 395/502/44
f 396/503/103 394/501/97 398/505/97
f 399/506/44 395/502/44 339/431/44
f 398/505/97 395/502/44 399/506/44
f 399/506/44 339/431/44 310/393/222
f 400/507/227 392/499/225 396/503/103
f 400/508/227 397/504/133 392/498/225
f 211/263/133 397/504/133 401/509/133
f 212/265/135 211/263/133 401/509/133
f 402/510/228 396/503/103 398/505/97
f 400/507/227 396/503/103 402/510/228
f 403/511/229 399/506/44 310/393/222
f 403/511/229 310/393/222 300/378/212
f 403/511/229 300/378/212 296/372/208
f 404/512/230 398/505/97 399/506/44
f 404/512/230 399/506/44 403/511/229
f 402/510/228 398/505/97 404/512/230
f 403/511/229 296/372/208 405/513/231
f 404/512/230 403/511/229 405/513/231
f 405/513/231 296/372/208 293/368/205
f 406/514/232 397/504/133 400/508/227
f 401/509/133 397/504/133 407/515/233
f 408/516/234 397/504/133 406/514/232
f 400/507/227 402/510/228 409/517/235
f 400/507/227 409/517/235 406/518/232
f 402/510/228 404/512/230 410/519/236
f 404/512/230 405/513/231 410/519/236
f 402/510/228 410/519/236 409/517/235
f 405/513/231 293/368/205 411/520/237
f 410/519/236 405/513/231 411/520/237
f 411/520/237 293/368/205 290/362/202
f 406/518/232 409/517/235 412/521/238
f 406/518/232 412/521/238 408/522/234
f 409/517/235 410/519/236 413/523/239
f 410/519/236 411/520/237 413/523/239
f 409/517/235 413/523/239 412/521/238
f 411/520/237 290/362/202 414/524/240
f 413/523/239 411/520/237 414/524/240
f 414/524/240 290/362/202 287/364/199
f 412/521/238 413/523/239 415/525/241
f 413/523/239 414/524/240 415/525/241
f 414/524/240 287/364/199 416/526/242
f 415/525/241 414/524/240 416/526/242
f 416/527/242 287/359/199 283/355/196
f 408/522/234 412/521/238 417/528/243
f 412/521/238 415/525/241 417/528/243
f 415/525/241 416/526/242 418/529/244
f 417/528/243 415/525/241 418/529/244
f 416/527/242 283/355/196 419/530/245
f 418/531/244 416/527/242 419/530/245
f 419/530/245 283/355/196 281/353/194
f 408/522/234 417/528/243 420/532/246
f 420/533/246 397/504/133 408/516/234
f 417/528/243 418/529/244 421/534/247
f 420/532/246 417/528/243 421/534/247
f 418/531/244 419/530/245 422/535/248
f 421/536/247 418/531/244 422/535/248
f 419/530/245 281/353/194 423/537/249
f 422/535/248 419/530/245 423/537/249
f 423/537/249 281/353/194 280/352/193
f 420/532/246 421/534/247 424/538/250
f 424/539/250 397/504/133 420/533/246
f 421/536/247 422/535/248 425/540/251
f 424/541/250 421/536/247 425/540/251
f 422/535/248 423/537/249 426/542/252
f 425/540/251 422/535/248 426/542/252
f 423/537/249 280/352/193 427/543/253
f 426/542/252 423/537/249 427/543/253
f 427/543/253 280/352/193 282/354/195
f 427/543/253 282/354/195 285/357/197
f 424/541/250 425/540/251 428/544/254
f 428/545/254 397/504/133 424/539/250
f 426/542/252 427/543/253 429/546/255
f 429/546/255 427/543/253 285/357/197
f 425/540/251 426/542/252 430/547/256
f 428/544/254 425/540/251 430/547/256
f 430/547/256 426/542/252 429/546/255
f 428/544/254 430/547/256 431/548/257
f 431/549/257 397/504/133 428/545/254
f 430/547/256 429/546/255 432/550/258
f 431/548/257 430/547/256 432/550/258
f 429/546/255 285/357/197 433/551/259
f 432/550/258 429/546/255 433/551/259
f 434/552/260 397/504/133 431/549/257
f 431/548/257 432/550/258 434/553/260
f 435/554/261 397/504/133 434/552/260
f 397/504/133 435/554/261 407/515/233
f 434/553/260 432/550/258 436/555/262
f 434/553/260 436/555/262 435/556/261
f 432/550/258 433/551/259 436/555/262
f 407/557/233 435/556/261 436/555/262
f 437/558/263 433/551/259 285/357/197
f 437/558/263 285/357/197 284/356/180
f 438/559/264 436/555/262 433/551/259
f 407/557/233 436/555/262 438/559/264
f 438/559/264 433/551/259 437/558/263
f 439/560/233 407/557/233 438/559/264
f 401/509/133 407/515/233 439/561/233
f 440/562/264 438/559/264 437/558/263
f 439/560/233 438/559/264 440/562/264
f 441/563/263 437/558/263 284/356/180
f 440/562/264 437/558/263 441/563/263
f 439/561/233 442/564/265 401/509/133
f 401/509/133 442/564/265 443/565/266
f 401/509/133 443/565/266 444/566/267
f 445/567/268 439/560/233 440/562/264
f 442/568/265 439/560/233 445/567/268
f 445/567/268 440/562/264 446/569/269
f 446/569/269 440/562/264 441/563/263
f 441/563/263 284/356/180 447/570/180
f 284/356/180 260/327/180 447/570/180
f 445/567/268 448/571/270 442/568/265
f 445/567/268 446/569/269 448/571/270
f 442/568/265 449/572/271 443/573/266
f 442/568/265 448/571/270 449/572/271
f 450/574/272 441/563/263 447/570/180
f 446/569/269 441/563/263 450/574/272
f 451/575/273 447/570/180 260/327/180
f 450/574/272 447/570/180 451/575/273
f 451/575/273 260/327/180 253/318/173
f 451/575/273 253/318/173 250/315/170
f 451/575/273 250/315/170 452/576/274
f 450/574/272 451/575/273 452/576/274
f 452/576/274 250/315/170 239/294/162
f 446/569/269 450/574/272 453/577/275
f 446/569/269 453/577/275 448/571/270
f 450/574/272 452/576/274 453/577/275
f 452/576/274 239/294/162 454/578/276
f 453/577/275 452/576/274 454/578/276
f 454/578/276 239/294/162 233/286/158
f 448/571/270 453/577/275 455/579/277
f 453/577/275 454/578/276 455/579/277
f 448/571/270 455/579/277 449/572/271
f 454/578/276 233/286/158 456/580/278
f 455/579/277 454/578/276 456/580/278
f 456/580/278 233/286/158 228/288/154
f 449/572/271 455/579/277 457/581/279
f 455/579/277 456/580/278 457/581/279
f 456/580/278 228/288/154 458/582/280
f 457/581/279 456/580/278 458/582/280
f 458/583/280 228/281/154 223/276/149
f 449/572/271 457/581/279 459/584/281
f 443/573/266 449/572/271 459/584/281
f 443/573/266 459/584/281 444/585/267
f 457/581/279 458/582/280 460/586/282
f 459/584/281 457/581/279 460/586/282
f 458/583/280 223/276/149 461/587/283
f 460/588/282 458/583/280 461/587/283
f 461/587/283 223/276/149 220/273/146
f 444/585/267 459/584/281 462/589/284
f 459/584/281 460/586/282 462/589/284
f 460/588/282 461/587/283 463/590/285
f 462/591/284 460/588/282 463/590/285
f 461/587/283 220/273/146 464/592/286
f 463/590/285 461/587/283 464/592/286
f 464/592/286 220/273/146 218/271/144
f 444/585/267 462/589/284 465/593/287
f 401/509/133 444/566/267 465/594/287
f 462/591/284 463/590/285 466/595/288
f 465/596/287 462/591/284 466/595/288
f 463/590/285 464/592/286 467/597/289
f 466/595/288 463/590/285 467/597/289
f 464/592/286 218/271/144 468/598/290
f 467/597/289 464/592/286 468/598/290
f 468/598/290 218/271/144 215/268/141
f 468/598/290 215/268/141 216/269/142
f 469/599/291 468/598/290 216/269/142
f 467/597/289 468/598/290 469/599/291
f 469/599/291 216/269/142 224/277/150
f 465/596/287 466/595/288 470/600/292
f 401/509/133 465/594/287 470/601/292
f 466/595/288 467/597/289 471/602/293
f 471/602/293 467/597/289 469/599/291
f 470/600/292 466/595/288 471/602/293
f 472/603/294 469/599/291 224/277/150
f 471/602/293 469/599/291 472/603/294
f 470/600/292 471/602/293 473/604/295
f 401/509/133 470/601/292 473/605/295
f 473/604/295 471/602/293 472/603/294
f 472/603/294 224/277/150 474/606/296
f 214/267/134 474/606/296 224/277/150
f 473/604/295 472/603/294 475/607/297
f 401/509/133 473/605/295 475/608/297
f 475/607/297 472/603/294 474/606/296
f 476/609/135 474/606/296 214/267/134
f 212/264/135 476/609/135 214/267/134
f 212/265/135 401/509/133 476/610/135
f 475/607/297 474/606/296 477/611/298
f 476/609/135 477/611/298 474/606/296
f 401/509/133 475/608/297 477/612/298
f 401/509/133 477/612/298 476/610/135
f 114/145/102 95/116/85 110/141/98
f 114/145/102 96/117/86 95/116/85
f 118/150/106 96/117/86 114/145/102
f 118/150/106 478/613/299 96/117/86
f 121/153/109 478/613/299 118/150/106
f 478/613/299 75/94/68 96/117/86
f 121/153/109 479/614/300 478/613/299
f 124/156/112 479/614/300 121/153/109
f 478/613/299 480/615/301 75/94/68
f 479/614/300 480/615/301 478/613/299
f 480/615/301 73/91/66 75/94/68
f 124/156/112 481/616/302 479/614/300
f 127/161/115 481/617/302 124/159/112
f 480/615/301 482/618/303 73/91/66
f 482/618/303 69/92/63 73/91/66
f 479/614/300 483/619/304 480/615/301
f 481/616/302 483/619/304 479/614/300
f 483/619/304 482/618/303 480/615/301
f 127/161/115 484/620/305 481/617/302
f 130/165/118 484/620/305 127/161/115
f 482/618/303 485/621/306 69/92/63
f 485/622/306 2/2/2 69/85/63
f 483/619/304 486/623/307 482/618/303
f 486/623/307 485/621/306 482/618/303
f 481/616/302 487/624/308 483/619/304
f 484/620/305 487/625/308 481/617/302
f 487/624/308 486/623/307 483/619/304
f 130/165/118 488/626/309 484/620/305
f 133/168/121 488/626/309 130/165/118
f 486/623/307 3/627/3 485/621/306
f 3/3/3 2/2/2 485/622/306
f 489/628/310 3/627/3 486/623/307
f 487/624/308 489/628/310 486/623/307
f 489/628/310 1/629/1 3/627/3
f 484/620/305 490/630/311 487/625/308
f 490/630/311 489/631/310 487/625/308
f 488/626/309 490/630/311 484/620/305
f 133/168/121 491/632/312 488/626/309
f 136/171/124 491/632/312 133/168/121
f 136/171/124 152/198/139 491/632/312
f 492/633/313 1/634/1 489/631/310
f 490/630/311 492/633/313 489/631/310
f 488/626/309 493/635/314 490/630/311
f 491/632/312 493/635/314 488/626/309
f 493/635/314 492/633/313 490/630/311
f 152/198/139 494/636/315 491/632/312
f 491/632/312 494/636/315 493/635/314
f 152/198/139 348/442/223 494/636/315
f 492/633/313 495/637/316 1/634/1
f 495/638/316 2/2/2 1/1/1
f 493/635/314 496/639/317 492/633/313
f 494/636/315 496/639/317 493/635/314
f 496/639/317 495/637/316 492/633/313
f 348/442/223 497/640/318 494/636/315
f 494/636/315 497/640/318 496/639/317
f 348/442/223 358/455/224 497/640/318
f 496/639/317 498/641/319 495/637/316
f 497/640/318 498/641/319 496/639/317
f 498/642/319 2/2/2 495/638/316
f 497/640/318 499/643/320 498/641/319
f 358/455/224 499/643/320 497/640/318
f 499/644/320 2/2/2 498/642/319
f 358/455/224 500/645/321 499/643/320
f 500/646/321 2/2/2 499/644/320
f 358/455/224 68/449/62 500/645/321
f 68/84/62 2/2/2 500/646/321
s off
