# Blender 5.0.0
# www.blender.org
mtllib desk_mat_02.mtl
o desk_mat.001
v -2.657210 -0.051028 2.960038
v -2.694323 -0.051013 2.915900
v -2.744617 -0.050886 2.548148
v -2.744617 -0.048037 -5.705677
v -2.694323 -0.047910 -6.073428
v -2.657210 -0.047895 -6.117567
v -2.733361 -0.186796 2.548101
v -2.683067 -0.186919 2.904866
v -2.645953 -0.186934 2.949005
v -2.645953 -0.183809 -6.106627
v -2.683067 -0.183824 -6.062489
v -2.733361 -0.183947 -5.705724
v -2.503186 -0.082995 -6.251088
v -2.559922 -0.149595 -6.245657
v -2.503186 -0.149593 -6.251111
v -2.559922 -0.082997 -6.245635
v -2.614476 -0.149601 -6.229505
v -2.614476 -0.083002 -6.229482
v -2.664754 -0.149610 -6.203276
v -2.664754 -0.083012 -6.203253
v -2.708823 -0.149622 -6.167977
v -2.708823 -0.083024 -6.167954
v -2.744989 -0.149637 -6.124964
v -2.744989 -0.083039 -6.124941
v -2.771863 -0.149654 -6.075892
v -2.771863 -0.083055 -6.075870
v -2.788412 -0.149672 -6.022646
v -2.788412 -0.083074 -6.022624
v -2.794000 -0.149691 -5.967272
v -2.794000 -0.083093 -5.967249
v -2.558548 -0.067215 -6.245596
v -2.613423 -0.067220 -6.229350
v -2.663995 -0.067229 -6.202966
v -2.708323 -0.067242 -6.167460
v -2.744701 -0.067257 -6.124196
v -2.771733 -0.067274 -6.074835
v -2.788379 -0.067292 -6.021277
v -2.501481 -0.067213 -6.251082
v -2.541533 -0.053527 -6.231416
v -2.597002 -0.053533 -6.214993
v -2.648123 -0.053542 -6.188323
v -2.692931 -0.053554 -6.152432
v -2.729703 -0.053569 -6.108699
v -2.757028 -0.053587 -6.058804
v -2.483846 -0.053525 -6.236961
v -2.235200 -0.082995 -6.251088
v -2.235200 -0.067213 -6.251082
v -2.235200 -0.149593 -6.251111
v -2.611987 -0.047882 -6.153790
v -2.560392 -0.047873 -6.180706
v -2.504409 -0.047867 -6.197280
v -2.721901 -0.047927 -6.023070
v -2.446189 -0.047865 -6.202878
v -2.738883 -0.047946 -5.968430
v -2.773854 -0.053605 -6.004664
v -2.794000 -0.067311 -5.965579
v -2.779536 -0.053625 -5.948362
v -2.744618 -0.047966 -5.911605
v -2.779536 -0.053709 -5.705678
v -2.794000 -0.067401 -5.705683
v -2.235200 -0.053525 -6.236961
v -2.794000 -0.083183 -5.705689
v -2.779536 -0.056557 2.548146
v -2.794000 -0.070250 2.548141
v -2.235200 -0.048037 -5.705677
v -2.235200 -0.050886 2.548148
v -2.744617 -0.050957 2.754077
v -2.235200 -0.051057 3.045350
v -2.738883 -0.050976 2.810901
v -2.779536 -0.056641 2.790830
v -2.235200 -0.047865 -6.202878
v -1.676400 -0.050886 2.548148
v -2.773854 -0.056660 2.847132
v -2.794000 -0.070339 2.808036
v -2.788379 -0.070359 2.863735
v -2.794000 -0.086032 2.548136
v -2.794000 -0.149782 -5.705712
v -2.794000 -0.160079 -5.965611
v -2.788379 -0.160060 -6.021309
v -2.771733 -0.160041 -6.074867
v -2.744701 -0.160024 -6.124228
v -2.708323 -0.160009 -6.167492
v -2.663995 -0.159997 -6.202998
v -2.613423 -0.159988 -6.229382
v -2.558548 -0.159982 -6.245628
v -2.776239 -0.176900 -5.945187
v -2.770558 -0.176880 -6.001491
v -2.753731 -0.176862 -6.055629
v -2.726407 -0.176845 -6.105524
v -2.689634 -0.176829 -6.149257
v -2.644826 -0.176817 -6.185148
v -2.593705 -0.176808 -6.211818
v -2.794000 -0.160169 -5.705715
v -2.794000 -0.152630 2.548113
v -2.794000 -0.086122 2.809696
v -2.788412 -0.086141 2.865070
v -2.600731 -0.183796 -6.142851
v -2.710644 -0.183841 -6.012132
v -2.727626 -0.183860 -5.957490
v -2.549136 -0.183787 -6.169766
v -2.733361 -0.183880 -5.900667
v -2.493153 -0.183781 -6.186342
v -2.538236 -0.176802 -6.228241
v -2.776239 -0.176983 -5.705721
v -2.501481 -0.159981 -6.251114
v -2.480550 -0.176800 -6.233786
v -2.794000 -0.163018 2.548109
v -2.235200 -0.159981 -6.251114
v -2.776239 -0.179831 2.548103
v -2.794000 -0.152721 2.809673
v -2.794000 -0.163107 2.808004
v -2.776239 -0.179914 2.787570
v -2.788379 -0.163127 2.863703
v -2.788412 -0.152740 2.865047
v -2.235200 -0.176800 -6.233786
v -2.770558 -0.179933 2.843872
v -2.771733 -0.163145 2.917262
v -2.771863 -0.152758 2.918294
v -2.753731 -0.179952 2.898011
v -2.744701 -0.163162 2.966622
v -2.744989 -0.152775 2.967366
v -2.726407 -0.179969 2.947906
v -2.708323 -0.163177 3.009886
v -2.708823 -0.152790 3.010378
v -2.689634 -0.179984 2.991639
v -2.663995 -0.163189 3.045393
v -2.664754 -0.152802 3.045677
v -2.644826 -0.179997 3.027531
v -2.613423 -0.163198 3.071776
v -2.614476 -0.152811 3.071907
v -2.593705 -0.180006 3.054200
v -2.558548 -0.163204 3.088023
v -2.559922 -0.152817 3.088059
v -2.538236 -0.180012 3.070623
v -2.501481 -0.163206 3.093509
v -2.503186 -0.152819 3.093513
v -2.480550 -0.180014 3.076168
v -2.600731 -0.186947 2.985228
v -2.549137 -0.186956 3.012144
v -2.493153 -0.186962 3.028719
v -2.434933 -0.186964 3.034316
v -2.710644 -0.186901 2.854509
v -2.727627 -0.186883 2.799869
v -2.733361 -0.186863 2.743044
v -2.235200 -0.186796 2.548101
v -2.235200 -0.183947 -5.705724
v -2.235200 -0.180014 3.076168
v -2.235200 -0.186964 3.034316
v -2.235200 -0.163206 3.093509
v -2.235200 -0.152819 3.093513
v -2.235200 -0.086220 3.093536
v -2.503186 -0.086220 3.093536
v -1.676400 -0.163206 3.093509
v -1.676400 -0.152819 3.093513
v -1.676400 -0.180014 3.076168
v -1.676400 -0.086220 3.093536
v -1.676400 -0.186796 2.548101
v -1.676400 -0.186964 3.034316
v -1.676400 -0.183947 -5.705724
v -1.117600 -0.152819 3.093513
v -1.117600 -0.163206 3.093509
v -1.117600 -0.086220 3.093536
v -1.117600 -0.180014 3.076168
v -1.676400 -0.070438 3.093541
v -1.117600 -0.070438 3.093541
v -2.235200 -0.070438 3.093541
v -0.558800 -0.152819 3.093513
v -0.558800 -0.086220 3.093536
v -0.558800 -0.163206 3.093509
v -0.558800 -0.070438 3.093541
v -1.117600 -0.186964 3.034316
v -0.558800 -0.180014 3.076168
v -1.117600 -0.186796 2.548101
v -1.117600 -0.183947 -5.705724
v 0.000000 -0.152819 3.093513
v 0.000000 -0.086220 3.093536
v 0.000000 -0.070438 3.093541
v 0.000000 -0.163206 3.093509
v -0.558800 -0.186964 3.034316
v -0.558800 -0.186796 2.548101
v -0.558800 -0.183947 -5.705724
v 0.000000 -0.180014 3.076168
v 0.558800 -0.086220 3.093536
v 0.558800 -0.152819 3.093513
v 0.558800 -0.070438 3.093541
v 0.558800 -0.163206 3.093509
v 0.000000 -0.186796 2.548101
v 0.000000 -0.186964 3.034316
v 0.000000 -0.183947 -5.705724
v 0.558800 -0.180014 3.076168
v 1.117600 -0.086220 3.093536
v 1.117600 -0.152819 3.093513
v 1.117600 -0.070438 3.093541
v 1.117600 -0.163206 3.093509
v 0.558800 -0.186796 2.548101
v 0.558800 -0.186964 3.034316
v 0.558800 -0.183947 -5.705724
v 1.117600 -0.180014 3.076168
v 1.676400 -0.086220 3.093536
v 1.676400 -0.152819 3.093513
v 1.676400 -0.070438 3.093541
v 1.676400 -0.163206 3.093509
v 1.117600 -0.186796 2.548101
v 1.117600 -0.186964 3.034316
v 1.117600 -0.183947 -5.705724
v 1.676400 -0.180014 3.076168
v 2.235200 -0.086220 3.093536
v 2.235200 -0.152819 3.093513
v 2.235200 -0.070438 3.093541
v 2.235200 -0.163206 3.093509
v 1.676400 -0.186796 2.548101
v 1.676400 -0.186964 3.034316
v 1.676400 -0.183947 -5.705724
v 2.235200 -0.180014 3.076168
v 2.503186 -0.086220 3.093536
v 2.503186 -0.152819 3.093513
v 2.501481 -0.070438 3.093541
v 2.559922 -0.086218 3.088082
v 2.558548 -0.070436 3.088055
v 2.614476 -0.086213 3.071930
v 2.483846 -0.056741 3.079429
v 2.613423 -0.070431 3.071808
v 2.664754 -0.086204 3.045700
v 2.501481 -0.163206 3.093509
v 2.235200 -0.056741 3.079429
v 2.541533 -0.056739 3.073883
v 2.663995 -0.070421 3.045425
v 2.708823 -0.086192 3.010401
v 1.676400 -0.056741 3.079429
v 2.446189 -0.051057 3.045350
v 2.597002 -0.056733 3.057460
v 2.708323 -0.070409 3.009918
v 2.744989 -0.086177 2.967389
v 1.117600 -0.056741 3.079429
v 2.235200 -0.051057 3.045350
v 2.504409 -0.051055 3.039753
v 2.648123 -0.056724 3.030791
v 2.744701 -0.070394 2.966654
v 2.771863 -0.086160 2.918317
v 1.676400 -0.051057 3.045350
v 2.235200 -0.050886 2.548148
v 2.560393 -0.051050 3.023178
v 2.692931 -0.056711 2.994900
v 2.611987 -0.051040 2.996262
v 2.657210 -0.051028 2.960038
v 1.676400 -0.050886 2.548148
v 2.694323 -0.051013 2.915900
v 2.729703 -0.056696 2.951167
v 2.771733 -0.070377 2.917294
v 2.788412 -0.086141 2.865070
v 2.757028 -0.056679 2.901272
v 2.788379 -0.070359 2.863735
v 2.794000 -0.086122 2.809696
v 2.721901 -0.050995 2.865542
v 2.773854 -0.056660 2.847132
v 2.794000 -0.070339 2.808036
v 2.738883 -0.050976 2.810901
v 2.779536 -0.056641 2.790830
v 2.794000 -0.070250 2.548141
v 2.794000 -0.086032 2.548136
v 2.744617 -0.050957 2.754077
v 2.779536 -0.056557 2.548146
v 2.744617 -0.050886 2.548148
v 2.235200 -0.048037 -5.705677
v 2.744617 -0.048037 -5.705677
v 1.676400 -0.048037 -5.705677
v 2.779536 -0.053709 -5.705678
v 2.738883 -0.047946 -5.968430
v 2.235200 -0.047865 -6.202878
v 2.721901 -0.047927 -6.023070
v 2.744617 -0.047966 -5.911605
v 2.794000 -0.067401 -5.705683
v 2.779536 -0.053625 -5.948362
v 2.773854 -0.053605 -6.004664
v 2.794000 -0.083183 -5.705689
v 2.794000 -0.067311 -5.965579
v 2.757028 -0.053587 -6.058804
v 2.788379 -0.067292 -6.021277
v 2.771733 -0.067274 -6.074835
v 2.788412 -0.083074 -6.022624
v 2.771863 -0.083055 -6.075870
v 2.794000 -0.083093 -5.967249
v 2.744989 -0.083039 -6.124941
v 2.794000 -0.149782 -5.705712
v 2.794000 -0.149691 -5.967272
v 2.744701 -0.067257 -6.124196
v 2.708823 -0.083024 -6.167954
v 2.729703 -0.053569 -6.108699
v 2.708323 -0.067242 -6.167460
v 2.664754 -0.083012 -6.203253
v 2.694323 -0.047910 -6.073428
v 2.663995 -0.067229 -6.202966
v 2.614476 -0.083002 -6.229482
v 2.692931 -0.053554 -6.152432
v 2.613423 -0.067220 -6.229350
v 2.559922 -0.082997 -6.245635
v 2.657210 -0.047895 -6.117567
v 2.648123 -0.053542 -6.188323
v 2.558548 -0.067215 -6.245596
v 2.503186 -0.082995 -6.251088
v 2.611987 -0.047882 -6.153790
v 2.597002 -0.053533 -6.214993
v 2.560393 -0.047873 -6.180706
v 2.541533 -0.053527 -6.231416
v 2.501481 -0.067213 -6.251082
v 2.504409 -0.047867 -6.197280
v 2.446189 -0.047865 -6.202878
v 2.483846 -0.053525 -6.236961
v 2.235200 -0.067213 -6.251082
v 2.235200 -0.082995 -6.251088
v 2.235200 -0.053525 -6.236961
v 1.676400 -0.047865 -6.202878
v 1.676400 -0.053525 -6.236961
v 1.117600 -0.048037 -5.705677
v 1.676400 -0.067213 -6.251082
v 1.117600 -0.047865 -6.202878
v 1.117600 -0.053525 -6.236961
v 1.117600 -0.050886 2.548148
v 0.558800 -0.048037 -5.705677
v 0.558800 -0.047865 -6.202878
v 1.117600 -0.051057 3.045350
v 0.558800 -0.056741 3.079429
v 0.558800 -0.051057 3.045350
v 0.000000 -0.056741 3.079429
v 0.558800 -0.050886 2.548148
v -0.558800 -0.056741 3.079429
v 0.000000 -0.051057 3.045350
v 0.000000 -0.048037 -5.705677
v -1.117600 -0.056741 3.079429
v -0.558800 -0.051057 3.045350
v 0.000000 -0.050886 2.548148
v -1.676400 -0.056741 3.079429
v -1.117600 -0.051057 3.045350
v -0.558800 -0.050886 2.548148
v -0.558800 -0.048037 -5.705677
v 0.000000 -0.047865 -6.202878
v 0.558800 -0.053525 -6.236961
v 1.117600 -0.067213 -6.251082
v 1.676400 -0.082995 -6.251088
v -1.676400 -0.051057 3.045350
v -1.117600 -0.050886 2.548148
v -1.117600 -0.048037 -5.705677
v -0.558800 -0.047865 -6.202878
v 0.000000 -0.053525 -6.236961
v 0.558800 -0.067213 -6.251082
v 1.117600 -0.082995 -6.251088
v -2.235200 -0.056741 3.079429
v -2.501481 -0.070438 3.093541
v -1.117600 -0.047865 -6.202878
v -0.558800 -0.053525 -6.236961
v 0.000000 -0.067213 -6.251082
v 0.558800 -0.082995 -6.251088
v -1.676400 -0.048037 -5.705677
v -1.676400 -0.047865 -6.202878
v -1.117600 -0.053525 -6.236961
v -1.676400 -0.053525 -6.236961
v -0.558800 -0.067213 -6.251082
v -2.483846 -0.056741 3.079429
v -1.676400 -0.067213 -6.251082
v -1.117600 -0.067213 -6.251082
v 0.000000 -0.082995 -6.251088
v -1.676400 -0.082995 -6.251088
v -1.117600 -0.082995 -6.251088
v -0.558800 -0.082995 -6.251088
v -1.676400 -0.149593 -6.251111
v -1.117600 -0.149593 -6.251111
v -0.558800 -0.149593 -6.251111
v 0.000000 -0.149593 -6.251111
v 0.558800 -0.149593 -6.251111
v -1.676400 -0.159981 -6.251114
v -1.117600 -0.159981 -6.251114
v -0.558800 -0.159981 -6.251114
v 0.000000 -0.159981 -6.251114
v -1.676400 -0.176800 -6.233786
v -1.117600 -0.176800 -6.233786
v -0.558800 -0.176800 -6.233786
v 0.558800 -0.159981 -6.251114
v 0.000000 -0.176800 -6.233786
v 0.558800 -0.176800 -6.233786
v -1.676400 -0.183779 -6.191938
v -1.117600 -0.183779 -6.191938
v -0.558800 -0.183779 -6.191938
v 0.000000 -0.183779 -6.191938
v 0.558800 -0.183779 -6.191938
v -2.235200 -0.183779 -6.191938
v -2.434933 -0.183779 -6.191938
v 1.117600 -0.183779 -6.191938
v 1.676400 -0.183779 -6.191938
v 1.117600 -0.176800 -6.233786
v 1.117600 -0.159981 -6.251114
v 1.676400 -0.176800 -6.233786
v 2.235200 -0.183779 -6.191938
v 1.117600 -0.149593 -6.251111
v 1.676400 -0.159981 -6.251114
v 1.676400 -0.149593 -6.251111
v 2.235200 -0.176800 -6.233786
v 2.235200 -0.183947 -5.705724
v 2.235200 -0.159981 -6.251114
v 2.235200 -0.149593 -6.251111
v 2.434933 -0.183779 -6.191938
v 2.235200 -0.186796 2.548101
v 2.480550 -0.176800 -6.233786
v 2.503186 -0.149593 -6.251111
v 2.501481 -0.159981 -6.251114
v 2.559922 -0.149595 -6.245657
v 2.493153 -0.183781 -6.186342
v 2.733361 -0.183947 -5.705724
v 2.549137 -0.183787 -6.169766
v 2.538236 -0.176802 -6.228241
v 2.558548 -0.159982 -6.245628
v 2.614476 -0.149601 -6.229505
v 2.593705 -0.176808 -6.211818
v 2.613423 -0.159988 -6.229382
v 2.664754 -0.149610 -6.203276
v 2.663995 -0.159997 -6.202998
v 2.708823 -0.149622 -6.167977
v 2.644826 -0.176817 -6.185148
v 2.708323 -0.160009 -6.167492
v 2.744989 -0.149637 -6.124964
v 2.600731 -0.183796 -6.142850
v 2.689634 -0.176829 -6.149257
v 2.744701 -0.160024 -6.124228
v 2.771863 -0.149654 -6.075892
v 2.645953 -0.183809 -6.106627
v 2.726407 -0.176845 -6.105524
v 2.771733 -0.160041 -6.074867
v 2.788412 -0.149672 -6.022646
v 2.683067 -0.183824 -6.062489
v 2.788379 -0.160060 -6.021309
v 2.753731 -0.176862 -6.055629
v 2.710644 -0.183841 -6.012132
v 2.770558 -0.176880 -6.001491
v 2.794000 -0.160079 -5.965611
v 2.727626 -0.183860 -5.957490
v 2.733361 -0.183880 -5.900667
v 2.776239 -0.176900 -5.945187
v 2.794000 -0.160169 -5.705715
v 2.776239 -0.176983 -5.705721
v 2.733361 -0.186796 2.548101
v 2.776239 -0.179831 2.548103
v 2.794000 -0.163018 2.548109
v 2.727626 -0.186883 2.799869
v 2.710644 -0.186902 2.854509
v 2.683067 -0.186919 2.904866
v 2.733361 -0.186863 2.743044
v 2.776239 -0.179914 2.787570
v 2.794000 -0.152630 2.548113
v 2.770558 -0.179933 2.843872
v 2.753731 -0.179952 2.898011
v 2.794000 -0.163107 2.808004
v 2.794000 -0.152721 2.809673
v 2.788412 -0.152740 2.865047
v 2.788379 -0.163127 2.863703
v 2.771863 -0.152758 2.918294
v 2.771733 -0.163145 2.917262
v 2.744989 -0.152775 2.967366
v 2.744701 -0.163162 2.966622
v 2.708823 -0.152790 3.010378
v 2.726407 -0.179969 2.947906
v 2.708323 -0.163177 3.009886
v 2.664754 -0.152802 3.045677
v 2.689634 -0.179984 2.991639
v 2.663995 -0.163189 3.045393
v 2.614476 -0.152811 3.071907
v 2.645953 -0.186934 2.949005
v 2.644826 -0.179997 3.027531
v 2.613423 -0.163198 3.071776
v 2.559922 -0.152817 3.088059
v 2.558548 -0.163204 3.088023
v 2.600731 -0.186947 2.985228
v 2.593705 -0.180006 3.054200
v 2.538236 -0.180012 3.070623
v 2.549136 -0.186956 3.012144
v 2.480550 -0.180014 3.076168
v 2.493153 -0.186962 3.028719
v 2.235200 -0.186964 3.034316
v 2.434933 -0.186963 3.034316
v -2.771863 -0.086160 2.918317
v -2.744989 -0.086177 2.967389
v -2.771733 -0.070377 2.917294
v -2.708823 -0.086192 3.010401
v -2.757028 -0.056679 2.901272
v -2.744701 -0.070394 2.966654
v -2.664754 -0.086204 3.045700
v -2.721901 -0.050995 2.865542
v -2.729703 -0.056696 2.951167
v -2.708323 -0.070409 3.009918
v -2.614476 -0.086213 3.071930
v -2.692931 -0.056711 2.994900
v -2.663995 -0.070421 3.045425
v -2.559922 -0.086218 3.088082
v -2.648123 -0.056724 3.030791
v -2.613423 -0.070431 3.071808
v -2.558548 -0.070436 3.088055
v -2.611987 -0.051040 2.996262
v -2.597002 -0.056733 3.057460
v -2.541533 -0.056739 3.073883
v -2.560393 -0.051050 3.023178
v -2.504409 -0.051055 3.039753
v -2.446189 -0.051057 3.045350
vn -0.0419 0.9982 0.0434
vn -0.0804 0.9968 0.0003
vn -0.0509 0.9981 0.0343
vn -0.0419 0.9982 -0.0427
vn -0.0509 0.9981 -0.0336
vn -0.0804 -0.9968 -0.0003
vn -0.0421 -0.9982 0.0429
vn -0.0511 -0.9981 0.0337
vn -0.0421 -0.9982 -0.0436
vn -0.0511 -0.9981 -0.0344
vn -0.0495 0.0031 -0.9988
vn -0.0504 -0.0040 -0.9987
vn -0.1945 -0.0143 -0.9808
vn -0.1932 0.0099 -0.9811
vn -0.3774 -0.0245 -0.9257
vn -0.3766 0.0167 -0.9262
vn -0.5473 -0.0310 -0.8363
vn -0.5471 0.0208 -0.8368
vn -0.6983 -0.0333 -0.7150
vn -0.6985 0.0223 -0.7153
vn -0.8241 -0.0313 -0.5656
vn -0.8246 0.0209 -0.5653
vn -0.9192 -0.0251 -0.3929
vn -0.9198 0.0167 -0.3921
vn -0.9790 -0.0149 -0.2035
vn -0.9793 0.0098 -0.2022
vn -0.9986 -0.0044 -0.0528
vn -0.9986 0.0028 -0.0519
vn -0.1792 0.4377 -0.8811
vn -0.3363 0.4665 -0.8181
vn -0.4807 0.4827 -0.7320
vn -0.6099 0.4885 -0.6240
vn -0.7211 0.4841 -0.4956
vn -0.8113 0.4691 -0.3488
vn -0.8777 0.4414 -0.1864
vn -0.0494 0.4060 -0.9125
vn -0.0686 0.9103 -0.4083
vn -0.1345 0.9269 -0.3503
vn -0.1904 0.9354 -0.2978
vn -0.2415 0.9383 -0.2474
vn -0.2915 0.9363 -0.1957
vn -0.3438 0.9287 -0.1386
vn -0.0151 0.8954 -0.4451
vn -0.0000 0.0003 -1.0000
vn -0.0000 0.3900 -0.9208
vn -0.0330 0.9981 -0.0519
vn -0.0232 0.9978 -0.0621
vn -0.0113 0.9971 -0.0748
vn -0.0610 0.9979 -0.0236
vn -0.0019 0.9966 -0.0824
vn -0.0734 0.9972 -0.0114
vn -0.4018 0.9130 -0.0708
vn -0.9103 0.4107 -0.0513
vn -0.4385 0.8986 -0.0154
vn -0.0809 0.9967 -0.0017
vn -0.4435 0.8963 0.0003
vn -0.9186 0.3953 0.0001
vn -0.0000 0.8928 -0.4504
vn -1.0000 -0.0000 -0.0000
vn -0.0000 1.0000 0.0003
vn -0.0809 0.9967 0.0024
vn -0.0000 0.9966 0.0827
vn -0.0734 0.9972 0.0121
vn -0.4385 0.8986 0.0160
vn -0.0000 0.9966 -0.0820
vn -0.4018 0.9129 0.0715
vn -0.9103 0.4107 0.0516
vn -0.8777 0.4413 0.1867
vn -0.9102 -0.4110 -0.0504
vn -0.8768 -0.4440 -0.1847
vn -0.8091 -0.4745 -0.3469
vn -0.7181 -0.4911 -0.4931
vn -0.6068 -0.4959 -0.6212
vn -0.4780 -0.4894 -0.7294
vn -0.3341 -0.4713 -0.8163
vn -0.1772 -0.4397 -0.8805
vn -0.4387 -0.8985 -0.0162
vn -0.4029 -0.9124 -0.0720
vn -0.3457 -0.9278 -0.1402
vn -0.2936 -0.9352 -0.1979
vn -0.2434 -0.9372 -0.2500
vn -0.1919 -0.9342 -0.3006
vn -0.1355 -0.9258 -0.3529
vn -0.9186 -0.3953 -0.0001
vn -0.9986 0.0028 0.0519
vn -0.9793 0.0096 0.2022
vn -0.0331 -0.9981 -0.0528
vn -0.0612 -0.9978 -0.0244
vn -0.0735 -0.9972 -0.0122
vn -0.0233 -0.9977 -0.0630
vn -0.0809 -0.9967 -0.0024
vn -0.0114 -0.9971 -0.0756
vn -0.0691 -0.9095 -0.4100
vn -0.4435 -0.8963 -0.0003
vn -0.0483 -0.4057 -0.9127
vn -0.0153 -0.8949 -0.4459
vn -0.0000 -0.3894 -0.9211
vn -0.9986 -0.0045 0.0528
vn -0.9102 -0.4110 0.0501
vn -0.4387 -0.8985 0.0156
vn -0.8768 -0.4441 0.1844
vn -0.9790 -0.0150 0.2035
vn -0.0000 -0.8925 -0.4510
vn -0.4029 -0.9124 0.0713
vn -0.8091 -0.4747 0.3465
vn -0.9192 -0.0254 0.3929
vn -0.3457 -0.9279 0.1396
vn -0.7181 -0.4915 0.4928
vn -0.8241 -0.0317 0.5655
vn -0.2936 -0.9354 0.1972
vn -0.6068 -0.4964 0.6208
vn -0.6983 -0.0338 0.7150
vn -0.2434 -0.9373 0.2494
vn -0.4780 -0.4900 0.7290
vn -0.5474 -0.0315 0.8363
vn -0.1919 -0.9344 0.3000
vn -0.3341 -0.4718 0.8159
vn -0.3774 -0.0252 0.9257
vn -0.1355 -0.9261 0.3522
vn -0.1772 -0.4403 0.8802
vn -0.1945 -0.0150 0.9808
vn -0.0691 -0.9097 0.4094
vn -0.0483 -0.4063 0.9125
vn -0.0504 -0.0047 0.9987
vn -0.0153 -0.8953 0.4453
vn -0.0331 -0.9981 0.0521
vn -0.0233 -0.9978 0.0623
vn -0.0114 -0.9971 0.0749
vn -0.0019 -0.9966 0.0824
vn -0.0612 -0.9978 0.0237
vn -0.0735 -0.9972 0.0115
vn -0.0809 -0.9967 0.0017
vn -0.0000 -1.0000 -0.0003
vn -0.0000 -0.8928 0.4504
vn -0.0000 -0.9966 0.0820
vn -0.0000 -0.3900 0.9208
vn -0.0000 -0.0004 1.0000
vn -0.0000 -0.0003 1.0000
vn -0.0495 0.0024 0.9988
vn -0.0000 0.3894 0.9211
vn 0.0495 0.0024 0.9988
vn 0.0504 -0.0047 0.9987
vn 0.0494 0.4054 0.9128
vn 0.1932 0.0092 0.9811
vn 0.1791 0.4371 0.8814
vn 0.3766 0.0160 0.9262
vn 0.0151 0.8950 0.4457
vn 0.3363 0.4659 0.8185
vn 0.5471 0.0203 0.8368
vn 0.0483 -0.4063 0.9125
vn -0.0000 0.8925 0.4510
vn 0.0686 0.9100 0.4089
vn 0.4807 0.4822 0.7324
vn 0.6985 0.0218 0.7153
vn 0.0019 0.9965 0.0831
vn 0.1345 0.9267 0.3509
vn 0.6099 0.4881 0.6243
vn 0.8246 0.0206 0.5653
vn 0.0113 0.9971 0.0755
vn 0.1904 0.9352 0.2985
vn 0.7211 0.4838 0.4959
vn 0.9198 0.0165 0.3921
vn 0.0232 0.9978 0.0628
vn 0.2415 0.9382 0.2481
vn 0.0330 0.9981 0.0526
vn 0.0419 0.9982 0.0434
vn 0.0509 0.9981 0.0343
vn 0.2915 0.9362 0.1963
vn 0.8113 0.4689 0.3491
vn 0.9793 0.0096 0.2022
vn 0.3438 0.9287 0.1393
vn 0.8777 0.4413 0.1867
vn 0.9986 0.0028 0.0519
vn 0.0610 0.9978 0.0243
vn 0.4018 0.9129 0.0715
vn 0.9103 0.4106 0.0516
vn 0.0734 0.9972 0.0121
vn 0.4385 0.8986 0.0160
vn 0.9186 0.3953 0.0001
vn 1.0000 -0.0000 -0.0000
vn 0.0809 0.9967 0.0024
vn 0.4435 0.8963 0.0003
vn 0.0804 0.9968 0.0003
vn 0.0734 0.9972 -0.0114
vn 0.0610 0.9979 -0.0236
vn 0.0809 0.9967 -0.0017
vn 0.4385 0.8986 -0.0154
vn 0.4018 0.9130 -0.0708
vn 0.9103 0.4107 -0.0513
vn 0.3438 0.9287 -0.1386
vn 0.8777 0.4414 -0.1864
vn 0.8113 0.4692 -0.3488
vn 0.9793 0.0098 -0.2022
vn 0.9198 0.0167 -0.3921
vn 0.9986 0.0028 -0.0519
vn 0.8246 0.0209 -0.5653
vn 0.9986 -0.0044 -0.0528
vn 0.7211 0.4841 -0.4956
vn 0.6985 0.0223 -0.7153
vn 0.2915 0.9363 -0.1957
vn 0.6099 0.4885 -0.6240
vn 0.5471 0.0209 -0.8368
vn 0.0509 0.9981 -0.0336
vn 0.4807 0.4827 -0.7320
vn 0.3766 0.0166 -0.9262
vn 0.2415 0.9383 -0.2474
vn 0.3363 0.4664 -0.8182
vn 0.1932 0.0099 -0.9811
vn 0.0419 0.9982 -0.0427
vn 0.1904 0.9354 -0.2978
vn 0.1791 0.4377 -0.8811
vn 0.0495 0.0031 -0.9988
vn 0.0330 0.9981 -0.0519
vn 0.1345 0.9269 -0.3503
vn 0.0232 0.9978 -0.0621
vn 0.0686 0.9103 -0.4083
vn 0.0494 0.4060 -0.9126
vn 0.0113 0.9971 -0.0748
vn 0.0019 0.9966 -0.0824
vn 0.0151 0.8953 -0.4451
vn -0.0000 0.3901 -0.9208
vn -0.0000 0.0004 -1.0000
vn -0.0494 0.4053 0.9128
vn -0.0151 0.8950 0.4457
vn -0.0000 -0.9966 -0.0827
vn -0.0019 -0.9965 -0.0831
vn 0.0019 -0.9965 -0.0831
vn 0.0153 -0.8949 -0.4459
vn 0.0504 -0.0040 -0.9987
vn 0.0483 -0.4057 -0.9127
vn 0.1945 -0.0143 -0.9808
vn 0.0114 -0.9971 -0.0756
vn 0.0804 -0.9968 -0.0003
vn 0.0233 -0.9977 -0.0630
vn 0.0691 -0.9095 -0.4100
vn 0.1772 -0.4397 -0.8805
vn 0.3774 -0.0245 -0.9257
vn 0.1355 -0.9258 -0.3529
vn 0.3341 -0.4713 -0.8163
vn 0.5474 -0.0310 -0.8363
vn 0.4780 -0.4895 -0.7293
vn 0.6983 -0.0333 -0.7150
vn 0.1919 -0.9342 -0.3006
vn 0.6068 -0.4959 -0.6212
vn 0.8241 -0.0313 -0.5656
vn 0.0331 -0.9981 -0.0528
vn 0.2434 -0.9372 -0.2500
vn 0.7181 -0.4911 -0.4931
vn 0.9192 -0.0252 -0.3929
vn 0.0421 -0.9982 -0.0436
vn 0.2936 -0.9352 -0.1979
vn 0.8091 -0.4745 -0.3469
vn 0.9790 -0.0149 -0.2035
vn 0.0511 -0.9981 -0.0344
vn 0.8768 -0.4440 -0.1847
vn 0.3457 -0.9278 -0.1402
vn 0.0612 -0.9978 -0.0244
vn 0.4029 -0.9124 -0.0720
vn 0.9102 -0.4110 -0.0504
vn 0.0735 -0.9972 -0.0122
vn 0.0809 -0.9967 -0.0024
vn 0.4387 -0.8985 -0.0162
vn 0.9186 -0.3953 -0.0001
vn 0.4435 -0.8963 -0.0003
vn 0.0735 -0.9972 0.0115
vn 0.0612 -0.9978 0.0237
vn 0.0511 -0.9981 0.0337
vn 0.0809 -0.9967 0.0017
vn 0.4387 -0.8985 0.0156
vn 0.4029 -0.9124 0.0713
vn 0.3457 -0.9279 0.1396
vn 0.9102 -0.4110 0.0501
vn 0.9986 -0.0045 0.0528
vn 0.9790 -0.0150 0.2035
vn 0.8768 -0.4441 0.1844
vn 0.9192 -0.0254 0.3929
vn 0.8091 -0.4747 0.3465
vn 0.8241 -0.0317 0.5655
vn 0.7181 -0.4915 0.4928
vn 0.6983 -0.0338 0.7150
vn 0.2936 -0.9354 0.1972
vn 0.6068 -0.4964 0.6208
vn 0.5474 -0.0315 0.8363
vn 0.2434 -0.9373 0.2494
vn 0.4780 -0.4900 0.7290
vn 0.3774 -0.0252 0.9257
vn 0.0421 -0.9982 0.0429
vn 0.1919 -0.9344 0.3000
vn 0.3341 -0.4718 0.8159
vn 0.1945 -0.0150 0.9808
vn 0.1772 -0.4403 0.8802
vn 0.0331 -0.9981 0.0521
vn 0.1355 -0.9261 0.3522
vn 0.0691 -0.9098 0.4094
vn 0.0233 -0.9978 0.0623
vn 0.0153 -0.8953 0.4453
vn 0.0114 -0.9971 0.0749
vn 0.0019 -0.9966 0.0824
vn -0.9198 0.0165 0.3921
vn -0.8246 0.0206 0.5653
vn -0.8113 0.4689 0.3491
vn -0.6985 0.0218 0.7153
vn -0.3438 0.9287 0.1393
vn -0.7211 0.4838 0.4959
vn -0.5471 0.0203 0.8368
vn -0.0610 0.9978 0.0243
vn -0.2915 0.9362 0.1963
vn -0.6099 0.4881 0.6243
vn -0.3766 0.0160 0.9263
vn -0.2415 0.9382 0.2481
vn -0.4807 0.4822 0.7324
vn -0.1932 0.0092 0.9811
vn -0.1904 0.9352 0.2985
vn -0.3363 0.4659 0.8185
vn -0.1791 0.4371 0.8814
vn -0.0330 0.9981 0.0526
vn -0.1345 0.9267 0.3509
vn -0.0686 0.9100 0.4089
vn -0.0232 0.9978 0.0628
vn -0.0113 0.9971 0.0755
vn -0.0019 0.9965 0.0831
vt 0.018407 0.018250
vt 0.011849 0.049155
vt 0.015622 0.021562
vt 0.011849 0.668472
vt 0.018407 0.699378
vt 0.015622 0.696066
vt 0.447424 0.667648
vt 0.453983 0.697729
vt 0.451198 0.694417
vt 0.453983 0.018250
vt 0.447424 0.048331
vt 0.451198 0.021562
vt 0.980574 0.460222
vt 0.976044 0.460076
vt 0.976267 0.456254
vt 0.980596 0.456430
vt 0.976480 0.452511
vt 0.980811 0.452766
vt 0.976666 0.448678
vt 0.981230 0.449063
vt 0.976775 0.444502
vt 0.981947 0.445120
vt 0.893523 0.702215
vt 0.888342 0.701481
vt 0.889157 0.697572
vt 0.893718 0.698045
vt 0.889645 0.693942
vt 0.893961 0.694257
vt 0.889894 0.690383
vt 0.894199 0.690586
vt 0.889914 0.686710
vt 0.894418 0.686858
vt 0.981618 0.456537
vt 0.981825 0.452908
vt 0.982286 0.449257
vt 0.894740 0.702258
vt 0.983101 0.445365
vt 0.894825 0.698059
vt 0.895023 0.694256
vt 0.895260 0.690564
vt 0.981670 0.460331
vt 0.983049 0.457483
vt 0.983301 0.453684
vt 0.983862 0.449899
vt 0.896786 0.702139
vt 0.984863 0.446004
vt 0.896635 0.697760
vt 0.896703 0.693698
vt 0.983135 0.461475
vt 0.980877 0.479865
vt 0.982066 0.479855
vt 0.975804 0.479879
vt 0.900847 0.701573
vt 0.986943 0.451429
vt 0.988151 0.447461
vt 0.900426 0.696887
vt 0.021800 0.702096
vt 0.986200 0.455514
vt 0.025672 0.704115
vt 0.985823 0.459674
vt 0.029872 0.705359
vt 0.013553 0.692287
vt 0.900222 0.692199
vt 0.034241 0.705779
vt 0.985875 0.463962
vt 0.012279 0.688187
vt 0.896833 0.689725
vt 0.899963 0.687552
vt 0.895537 0.686795
vt 0.897032 0.685684
vt 0.011849 0.683924
vt 0.899764 0.683072
vt 0.900019 0.667664
vt 0.897349 0.667645
vt 0.895847 0.667635
vt 0.983546 0.479840
vt 0.894666 0.667629
vt 0.896383 0.046272
vt 0.899038 0.046245
vt 0.894890 0.046287
vt 0.050072 0.668472
vt 0.050072 0.049155
vt 0.898767 0.030819
vt 0.050072 0.011848
vt 0.012279 0.029440
vt 0.011849 0.033704
vt 0.895968 0.028427
vt 0.050072 0.705779
vt 0.986148 0.479815
vt 0.092001 0.049155
vt 0.895875 0.024549
vt 0.898706 0.026636
vt 0.894491 0.027327
vt 0.894433 0.023654
vt 0.893706 0.046297
vt 0.889605 0.667644
vt 0.889196 0.686601
vt 0.889224 0.690280
vt 0.888980 0.693819
vt 0.888463 0.697420
vt 0.887587 0.701310
vt 0.975985 0.444491
vt 0.975935 0.448691
vt 0.975779 0.452539
vt 0.975566 0.456302
vt 0.887390 0.685299
vt 0.887467 0.689199
vt 0.887167 0.692928
vt 0.886520 0.696674
vt 0.973496 0.444766
vt 0.885393 0.700554
vt 0.973757 0.449167
vt 0.973766 0.453294
vt 0.888828 0.667651
vt 0.888644 0.046308
vt 0.893403 0.027223
vt 0.893420 0.023552
vt 0.968578 0.445875
vt 0.969192 0.450595
vt 0.881311 0.698775
vt 0.882694 0.694830
vt 0.457376 0.015532
vt 0.883555 0.690758
vt 0.449129 0.025340
vt 0.883992 0.686627
vt 0.447854 0.029440
vt 0.461247 0.013512
vt 0.969556 0.455392
vt 0.447424 0.033704
vt 0.883938 0.682403
vt 0.465448 0.012268
vt 0.973675 0.457363
vt 0.969934 0.460186
vt 0.886990 0.667669
vt 0.883719 0.667697
vt 0.975302 0.460164
vt 0.973492 0.461526
vt 0.887868 0.046303
vt 0.975025 0.479875
vt 0.886020 0.046291
vt 0.888913 0.027080
vt 0.888177 0.027163
vt 0.886354 0.028467
vt 0.888437 0.023431
vt 0.889130 0.023385
vt 0.973194 0.479867
vt 0.882732 0.046268
vt 0.886542 0.024432
vt 0.888632 0.019783
vt 0.889326 0.019753
vt 0.886617 0.020474
vt 0.888759 0.016014
vt 0.889485 0.015998
vt 0.886578 0.016423
vt 0.888770 0.011849
vt 0.889559 0.011856
vt 0.886274 0.012049
vt 0.975612 0.415907
vt 0.975487 0.420002
vt 0.974731 0.419829
vt 0.976309 0.416061
vt 0.973689 0.415087
vt 0.972567 0.418990
vt 0.976136 0.412232
vt 0.976805 0.412358
vt 0.974338 0.411275
vt 0.976385 0.408588
vt 0.977060 0.408694
vt 0.974640 0.407449
vt 0.976358 0.404788
vt 0.977082 0.404902
vt 0.974567 0.403435
vt 0.969945 0.413085
vt 0.970800 0.408967
vt 0.971234 0.404754
vt 0.461247 0.702467
vt 0.457376 0.700447
vt 0.465448 0.703710
vt 0.968578 0.417043
vt 0.469816 0.704130
vt 0.971186 0.400424
vt 0.881311 0.012984
vt 0.881968 0.017681
vt 0.882353 0.022412
vt 0.449129 0.690639
vt 0.882730 0.027116
vt 0.447854 0.686539
vt 0.882975 0.031648
vt 0.447424 0.682275
vt 0.484803 0.667648
vt 0.484803 0.048331
vt 0.974162 0.385290
vt 0.484803 0.704130
vt 0.970957 0.385319
vt 0.975984 0.385273
vt 0.976765 0.385265
vt 0.981837 0.385245
vt 0.981624 0.405045
vt 0.975879 0.343040
vt 0.976664 0.343038
vt 0.974053 0.343045
vt 0.981705 0.343022
vt 0.526732 0.667648
vt 0.970844 0.343054
vt 0.526732 0.704130
vt 0.526732 0.048331
vt 0.976543 0.300774
vt 0.975757 0.300776
vt 0.981580 0.300759
vt 0.973931 0.300782
vt 0.982898 0.343018
vt 0.982773 0.300756
vt 0.983023 0.385249
vt 0.976420 0.258511
vt 0.981457 0.258497
vt 0.975634 0.258514
vt 0.982650 0.258493
vt 0.970722 0.300791
vt 0.973808 0.258519
vt 0.568661 0.667648
vt 0.568661 0.704130
vt 0.568661 0.048331
vt 0.976296 0.216249
vt 0.981333 0.216234
vt 0.982527 0.216231
vt 0.975511 0.216251
vt 0.970599 0.258528
vt 0.610590 0.667648
vt 0.610590 0.704130
vt 0.610590 0.048331
vt 0.973684 0.216256
vt 0.981210 0.173972
vt 0.976173 0.173986
vt 0.982404 0.173968
vt 0.975388 0.173988
vt 0.652519 0.667648
vt 0.970476 0.216266
vt 0.652519 0.704130
vt 0.652519 0.048331
vt 0.973561 0.173994
vt 0.981087 0.131709
vt 0.976050 0.131724
vt 0.982281 0.131705
vt 0.975264 0.131726
vt 0.694448 0.667648
vt 0.970353 0.174003
vt 0.694448 0.704130
vt 0.694448 0.048331
vt 0.973438 0.131731
vt 0.980966 0.089445
vt 0.975925 0.089461
vt 0.982159 0.089442
vt 0.975140 0.089463
vt 0.736377 0.667648
vt 0.970229 0.131741
vt 0.736377 0.704130
vt 0.736377 0.048331
vt 0.973313 0.089469
vt 0.980877 0.047223
vt 0.975804 0.047236
vt 0.982066 0.047212
vt 0.975025 0.047233
vt 0.778306 0.667648
vt 0.970105 0.089479
vt 0.778306 0.704130
vt 0.778306 0.048331
vt 0.973194 0.047224
vt 0.980574 0.027579
vt 0.976044 0.027434
vt 0.981670 0.027688
vt 0.980596 0.023787
vt 0.981618 0.023895
vt 0.980811 0.020123
vt 0.983135 0.028832
vt 0.981825 0.020265
vt 0.981230 0.016420
vt 0.975302 0.027522
vt 0.983546 0.047198
vt 0.983049 0.024840
vt 0.982286 0.016614
vt 0.981947 0.012478
vt 0.983646 0.089438
vt 0.985875 0.031320
vt 0.983301 0.021041
vt 0.983101 0.012722
vt 0.937385 0.697776
vt 0.938323 0.702099
vt 0.937082 0.702025
vt 0.983768 0.131701
vt 0.986148 0.047172
vt 0.985822 0.027031
vt 0.983862 0.017256
vt 0.938513 0.697817
vt 0.937722 0.693927
vt 0.986259 0.089430
vt 0.401335 0.011849
vt 0.385504 0.049155
vt 0.385504 0.011849
vt 0.405703 0.012268
vt 0.343575 0.011849
vt 0.986200 0.022871
vt 0.409904 0.013512
vt 0.984863 0.013361
vt 0.940416 0.702026
vt 0.986943 0.018787
vt 0.413775 0.015532
vt 0.417169 0.018250
vt 0.988151 0.014818
vt 0.343575 0.049156
vt 0.419953 0.021562
vt 0.940365 0.697554
vt 0.944580 0.701541
vt 0.944254 0.696740
vt 0.938801 0.693950
vt 0.938044 0.690210
vt 0.940521 0.693416
vt 0.939117 0.690208
vt 0.938337 0.686458
vt 0.944128 0.691945
vt 0.422023 0.025340
vt 0.940723 0.689383
vt 0.939458 0.686409
vt 0.943905 0.687218
vt 0.423297 0.029440
vt 0.940961 0.685311
vt 0.939853 0.667306
vt 0.938674 0.667299
vt 0.423727 0.033704
vt 0.943708 0.682705
vt 0.941354 0.667318
vt 0.944020 0.667340
vt 0.423727 0.049156
vt 0.385504 0.668472
vt 0.942231 0.046430
vt 0.423727 0.668472
vt 0.343575 0.668472
vt 0.939563 0.046475
vt 0.423297 0.688187
vt 0.385504 0.705779
vt 0.422023 0.692287
vt 0.941793 0.031366
vt 0.942084 0.027285
vt 0.938076 0.046492
vt 0.939180 0.028910
vt 0.939279 0.025009
vt 0.936897 0.046503
vt 0.937744 0.027764
vt 0.939667 0.021252
vt 0.942630 0.023105
vt 0.937849 0.024047
vt 0.938171 0.020471
vt 0.936825 0.023908
vt 0.937148 0.020300
vt 0.936663 0.027630
vt 0.937669 0.016609
vt 0.931835 0.046528
vt 0.932192 0.027359
vt 0.938738 0.016832
vt 0.938497 0.012626
vt 0.940349 0.017469
vt 0.939671 0.012905
vt 0.980894 0.849189
vt 0.981896 0.853437
vt 0.980677 0.853390
vt 0.943521 0.018991
vt 0.419953 0.696066
vt 0.982008 0.849205
vt 0.981155 0.845323
vt 0.941481 0.013538
vt 0.983937 0.853249
vt 0.982226 0.845324
vt 0.981405 0.841542
vt 0.944881 0.014977
vt 0.417169 0.699378
vt 0.983816 0.848846
vt 0.987966 0.852524
vt 0.982476 0.841518
vt 0.981624 0.837688
vt 0.987572 0.847819
vt 0.413775 0.702096
vt 0.983904 0.844710
vt 0.987375 0.843070
vt 0.409904 0.704115
vt 0.984044 0.840626
vt 0.982752 0.837618
vt 0.405703 0.705359
vt 0.987111 0.838337
vt 0.401335 0.705779
vt 0.984235 0.836460
vt 0.986905 0.833755
vt 0.987127 0.817911
vt 0.983023 0.817892
vt 0.981837 0.817887
vt 0.984512 0.817898
vt 0.986998 0.775648
vt 0.343575 0.705779
vt 0.984385 0.775656
vt 0.301646 0.668472
vt 0.982898 0.775661
vt 0.986874 0.733387
vt 0.301646 0.705779
vt 0.984261 0.733394
vt 0.301646 0.049155
vt 0.259717 0.668472
vt 0.986751 0.691124
vt 0.259717 0.705779
vt 0.301646 0.011849
vt 0.986381 0.131693
vt 0.983891 0.173964
vt 0.259717 0.011849
vt 0.986504 0.173956
vt 0.984014 0.216226
vt 0.259717 0.049155
vt 0.984138 0.258489
vt 0.986627 0.216219
vt 0.217788 0.011849
vt 0.217788 0.668472
vt 0.984261 0.300752
vt 0.986751 0.258481
vt 0.217788 0.049155
vt 0.175859 0.011849
vt 0.984385 0.343014
vt 0.986874 0.300744
vt 0.175859 0.049155
vt 0.133930 0.011849
vt 0.175859 0.668472
vt 0.217788 0.705779
vt 0.984137 0.691132
vt 0.986627 0.648861
vt 0.982773 0.733398
vt 0.981705 0.775664
vt 0.986998 0.343006
vt 0.133930 0.049155
vt 0.092001 0.011848
vt 0.133930 0.668472
vt 0.175859 0.705779
vt 0.984014 0.648869
vt 0.986504 0.606599
vt 0.982650 0.691136
vt 0.981580 0.733402
vt 0.984512 0.385256
vt 0.982752 0.404976
vt 0.133930 0.705779
vt 0.983891 0.606606
vt 0.986381 0.564336
vt 0.982527 0.648873
vt 0.981457 0.691139
vt 0.092001 0.668472
vt 0.987127 0.385269
vt 0.092001 0.705779
vt 0.983768 0.564344
vt 0.986259 0.522073
vt 0.983646 0.522080
vt 0.982404 0.606611
vt 0.984235 0.403817
vt 0.982159 0.522084
vt 0.982281 0.564348
vt 0.981333 0.648877
vt 0.980966 0.522088
vt 0.981087 0.564351
vt 0.981210 0.606614
vt 0.975925 0.522104
vt 0.976050 0.564366
vt 0.976173 0.606629
vt 0.976296 0.648892
vt 0.976420 0.691154
vt 0.975140 0.522106
vt 0.975264 0.564368
vt 0.975388 0.606631
vt 0.975511 0.648894
vt 0.973313 0.522112
vt 0.973438 0.564374
vt 0.973561 0.606636
vt 0.975634 0.691156
vt 0.973684 0.648899
vt 0.973808 0.691162
vt 0.970105 0.522121
vt 0.970229 0.564383
vt 0.970353 0.606646
vt 0.970476 0.648908
vt 0.970599 0.691171
vt 0.969973 0.479850
vt 0.970189 0.464824
vt 0.469816 0.011849
vt 0.484803 0.011849
vt 0.526732 0.011849
vt 0.568661 0.011849
vt 0.610590 0.011849
vt 0.652519 0.011849
vt 0.694448 0.011849
vt 0.736377 0.011849
vt 0.970722 0.733434
vt 0.778306 0.011849
vt 0.973931 0.733424
vt 0.970844 0.775696
vt 0.975757 0.733419
vt 0.974053 0.775687
vt 0.820235 0.011849
vt 0.970957 0.817962
vt 0.976543 0.733417
vt 0.975879 0.775682
vt 0.976664 0.775680
vt 0.974162 0.817933
vt 0.820235 0.048331
vt 0.975984 0.817915
vt 0.976765 0.817908
vt 0.971186 0.833067
vt 0.835221 0.011849
vt 0.820235 0.667648
vt 0.974567 0.836078
vt 0.977082 0.837544
vt 0.976358 0.837431
vt 0.977060 0.841337
vt 0.839590 0.012269
vt 0.857614 0.048331
vt 0.843790 0.013512
vt 0.974640 0.840092
vt 0.971234 0.837397
vt 0.976385 0.841230
vt 0.976805 0.845000
vt 0.974338 0.843918
vt 0.970800 0.841609
vt 0.976136 0.844874
vt 0.976309 0.848704
vt 0.975612 0.848549
vt 0.975487 0.852644
vt 0.933211 0.011875
vt 0.973689 0.847730
vt 0.974731 0.852471
vt 0.933029 0.016113
vt 0.932404 0.011849
vt 0.969945 0.845728
vt 0.847662 0.015532
vt 0.972567 0.851633
vt 0.932287 0.016111
vt 0.929839 0.011991
vt 0.932773 0.019944
vt 0.968578 0.849685
vt 0.851055 0.018250
vt 0.930046 0.016479
vt 0.924723 0.012838
vt 0.932065 0.019957
vt 0.932489 0.023633
vt 0.925297 0.017676
vt 0.853840 0.021562
vt 0.931785 0.023666
vt 0.929996 0.020620
vt 0.925613 0.022533
vt 0.855909 0.025340
vt 0.929847 0.024649
vt 0.931453 0.027433
vt 0.857183 0.029440
vt 0.925967 0.027328
vt 0.857614 0.033704
vt 0.929619 0.028722
vt 0.926219 0.031901
vt 0.925927 0.046482
vt 0.931060 0.046522
vt 0.929214 0.046509
vt 0.927720 0.667411
vt 0.857614 0.667648
vt 0.931012 0.667353
vt 0.932843 0.667333
vt 0.857183 0.686539
vt 0.855909 0.690639
vt 0.853840 0.694417
vt 0.928152 0.681756
vt 0.927863 0.685858
vt 0.931383 0.684722
vt 0.933617 0.667326
vt 0.931291 0.688631
vt 0.930860 0.692396
vt 0.927262 0.690065
vt 0.933141 0.686072
vt 0.933854 0.686197
vt 0.933705 0.689906
vt 0.933032 0.689780
vt 0.933345 0.693500
vt 0.932673 0.693355
vt 0.932745 0.697174
vt 0.932043 0.697000
vt 0.931805 0.701132
vt 0.976775 0.011860
vt 0.930088 0.696185
vt 0.926253 0.694188
vt 0.931041 0.700936
vt 0.976666 0.016035
vt 0.975985 0.011849
vt 0.928828 0.700101
vt 0.975935 0.016048
vt 0.973496 0.012123
vt 0.976480 0.019868
vt 0.924724 0.698165
vt 0.851055 0.697729
vt 0.973757 0.016524
vt 0.968578 0.013232
vt 0.975779 0.019897
vt 0.976267 0.023611
vt 0.975566 0.023659
vt 0.969191 0.017953
vt 0.847662 0.700447
vt 0.973766 0.020651
vt 0.973675 0.024720
vt 0.969556 0.022749
vt 0.843790 0.702467
vt 0.973492 0.028883
vt 0.969934 0.027543
vt 0.839590 0.703710
vt 0.969973 0.047207
vt 0.820235 0.704130
vt 0.970189 0.032181
vt 0.835221 0.704130
vt 0.893622 0.019991
vt 0.894025 0.016360
vt 0.894630 0.020128
vt 0.894724 0.012446
vt 0.980677 0.420747
vt 0.896120 0.020846
vt 0.895076 0.016548
vt 0.980894 0.416546
vt 0.899081 0.022556
vt 0.013553 0.025340
vt 0.896670 0.017125
vt 0.895877 0.012685
vt 0.981896 0.420794
vt 0.981155 0.412681
vt 0.899818 0.018515
vt 0.897663 0.013250
vt 0.901026 0.014554
vt 0.982008 0.416563
vt 0.983937 0.420606
vt 0.981405 0.408900
vt 0.983816 0.416203
vt 0.987966 0.419881
vt 0.982226 0.412681
vt 0.982476 0.408875
vt 0.987572 0.415177
vt 0.021800 0.015532
vt 0.983904 0.412067
vt 0.984044 0.407984
vt 0.987375 0.410428
vt 0.025672 0.013512
vt 0.987111 0.405695
vt 0.029872 0.012268
vt 0.986905 0.401112
vt 0.034241 0.011848
s 1
usemtl deskMat_Mat.001
f 1/1/1 3/2/2 2/3/3
f 4/4/2 6/5/4 5/6/5
f 7/7/6 9/8/7 8/9/8
f 10/10/9 12/11/6 11/12/10
f 13/13/11 15/14/12 14/15/13
f 13/13/11 14/15/13 16/16/14
f 16/16/14 14/15/13 17/17/15
f 16/16/14 17/17/15 18/18/16
f 18/18/16 17/17/15 19/19/17
f 18/18/16 19/19/17 20/20/18
f 20/20/18 19/19/17 21/21/19
f 20/20/18 21/21/19 22/22/20
f 22/23/20 21/24/19 23/25/21
f 22/23/20 23/25/21 24/26/22
f 24/26/22 23/25/21 25/27/23
f 24/26/22 25/27/23 26/28/24
f 26/28/24 25/27/23 27/29/25
f 26/28/24 27/29/25 28/30/26
f 28/30/26 27/29/25 29/31/27
f 28/30/26 29/31/27 30/32/28
f 31/33/29 16/16/14 18/18/16
f 32/34/30 18/18/16 20/20/18
f 31/33/29 18/18/16 32/34/30
f 33/35/31 20/20/18 22/22/20
f 32/34/30 20/20/18 33/35/31
f 34/36/32 22/23/20 24/26/22
f 33/35/31 22/22/20 34/37/32
f 35/38/33 24/26/22 26/28/24
f 34/36/32 24/26/22 35/38/33
f 36/39/34 26/28/24 28/30/26
f 35/38/33 26/28/24 36/39/34
f 37/40/35 28/30/26 30/32/28
f 36/39/34 28/30/26 37/40/35
f 38/41/36 16/16/14 31/33/29
f 38/41/36 13/13/11 16/16/14
f 39/42/37 31/33/29 32/34/30
f 40/43/38 32/34/30 33/35/31
f 39/42/37 32/34/30 40/43/38
f 41/44/39 33/35/31 34/37/32
f 40/43/38 33/35/31 41/44/39
f 42/45/40 34/36/32 35/38/33
f 41/44/39 34/37/32 42/46/40
f 43/47/41 35/38/33 36/39/34
f 42/45/40 35/38/33 43/47/41
f 44/48/42 36/39/34 37/40/35
f 43/47/41 36/39/34 44/48/42
f 45/49/43 38/41/36 31/33/29
f 45/49/43 31/33/29 39/42/37
f 46/50/44 13/13/11 38/41/36
f 47/51/45 38/41/36 45/49/43
f 46/50/44 38/41/36 47/51/45
f 48/52/44 13/13/11 46/50/44
f 48/52/44 15/14/12 13/13/11
f 6/53/4 42/45/40 43/47/41
f 49/54/46 42/46/40 6/55/4
f 49/54/46 41/44/39 42/46/40
f 6/53/4 43/47/41 5/56/5
f 4/4/2 49/57/46 6/5/4
f 5/56/5 43/47/41 44/48/42
f 50/58/47 41/44/39 49/54/46
f 4/4/2 50/59/47 49/57/46
f 50/58/47 40/43/38 41/44/39
f 51/60/48 40/43/38 50/58/47
f 4/4/2 51/61/48 50/59/47
f 51/60/48 39/42/37 40/43/38
f 4/4/2 5/6/5 52/62/49
f 5/56/5 44/48/42 52/63/49
f 4/4/2 53/64/50 51/61/48
f 53/65/50 39/42/37 51/60/48
f 4/4/2 52/62/49 54/66/51
f 53/65/50 45/49/43 39/42/37
f 52/63/49 44/48/42 55/67/52
f 52/63/49 55/67/52 54/68/51
f 44/48/42 37/40/35 55/67/52
f 55/67/52 37/40/35 56/69/53
f 37/40/35 30/32/28 56/69/53
f 54/68/51 55/67/52 57/70/54
f 55/67/52 56/69/53 57/70/54
f 4/4/2 54/66/51 58/71/55
f 54/68/51 57/70/54 58/72/55
f 57/70/54 4/73/2 58/72/55
f 56/69/53 59/74/56 57/70/54
f 57/70/54 59/74/56 4/73/2
f 30/32/28 60/75/57 56/69/53
f 56/69/53 60/75/57 59/74/56
f 61/76/58 45/49/43 53/65/50
f 47/51/45 45/49/43 61/76/58
f 30/32/28 62/77/59 60/75/57
f 29/31/27 62/77/59 30/32/28
f 60/75/57 63/78/56 59/74/56
f 59/74/56 3/79/2 4/73/2
f 59/74/56 63/78/56 3/79/2
f 62/77/59 64/80/57 60/75/57
f 60/75/57 64/80/57 63/78/56
f 65/81/60 53/64/50 4/4/2
f 66/82/60 4/4/2 3/2/2
f 66/82/60 65/81/60 4/4/2
f 63/78/56 67/83/61 3/79/2
f 3/2/2 68/84/62 66/82/60
f 69/85/63 3/2/2 67/86/61
f 63/78/56 70/87/64 67/83/61
f 64/80/57 70/87/64 63/78/56
f 53/64/50 65/81/60 71/88/65
f 61/76/58 53/65/50 71/89/65
f 72/90/60 65/81/60 66/82/60
f 68/84/62 72/90/60 66/82/60
f 73/91/66 69/92/63 67/83/61
f 73/91/66 67/83/61 70/87/64
f 64/80/57 74/93/67 70/87/64
f 75/94/68 73/91/66 70/87/64
f 75/94/68 70/87/64 74/93/67
f 76/95/59 74/93/67 64/80/57
f 62/77/59 76/95/59 64/80/57
f 77/96/59 76/95/59 62/77/59
f 29/31/27 77/96/59 62/77/59
f 78/97/69 77/96/59 29/31/27
f 27/29/25 78/97/69 29/31/27
f 27/29/25 79/98/70 78/97/69
f 25/27/23 79/98/70 27/29/25
f 25/27/23 80/99/71 79/98/70
f 23/25/21 80/99/71 25/27/23
f 23/25/21 81/100/72 80/99/71
f 21/24/19 81/100/72 23/25/21
f 21/24/19 82/101/73 81/100/72
f 19/19/17 82/102/73 21/21/19
f 19/19/17 83/103/74 82/102/73
f 17/17/15 83/103/74 19/19/17
f 17/17/15 84/104/75 83/103/74
f 14/15/13 84/104/75 17/17/15
f 14/15/13 85/105/76 84/104/75
f 15/14/12 85/105/76 14/15/13
f 79/98/70 86/106/77 78/97/69
f 80/99/71 87/107/78 79/98/70
f 79/98/70 87/107/78 86/106/77
f 81/100/72 88/108/79 80/99/71
f 80/99/71 88/108/79 87/107/78
f 82/101/73 89/109/80 81/100/72
f 81/100/72 89/109/80 88/108/79
f 83/103/74 90/110/81 82/102/73
f 82/101/73 90/111/81 89/109/80
f 84/104/75 91/112/82 83/103/74
f 83/103/74 91/112/82 90/110/81
f 85/105/76 92/113/83 84/104/75
f 84/104/75 92/113/83 91/112/82
f 86/106/77 93/114/84 78/97/69
f 78/97/69 93/114/84 77/96/59
f 93/114/84 94/115/59 77/96/59
f 77/96/59 94/115/59 76/95/59
f 94/115/59 95/116/85 76/95/59
f 76/95/59 95/116/85 74/93/67
f 96/117/86 74/93/67 95/116/85
f 96/117/86 75/94/68 74/93/67
f 91/112/82 10/118/9 90/110/81
f 91/112/82 97/119/87 10/118/9
f 92/113/83 97/119/87 91/112/82
f 90/111/81 10/120/9 11/121/10
f 90/111/81 11/121/10 89/109/80
f 97/122/87 12/11/6 10/10/9
f 89/109/80 11/121/10 98/123/88
f 11/12/10 12/11/6 98/124/88
f 89/109/80 98/123/88 88/108/79
f 88/108/79 98/123/88 99/125/89
f 98/124/88 12/11/6 99/126/89
f 88/108/79 99/125/89 87/107/78
f 100/127/90 12/11/6 97/122/87
f 92/113/83 100/128/90 97/119/87
f 99/126/89 12/11/6 101/129/91
f 87/107/78 99/125/89 101/130/91
f 102/131/92 12/11/6 100/127/90
f 87/107/78 101/130/91 86/106/77
f 103/132/93 100/128/90 92/113/83
f 103/132/93 102/133/92 100/128/90
f 85/105/76 103/132/93 92/113/83
f 101/130/91 104/134/94 86/106/77
f 101/130/91 12/135/6 104/134/94
f 86/106/77 104/134/94 93/114/84
f 105/136/95 103/132/93 85/105/76
f 15/14/12 105/136/95 85/105/76
f 106/137/96 102/133/92 103/132/93
f 105/136/95 106/137/96 103/132/93
f 104/134/94 107/138/84 93/114/84
f 93/114/84 107/138/84 94/115/59
f 108/139/97 105/136/95 15/14/12
f 108/139/97 15/14/12 48/52/44
f 12/135/6 109/140/94 104/134/94
f 104/134/94 109/140/94 107/138/84
f 107/138/84 110/141/98 94/115/59
f 94/115/59 110/141/98 95/116/85
f 107/138/84 111/142/99 110/141/98
f 109/140/94 111/142/99 107/138/84
f 109/140/94 112/143/100 111/142/99
f 113/144/101 110/141/98 111/142/99
f 113/144/101 114/145/102 110/141/98
f 115/146/103 105/136/95 108/139/97
f 115/146/103 106/137/96 105/136/95
f 12/135/6 7/147/6 109/140/94
f 7/147/6 112/143/100 109/140/94
f 116/148/104 111/142/99 112/143/100
f 116/148/104 113/144/101 111/142/99
f 117/149/105 114/145/102 113/144/101
f 117/149/105 118/150/106 114/145/102
f 119/151/107 113/144/101 116/148/104
f 119/151/107 117/149/105 113/144/101
f 120/152/108 118/150/106 117/149/105
f 120/152/108 121/153/109 118/150/106
f 122/154/110 117/149/105 119/151/107
f 122/154/110 120/152/108 117/149/105
f 123/155/111 121/153/109 120/152/108
f 123/155/111 124/156/112 121/153/109
f 125/157/113 120/152/108 122/154/110
f 125/157/113 123/155/111 120/152/108
f 126/158/114 124/159/112 123/160/111
f 126/158/114 127/161/115 124/159/112
f 128/162/116 123/160/111 125/163/113
f 128/162/116 126/158/114 123/160/111
f 129/164/117 127/161/115 126/158/114
f 129/164/117 130/165/118 127/161/115
f 131/166/119 126/158/114 128/162/116
f 131/166/119 129/164/117 126/158/114
f 132/167/120 130/165/118 129/164/117
f 132/167/120 133/168/121 130/165/118
f 134/169/122 129/164/117 131/166/119
f 134/169/122 132/167/120 129/164/117
f 135/170/123 133/168/121 132/167/120
f 135/170/123 136/171/124 133/168/121
f 137/172/125 132/167/120 134/169/122
f 137/172/125 135/170/123 132/167/120
f 138/173/126 128/162/116 125/163/113
f 139/174/127 131/166/119 128/162/116
f 139/174/127 128/162/116 138/173/126
f 140/175/128 134/169/122 131/166/119
f 140/175/128 131/166/119 139/174/127
f 7/7/6 139/176/127 138/177/126
f 7/7/6 140/178/128 139/176/127
f 7/7/6 138/177/126 9/8/7
f 138/173/126 125/163/113 9/179/7
f 7/7/6 141/180/129 140/178/128
f 141/181/129 134/169/122 140/175/128
f 141/181/129 137/172/125 134/169/122
f 9/182/7 125/157/113 122/154/110
f 9/182/7 122/154/110 8/183/8
f 8/183/8 122/154/110 119/151/107
f 8/183/8 119/151/107 142/184/130
f 7/7/6 8/9/8 142/185/130
f 142/184/130 119/151/107 116/148/104
f 142/184/130 116/148/104 143/186/131
f 7/7/6 142/185/130 143/187/131
f 143/186/131 116/148/104 112/143/100
f 143/186/131 112/143/100 144/188/132
f 7/7/6 143/187/131 144/189/132
f 7/147/6 144/188/132 112/143/100
f 145/190/133 141/180/129 7/7/6
f 7/7/6 146/191/133 145/190/133
f 7/7/6 12/11/6 146/191/133
f 141/181/129 147/192/134 137/172/125
f 141/180/129 145/190/133 148/193/135
f 141/181/129 148/194/135 147/192/134
f 137/172/125 147/192/134 149/195/136
f 137/172/125 149/195/136 135/170/123
f 135/170/123 149/195/136 150/196/137
f 135/170/123 150/196/137 136/171/124
f 136/171/124 150/196/137 151/197/138
f 136/171/124 151/197/138 152/198/139
f 147/192/134 153/199/136 149/195/136
f 149/195/136 154/200/138 150/196/137
f 149/195/136 153/199/136 154/200/138
f 148/194/135 155/201/134 147/192/134
f 147/192/134 155/201/134 153/199/136
f 150/196/137 156/202/137 151/197/138
f 150/196/137 154/200/138 156/202/137
f 148/193/135 145/190/133 157/203/133
f 148/194/135 158/204/135 155/201/134
f 148/193/135 157/203/133 158/205/135
f 145/190/133 159/206/133 157/203/133
f 145/190/133 146/191/133 159/206/133
f 153/199/136 160/207/138 154/200/138
f 155/201/134 161/208/136 153/199/136
f 153/199/136 161/208/136 160/207/138
f 154/200/138 162/209/137 156/202/137
f 154/200/138 160/207/138 162/209/137
f 158/204/135 163/210/134 155/201/134
f 155/201/134 163/210/134 161/208/136
f 151/197/138 156/202/137 164/211/140
f 156/202/137 162/209/137 165/212/140
f 156/202/137 165/212/140 164/211/140
f 151/197/138 164/211/140 166/213/140
f 152/198/139 151/197/138 166/213/140
f 161/208/136 167/214/138 160/207/138
f 160/207/138 168/215/138 162/209/137
f 160/207/138 167/214/138 168/215/138
f 163/210/134 169/216/136 161/208/136
f 161/208/136 169/216/136 167/214/138
f 162/209/137 170/217/140 165/212/140
f 162/209/137 168/215/138 170/217/140
f 158/204/135 171/218/135 163/210/134
f 163/210/134 172/219/134 169/216/136
f 171/218/135 172/219/134 163/210/134
f 158/205/135 173/220/133 171/221/135
f 158/205/135 157/203/133 173/220/133
f 157/203/133 174/222/133 173/220/133
f 157/203/133 159/206/133 174/222/133
f 169/216/136 175/223/138 167/214/138
f 167/214/138 176/224/138 168/215/138
f 167/214/138 175/223/138 176/224/138
f 168/215/138 177/225/140 170/217/140
f 168/215/138 176/224/138 177/225/140
f 172/219/134 178/226/136 169/216/136
f 169/216/136 178/226/136 175/223/138
f 171/218/135 179/227/135 172/219/134
f 171/221/135 173/220/133 180/228/133
f 171/221/135 180/228/133 179/229/135
f 173/220/133 174/222/133 181/230/133
f 173/220/133 181/230/133 180/228/133
f 172/219/134 182/231/134 178/226/136
f 179/227/135 182/231/134 172/219/134
f 175/223/138 183/232/138 176/224/138
f 178/226/136 184/233/138 175/223/138
f 175/223/138 184/233/138 183/232/138
f 176/224/138 185/234/140 177/225/140
f 176/224/138 183/232/138 185/234/140
f 182/231/134 186/235/136 178/226/136
f 178/226/136 186/235/136 184/233/138
f 179/229/135 180/228/133 187/236/133
f 179/227/135 188/237/135 182/231/134
f 179/229/135 187/236/133 188/238/135
f 180/228/133 181/230/133 189/239/133
f 180/228/133 189/239/133 187/236/133
f 182/231/134 190/240/134 186/235/136
f 188/237/135 190/240/134 182/231/134
f 184/233/138 191/241/137 183/232/138
f 186/235/136 192/242/138 184/233/138
f 184/233/138 192/242/138 191/241/137
f 183/232/138 193/243/140 185/234/140
f 183/232/138 191/241/137 193/243/140
f 190/240/134 194/244/136 186/235/136
f 186/235/136 194/244/136 192/242/138
f 188/238/135 187/236/133 195/245/133
f 188/237/135 196/246/135 190/240/134
f 188/238/135 195/245/133 196/247/135
f 187/236/133 189/239/133 197/248/133
f 187/236/133 197/248/133 195/245/133
f 190/240/134 198/249/134 194/244/136
f 196/246/135 198/249/134 190/240/134
f 192/242/138 199/250/138 191/241/137
f 194/244/136 200/251/138 192/242/138
f 192/242/138 200/251/138 199/250/138
f 191/241/137 201/252/140 193/243/140
f 191/241/137 199/250/138 201/252/140
f 198/249/134 202/253/136 194/244/136
f 194/244/136 202/253/136 200/251/138
f 196/247/135 195/245/133 203/254/133
f 196/246/135 204/255/135 198/249/134
f 196/247/135 203/254/133 204/256/135
f 195/245/133 197/248/133 205/257/133
f 195/245/133 205/257/133 203/254/133
f 198/249/134 206/258/134 202/253/136
f 204/255/135 206/258/134 198/249/134
f 200/251/138 207/259/137 199/250/138
f 202/253/136 208/260/137 200/251/138
f 200/251/138 208/260/137 207/259/137
f 199/250/138 209/261/140 201/252/140
f 199/250/138 207/259/137 209/261/140
f 206/258/134 210/262/136 202/253/136
f 202/253/136 210/262/136 208/260/137
f 204/256/135 203/254/133 211/263/133
f 204/255/135 212/264/135 206/258/134
f 204/256/135 211/263/133 212/265/135
f 203/254/133 205/257/133 213/266/133
f 203/254/133 213/266/133 211/263/133
f 206/258/134 214/267/134 210/262/136
f 212/264/135 214/267/134 206/258/134
f 208/260/137 215/268/141 207/259/137
f 210/262/136 216/269/142 208/260/137
f 208/260/137 216/269/142 215/268/141
f 207/259/137 215/268/141 217/270/143
f 207/259/137 217/270/143 209/261/140
f 218/271/144 217/270/143 215/268/141
f 218/271/144 219/272/145 217/270/143
f 220/273/146 219/272/145 218/271/144
f 209/261/140 217/270/143 221/274/147
f 219/272/145 221/274/147 217/270/143
f 220/273/146 222/275/148 219/272/145
f 223/276/149 222/275/148 220/273/146
f 214/267/134 224/277/150 210/262/136
f 210/262/136 224/277/150 216/269/142
f 209/261/140 221/274/147 225/278/151
f 201/252/140 209/261/140 225/278/151
f 219/272/145 226/279/152 221/274/147
f 222/275/148 226/279/152 219/272/145
f 223/276/149 227/280/153 222/275/148
f 228/281/154 227/280/153 223/276/149
f 201/252/140 225/278/151 229/282/151
f 193/243/140 201/252/140 229/282/151
f 225/278/151 221/274/147 230/283/155
f 226/279/152 230/283/155 221/274/147
f 222/275/148 231/284/156 226/279/152
f 227/280/153 231/284/156 222/275/148
f 228/281/154 232/285/157 227/280/153
f 233/286/158 232/287/157 228/288/154
f 193/243/140 229/282/151 234/289/151
f 185/234/140 193/243/140 234/289/151
f 229/282/151 225/278/151 235/290/62
f 225/278/151 230/283/155 235/290/62
f 226/279/152 236/291/159 230/283/155
f 231/284/156 236/291/159 226/279/152
f 227/280/153 237/292/160 231/284/156
f 232/285/157 237/292/160 227/280/153
f 233/286/158 238/293/161 232/287/157
f 239/294/162 238/293/161 233/286/158
f 229/282/151 235/290/62 240/295/62
f 234/289/151 229/282/151 240/295/62
f 230/296/155 241/297/60 235/298/62
f 236/299/159 241/297/60 230/296/155
f 240/300/62 235/298/62 241/297/60
f 231/284/156 242/301/163 236/291/159
f 237/292/160 242/301/163 231/284/156
f 242/302/163 241/297/60 236/299/159
f 232/285/157 243/303/164 237/292/160
f 238/293/161 243/304/164 232/287/157
f 237/292/160 244/305/165 242/301/163
f 244/306/165 241/297/60 242/302/163
f 243/303/164 244/305/165 237/292/160
f 245/307/166 241/297/60 244/306/165
f 243/303/164 245/308/166 244/305/165
f 240/300/62 241/297/60 246/309/60
f 247/310/167 241/297/60 245/307/166
f 248/311/168 245/312/166 243/304/164
f 238/293/161 248/311/168 243/304/164
f 248/311/168 247/313/167 245/312/166
f 249/314/169 248/311/168 238/293/161
f 239/294/162 249/314/169 238/293/161
f 250/315/170 249/314/169 239/294/162
f 251/316/171 247/313/167 248/311/168
f 249/314/169 251/316/171 248/311/168
f 250/315/170 252/317/172 249/314/169
f 252/317/172 251/316/171 249/314/169
f 253/318/173 252/317/172 250/315/170
f 251/316/171 254/319/174 247/313/167
f 254/320/174 241/297/60 247/310/167
f 252/317/172 255/321/175 251/316/171
f 255/321/175 254/319/174 251/316/171
f 253/318/173 256/322/176 252/317/172
f 256/322/176 255/321/175 252/317/172
f 255/321/175 257/323/177 254/319/174
f 257/324/177 241/297/60 254/320/174
f 258/325/178 257/323/177 255/321/175
f 256/322/176 258/325/178 255/321/175
f 253/318/173 259/326/179 256/322/176
f 253/318/173 260/327/180 259/326/179
f 261/328/181 241/297/60 257/324/177
f 258/325/178 261/329/181 257/323/177
f 256/322/176 262/330/182 258/325/178
f 256/322/176 259/326/179 262/330/182
f 258/325/178 263/331/183 261/329/181
f 241/297/60 261/328/181 263/332/183
f 258/325/178 262/330/182 263/331/183
f 263/332/183 264/333/60 241/297/60
f 262/330/182 265/334/183 263/331/183
f 263/332/183 265/335/183 264/333/60
f 241/297/60 264/333/60 266/336/60
f 241/297/60 266/336/60 246/309/60
f 259/326/179 267/337/182 262/330/182
f 262/330/182 267/337/182 265/334/183
f 265/335/183 268/338/184 264/333/60
f 266/336/60 264/333/60 269/339/65
f 264/333/60 268/338/184 270/340/185
f 267/337/182 271/341/186 265/334/183
f 268/342/184 265/334/183 271/341/186
f 259/326/179 272/343/179 267/337/182
f 267/337/182 273/344/187 271/341/186
f 272/343/179 273/344/187 267/337/182
f 274/345/188 268/342/184 271/341/186
f 274/345/188 271/341/186 273/344/187
f 275/346/180 272/343/179 259/326/179
f 275/346/180 259/326/179 260/327/180
f 272/343/179 276/347/189 273/344/187
f 275/346/180 276/347/189 272/343/179
f 277/348/190 270/349/185 268/342/184
f 277/348/190 268/342/184 274/345/188
f 278/350/191 274/345/188 273/344/187
f 278/350/191 273/344/187 276/347/189
f 279/351/192 277/348/190 274/345/188
f 279/351/192 274/345/188 278/350/191
f 280/352/193 278/350/191 276/347/189
f 281/353/194 278/350/191 280/352/193
f 281/353/194 279/351/192 278/350/191
f 280/352/193 276/347/189 282/354/195
f 275/346/180 282/354/195 276/347/189
f 283/355/196 279/351/192 281/353/194
f 284/356/180 282/354/195 275/346/180
f 284/356/180 275/346/180 260/327/180
f 284/356/180 285/357/197 282/354/195
f 283/355/196 286/358/198 279/351/192
f 286/358/198 277/348/190 279/351/192
f 287/359/199 286/358/198 283/355/196
f 286/358/198 288/360/200 277/348/190
f 288/360/200 270/349/185 277/348/190
f 287/359/199 289/361/201 286/358/198
f 289/361/201 288/360/200 286/358/198
f 290/362/202 289/363/201 287/364/199
f 288/360/200 291/365/203 270/349/185
f 264/333/60 270/340/185 291/366/203
f 290/362/202 292/367/204 289/363/201
f 293/368/205 292/367/204 290/362/202
f 289/361/201 294/369/206 288/360/200
f 294/369/206 291/365/203 288/360/200
f 292/367/204 294/370/206 289/363/201
f 293/368/205 295/371/207 292/367/204
f 296/372/208 295/371/207 293/368/205
f 294/369/206 297/373/209 291/365/203
f 264/333/60 291/366/203 297/374/209
f 292/367/204 298/375/210 294/370/206
f 298/375/210 297/376/209 294/370/206
f 295/371/207 298/375/210 292/367/204
f 296/372/208 299/377/211 295/371/207
f 300/378/212 299/377/211 296/372/208
f 298/375/210 301/379/213 297/376/209
f 264/333/60 297/374/209 301/380/213
f 295/371/207 302/381/214 298/375/210
f 302/381/214 301/379/213 298/375/210
f 299/377/211 302/381/214 295/371/207
f 302/381/214 303/382/215 301/379/213
f 264/333/60 301/380/213 303/383/215
f 299/377/211 304/384/216 302/381/214
f 304/384/216 303/382/215 302/381/214
f 300/378/212 305/385/217 299/377/211
f 305/385/217 304/384/216 299/377/211
f 264/333/60 303/383/215 306/386/218
f 304/384/216 306/387/218 303/382/215
f 264/333/60 306/386/218 307/388/219
f 264/333/60 307/388/219 269/339/65
f 308/389/220 306/387/218 304/384/216
f 308/389/220 307/390/219 306/387/218
f 305/385/217 308/389/220 304/384/216
f 308/389/220 269/391/65 307/390/219
f 300/378/212 309/392/221 305/385/217
f 300/378/212 310/393/222 309/392/221
f 305/385/217 311/394/58 308/389/220
f 308/389/220 311/394/58 269/391/65
f 305/385/217 309/392/221 311/394/58
f 311/394/58 312/395/65 269/391/65
f 266/336/60 269/339/65 312/396/65
f 309/392/221 313/397/58 311/394/58
f 311/394/58 313/397/58 312/395/65
f 314/398/60 266/336/60 312/396/65
f 246/309/60 266/336/60 314/398/60
f 310/393/222 315/399/45 309/392/221
f 309/392/221 315/399/45 313/397/58
f 313/397/58 316/400/65 312/395/65
f 314/398/60 312/396/65 316/401/65
f 315/399/45 317/402/58 313/397/58
f 313/397/58 317/402/58 316/400/65
f 246/309/60 314/398/60 318/403/60
f 319/404/60 314/398/60 316/401/65
f 318/403/60 314/398/60 319/404/60
f 317/402/58 320/405/65 316/400/65
f 319/404/60 316/401/65 320/406/65
f 321/407/62 246/309/60 318/403/60
f 321/407/62 240/300/62 246/309/60
f 234/289/151 240/295/62 321/408/62
f 322/409/151 234/289/151 321/408/62
f 185/234/140 234/289/151 322/409/151
f 177/225/140 185/234/140 322/409/151
f 323/410/62 321/407/62 318/403/60
f 322/409/151 321/408/62 323/411/62
f 177/225/140 322/409/151 324/412/151
f 324/412/151 322/409/151 323/411/62
f 170/217/140 177/225/140 324/412/151
f 318/403/60 319/404/60 325/413/60
f 323/410/62 318/403/60 325/413/60
f 170/217/140 324/412/151 326/414/151
f 165/212/140 170/217/140 326/414/151
f 324/412/151 323/411/62 327/415/62
f 327/416/62 323/410/62 325/413/60
f 326/414/151 324/412/151 327/415/62
f 325/413/60 319/404/60 328/417/60
f 328/417/60 319/404/60 320/406/65
f 165/212/140 326/414/151 329/418/151
f 164/211/140 165/212/140 329/418/151
f 326/414/151 327/415/62 330/419/62
f 329/418/151 326/414/151 330/419/62
f 327/416/62 325/413/60 331/420/60
f 325/413/60 328/417/60 331/420/60
f 330/421/62 327/416/62 331/420/60
f 164/211/140 329/418/151 332/422/151
f 166/213/140 164/211/140 332/422/151
f 329/418/151 330/419/62 333/423/62
f 332/422/151 329/418/151 333/423/62
f 330/421/62 331/420/60 334/424/60
f 333/425/62 330/421/62 334/424/60
f 331/420/60 328/417/60 335/426/60
f 331/420/60 335/426/60 334/424/60
f 328/417/60 320/406/65 336/427/65
f 335/426/60 328/417/60 336/427/65
f 337/428/58 336/429/65 320/405/65
f 317/402/58 337/428/58 320/405/65
f 338/430/45 337/428/58 317/402/58
f 315/399/45 338/430/45 317/402/58
f 339/431/44 338/430/45 315/399/45
f 310/393/222 339/431/44 315/399/45
f 332/422/151 333/423/62 340/432/62
f 333/425/62 334/424/60 341/433/60
f 340/434/62 333/425/62 341/433/60
f 334/424/60 335/426/60 342/435/60
f 334/424/60 342/435/60 341/433/60
f 335/426/60 336/427/65 343/436/65
f 342/435/60 335/426/60 343/436/65
f 337/428/58 344/437/58 336/429/65
f 344/437/58 343/438/65 336/429/65
f 338/430/45 345/439/45 337/428/58
f 345/439/45 344/437/58 337/428/58
f 339/431/44 346/440/222 338/430/45
f 346/440/222 345/439/45 338/430/45
f 347/441/151 332/422/151 340/432/62
f 166/213/140 332/422/151 347/441/151
f 348/442/223 166/213/140 347/441/151
f 152/198/139 166/213/140 348/442/223
f 342/435/60 343/436/65 349/443/65
f 344/437/58 350/444/58 343/438/65
f 350/444/58 349/445/65 343/438/65
f 345/439/45 351/446/45 344/437/58
f 351/446/45 350/444/58 344/437/58
f 346/440/222 352/447/44 345/439/45
f 352/447/44 351/446/45 345/439/45
f 353/448/60 342/435/60 349/443/65
f 341/433/60 342/435/60 353/448/60
f 341/433/60 353/448/60 72/90/60
f 340/434/62 341/433/60 72/90/60
f 68/84/62 340/434/62 72/90/60
f 72/90/60 353/448/60 65/81/60
f 347/441/151 340/432/62 68/449/62
f 65/81/60 353/448/60 354/450/65
f 353/448/60 349/443/65 354/450/65
f 65/81/60 354/450/65 71/88/65
f 350/444/58 355/451/58 349/445/65
f 355/451/58 354/452/65 349/445/65
f 356/453/58 71/89/65 354/452/65
f 355/451/58 356/453/58 354/452/65
f 356/453/58 61/76/58 71/89/65
f 351/446/45 357/454/45 350/444/58
f 357/454/45 355/451/58 350/444/58
f 358/455/224 347/441/151 68/449/62
f 348/442/223 347/441/151 358/455/224
f 359/456/45 61/76/58 356/453/58
f 359/456/45 47/51/45 61/76/58
f 360/457/45 356/453/58 355/451/58
f 357/454/45 360/457/45 355/451/58
f 360/457/45 359/456/45 356/453/58
f 361/458/44 357/454/45 351/446/45
f 352/447/44 361/458/44 351/446/45
f 362/459/222 47/51/45 359/456/45
f 362/459/222 46/50/44 47/51/45
f 363/460/222 359/456/45 360/457/45
f 363/460/222 362/459/222 359/456/45
f 364/461/44 360/457/45 357/454/45
f 361/458/44 364/461/44 357/454/45
f 364/461/44 363/460/222 360/457/45
f 365/462/44 46/50/44 362/459/222
f 365/462/44 48/52/44 46/50/44
f 366/463/44 362/459/222 363/460/222
f 366/463/44 365/462/44 362/459/222
f 367/464/44 363/460/222 364/461/44
f 367/464/44 366/463/44 363/460/222
f 368/465/44 364/461/44 361/458/44
f 368/465/44 367/464/44 364/461/44
f 369/466/222 361/458/44 352/447/44
f 369/466/222 368/465/44 361/458/44
f 370/467/97 48/52/44 365/462/44
f 370/467/97 108/139/97 48/52/44
f 371/468/97 365/462/44 366/463/44
f 371/468/97 370/467/97 365/462/44
f 372/469/97 366/463/44 367/464/44
f 372/469/97 371/468/97 366/463/44
f 373/470/97 367/464/44 368/465/44
f 373/470/97 372/469/97 367/464/44
f 374/471/103 108/139/97 370/467/97
f 374/471/103 115/146/103 108/139/97
f 375/472/103 370/467/97 371/468/97
f 375/472/103 374/471/103 370/467/97
f 376/473/103 371/468/97 372/469/97
f 376/473/103 375/472/103 371/468/97
f 377/474/97 368/465/44 369/466/222
f 377/474/97 373/470/97 368/465/44
f 378/475/103 372/469/97 373/470/97
f 378/475/103 376/473/103 372/469/97
f 379/476/103 373/470/97 377/474/97
f 379/476/103 378/475/103 373/470/97
f 380/477/225 115/146/103 374/471/103
f 381/478/225 374/471/103 375/472/103
f 381/478/225 380/477/225 374/471/103
f 382/479/225 375/472/103 376/473/103
f 382/479/225 381/478/225 375/472/103
f 383/480/225 376/473/103 378/475/103
f 383/480/225 382/479/225 376/473/103
f 384/481/225 378/475/103 379/476/103
f 384/481/225 383/480/225 378/475/103
f 380/477/225 385/482/225 115/146/103
f 385/482/225 106/137/96 115/146/103
f 385/482/225 386/483/226 106/137/96
f 106/137/96 386/483/226 102/133/92
f 386/484/226 12/11/6 102/131/92
f 385/485/225 12/11/6 386/484/226
f 12/11/6 385/485/225 146/191/133
f 146/191/133 385/485/225 380/486/225
f 146/191/133 380/486/225 159/206/133
f 159/206/133 380/486/225 381/487/225
f 159/206/133 381/487/225 174/222/133
f 174/222/133 381/487/225 382/488/225
f 174/222/133 382/488/225 181/230/133
f 181/230/133 382/488/225 383/489/225
f 181/230/133 383/489/225 189/239/133
f 189/239/133 383/489/225 384/490/225
f 189/239/133 384/490/225 197/248/133
f 197/248/133 384/490/225 387/491/225
f 197/248/133 387/491/225 205/257/133
f 387/492/225 384/481/225 379/476/103
f 205/257/133 387/491/225 388/493/225
f 205/257/133 388/493/225 213/266/133
f 387/492/225 379/476/103 389/494/103
f 388/495/225 387/492/225 389/494/103
f 389/494/103 379/476/103 377/474/97
f 389/494/103 377/474/97 390/496/97
f 390/496/97 377/474/97 369/466/222
f 388/495/225 389/494/103 391/497/103
f 391/497/103 389/494/103 390/496/97
f 213/266/133 388/493/225 392/498/225
f 392/499/225 388/495/225 391/497/103
f 390/496/97 369/466/222 393/500/44
f 393/500/44 369/466/222 352/447/44
f 393/500/44 352/447/44 346/440/222
f 391/497/103 390/496/97 394/501/97
f 394/501/97 390/496/97 393/500/44
f 395/502/44 393/500/44 346/440/222
f 394/501/97 393/500/44 395/502/44
f 395/502/44 346/440/222 339/431/44
f 396/503/103 391/497/103 394/501/97
f 392/499/225 391/497/103 396/503/103
f 213/266/133 392/498/225 397/504/133
f 211/263/133 213/266/133 397/504/133
f 398/505/97 394/501/97 395/502/44
f 396/503/103 394/501/97 398/505/97
f 399/506/44 395/502/44 339/431/44
f 398/505/97 395/502/44 399/506/44
f 399/506/44 339/431/44 310/393/222
f 400/507/227 392/499/225 396/503/103
f 400/508/227 397/504/133 392/498/225
f 211/263/133 397/504/133 401/509/133
f 212/265/135 211/263/133 401/509/133
f 402/510/228 396/503/103 398/505/97
f 400/507/227 396/503/103 402/510/228
f 403/511/229 399/506/44 310/393/222
f 403/511/229 310/393/222 300/378/212
f 403/511/229 300/378/212 296/372/208
f 404/512/230 398/505/97 399/506/44
f 404/512/230 399/506/44 403/511/229
f 402/510/228 398/505/97 404/512/230
f 403/511/229 296/372/208 405/513/231
f 404/512/230 403/511/229 405/513/231
f 405/513/231 296/372/208 293/368/205
f 406/514/232 397/504/133 400/508/227
f 401/509/133 397/504/133 407/515/233
f 408/516/234 397/504/133 406/514/232
f 400/507/227 402/510/228 409/517/235
f 400/507/227 409/517/235 406/518/232
f 402/510/228 404/512/230 410/519/236
f 404/512/230 405/513/231 410/519/236
f 402/510/228 410/519/236 409/517/235
f 405/513/231 293/368/205 411/520/237
f 410/519/236 405/513/231 411/520/237
f 411/520/237 293/368/205 290/362/202
f 406/518/232 409/517/235 412/521/238
f 406/518/232 412/521/238 408/522/234
f 409/517/235 410/519/236 413/523/239
f 410/519/236 411/520/237 413/523/239
f 409/517/235 413/523/239 412/521/238
f 411/520/237 290/362/202 414/524/240
f 413/523/239 411/520/237 414/524/240
f 414/524/240 290/362/202 287/364/199
f 412/521/238 413/523/239 415/525/241
f 413/523/239 414/524/240 415/525/241
f 414/524/240 287/364/199 416/526/242
f 415/525/241 414/524/240 416/526/242
f 416/527/242 287/359/199 283/355/196
f 408/522/234 412/521/238 417/528/243
f 412/521/238 415/525/241 417/528/243
f 415/525/241 416/526/242 418/529/244
f 417/528/243 415/525/241 418/529/244
f 416/527/242 283/355/196 419/530/245
f 418/531/244 416/527/242 419/530/245
f 419/530/245 283/355/196 281/353/194
f 408/522/234 417/528/243 420/532/246
f 420/533/246 397/504/133 408/516/234
f 417/528/243 418/529/244 421/534/247
f 420/532/246 417/528/243 421/534/247
f 418/531/244 419/530/245 422/535/248
f 421/536/247 418/531/244 422/535/248
f 419/530/245 281/353/194 423/537/249
f 422/535/248 419/530/245 423/537/249
f 423/537/249 281/353/194 280/352/193
f 420/532/246 421/534/247 424/538/250
f 424/539/250 397/504/133 420/533/246
f 421/536/247 422/535/248 425/540/251
f 424/541/250 421/536/247 425/540/251
f 422/535/248 423/537/249 426/542/252
f 425/540/251 422/535/248 426/542/252
f 423/537/249 280/352/193 427/543/253
f 426/542/252 423/537/249 427/543/253
f 427/543/253 280/352/193 282/354/195
f 427/543/253 282/354/195 285/357/197
f 424/541/250 425/540/251 428/544/254
f 428/545/254 397/504/133 424/539/250
f 426/542/252 427/543/253 429/546/255
f 429/546/255 427/543/253 285/357/197
f 425/540/251 426/542/252 430/547/256
f 428/544/254 425/540/251 430/547/256
f 430/547/256 426/542/252 429/546/255
f 428/544/254 430/547/256 431/548/257
f 431/549/257 397/504/133 428/545/254
f 430/547/256 429/546/255 432/550/258
f 431/548/257 430/547/256 432/550/258
f 429/546/255 285/357/197 433/551/259
f 432/550/258 429/546/255 433/551/259
f 434/552/260 397/504/133 431/549/257
f 431/548/257 432/550/258 434/553/260
f 435/554/261 397/504/133 434/552/260
f 397/504/133 435/554/261 407/515/233
f 434/553/260 432/550/258 436/555/262
f 434/553/260 436/555/262 435/556/261
f 432/550/258 433/551/259 436/555/262
f 407/557/233 435/556/261 436/555/262
f 437/558/263 433/551/259 285/357/197
f 437/558/263 285/357/197 284/356/180
f 438/559/264 436/555/262 433/551/259
f 407/557/233 436/555/262 438/559/264
f 438/559/264 433/551/259 437/558/263
f 439/560/233 407/557/233 438/559/264
f 401/509/133 407/515/233 439/561/233
f 440/562/264 438/559/264 437/558/263
f 439/560/233 438/559/264 440/562/264
f 441/563/263 437/558/263 284/356/180
f 440/562/264 437/558/263 441/563/263
f 439/561/233 442/564/265 401/509/133
f 401/509/133 442/564/265 443/565/266
f 401/509/133 443/565/266 444/566/267
f 445/567/268 439/560/233 440/562/264
f 442/568/265 439/560/233 445/567/268
f 445/567/268 440/562/264 446/569/269
f 446/569/269 440/562/264 441/563/263
f 441/563/263 284/356/180 447/570/180
f 284/356/180 260/327/180 447/570/180
f 445/567/268 448/571/270 442/568/265
f 445/567/268 446/569/269 448/571/270
f 442/568/265 449/572/271 443/573/266
f 442/568/265 448/571/270 449/572/271
f 450/574/272 441/563/263 447/570/180
f 446/569/269 441/563/263 450/574/272
f 451/575/273 447/570/180 260/327/180
f 450/574/272 447/570/180 451/575/273
f 451/575/273 260/327/180 253/318/173
f 451/575/273 253/318/173 250/315/170
f 451/575/273 250/315/170 452/576/274
f 450/574/272 451/575/273 452/576/274
f 452/576/274 250/315/170 239/294/162
f 446/569/269 450/574/272 453/577/275
f 446/569/269 453/577/275 448/571/270
f 450/574/272 452/576/274 453/577/275
f 452/576/274 239/294/162 454/578/276
f 453/577/275 452/576/274 454/578/276
f 454/578/276 239/294/162 233/286/158
f 448/571/270 453/577/275 455/579/277
f 453/577/275 454/578/276 455/579/277
f 448/571/270 455/579/277 449/572/271
f 454/578/276 233/286/158 456/580/278
f 455/579/277 454/578/276 456/580/278
f 456/580/278 233/286/158 228/288/154
f 449/572/271 455/579/277 457/581/279
f 455/579/277 456/580/278 457/581/279
f 456/580/278 228/288/154 458/582/280
f 457/581/279 456/580/278 458/582/280
f 458/583/280 228/281/154 223/276/149
f 449/572/271 457/581/279 459/584/281
f 443/573/266 449/572/271 459/584/281
f 443/573/266 459/584/281 444/585/267
f 457/581/279 458/582/280 460/586/282
f 459/584/281 457/581/279 460/586/282
f 458/583/280 223/276/149 461/587/283
f 460/588/282 458/583/280 461/587/283
f 461/587/283 223/276/149 220/273/146
f 444/585/267 459/584/281 462/589/284
f 459/584/281 460/586/282 462/589/284
f 460/588/282 461/587/283 463/590/285
f 462/591/284 460/588/282 463/590/285
f 461/587/283 220/273/146 464/592/286
f 463/590/285 461/587/283 464/592/286
f 464/592/286 220/273/146 218/271/144
f 444/585/267 462/589/284 465/593/287
f 401/509/133 444/566/267 465/594/287
f 462/591/284 463/590/285 466/595/288
f 465/596/287 462/591/284 466/595/288
f 463/590/285 464/592/286 467/597/289
f 466/595/288 463/590/285 467/597/289
f 464/592/286 218/271/144 468/598/290
f 467/597/289 464/592/286 468/598/290
f 468/598/290 218/271/144 215/268/141
f 468/598/290 215/268/141 216/269/142
f 469/599/291 468/598/290 216/269/142
f 467/597/289 468/598/290 469/599/291
f 469/599/291 216/269/142 224/277/150
f 465/596/287 466/595/288 470/600/292
f 401/509/133 465/594/287 470/601/292
f 466/595/288 467/597/289 471/602/293
f 471/602/293 467/597/289 469/599/291
f 470/600/292 466/595/288 471/602/293
f 472/603/294 469/599/291 224/277/150
f 471/602/293 469/599/291 472/603/294
f 470/600/292 471/602/293 473/604/295
f 401/509/133 470/601/292 473/605/295
f 473/604/295 471/602/293 472/603/294
f 472/603/294 224/277/150 474/606/296
f 214/267/134 474/606/296 224/277/150
f 473/604/295 472/603/294 475/607/297
f 401/509/133 473/605/295 475/608/297
f 475/607/297 472/603/294 474/606/296
f 476/609/135 474/606/296 214/267/134
f 212/264/135 476/609/135 214/267/134
f 212/265/135 401/509/133 476/610/135
f 475/607/297 474/606/296 477/611/298
f 476/609/135 477/611/298 474/606/296
f 401/509/133 475/608/297 477/612/298
f 401/509/133 477/612/298 476/610/135
f 114/145/102 95/116/85 110/141/98
f 114/145/102 96/117/86 95/116/85
f 118/150/106 96/117/86 114/145/102
f 118/150/106 478/613/299 96/117/86
f 121/153/109 478/613/299 118/150/106
f 478/613/299 75/94/68 96/117/86
f 121/153/109 479/614/300 478/613/299
f 124/156/112 479/614/300 121/153/109
f 478/613/299 480/615/301 75/94/68
f 479/614/300 480/615/301 478/613/299
f 480/615/301 73/91/66 75/94/68
f 124/156/112 481/616/302 479/614/300
f 127/161/115 481/617/302 124/159/112
f 480/615/301 482/618/303 73/91/66
f 482/618/303 69/92/63 73/91/66
f 479/614/300 483/619/304 480/615/301
f 481/616/302 483/619/304 479/614/300
f 483/619/304 482/618/303 480/615/301
f 127/161/115 484/620/305 481/617/302
f 130/165/118 484/620/305 127/161/115
f 482/618/303 485/621/306 69/92/63
f 485/622/306 3/2/2 69/85/63
f 483/619/304 486/623/307 482/618/303
f 486/623/307 485/621/306 482/618/303
f 481/616/302 487/624/308 483/619/304
f 484/620/305 487/625/308 481/617/302
f 487/624/308 486/623/307 483/619/304
f 130/165/118 488/626/309 484/620/305
f 133/168/121 488/626/309 130/165/118
f 486/623/307 2/627/3 485/621/306
f 2/3/3 3/2/2 485/622/306
f 489/628/310 2/627/3 486/623/307
f 487/624/308 489/628/310 486/623/307
f 489/628/310 1/629/1 2/627/3
f 484/620/305 490/630/311 487/625/308
f 490/630/311 489/631/310 487/625/308
f 488/626/309 490/630/311 484/620/305
f 133/168/121 491/632/312 488/626/309
f 136/171/124 491/632/312 133/168/121
f 136/171/124 152/198/139 491/632/312
f 492/633/313 1/634/1 489/631/310
f 490/630/311 492/633/313 489/631/310
f 488/626/309 493/635/314 490/630/311
f 491/632/312 493/635/314 488/626/309
f 493/635/314 492/633/313 490/630/311
f 152/198/139 494/636/315 491/632/312
f 491/632/312 494/636/315 493/635/314
f 152/198/139 348/442/223 494/636/315
f 492/633/313 495/637/316 1/634/1
f 495/638/316 3/2/2 1/1/1
f 493/635/314 496/639/317 492/633/313
f 494/636/315 496/639/317 493/635/314
f 496/639/317 495/637/316 492/633/313
f 348/442/223 497/640/318 494/636/315
f 494/636/315 497/640/318 496/639/317
f 348/442/223 358/455/224 497/640/318
f 496/639/317 498/641/319 495/637/316
f 497/640/318 498/641/319 496/639/317
f 498/642/319 3/2/2 495/638/316
f 497/640/318 499/643/320 498/641/319
f 358/455/224 499/643/320 497/640/318
f 499/644/320 3/2/2 498/642/319
f 358/455/224 500/645/321 499/643/320
f 500/646/321 3/2/2 499/644/320
f 358/455/224 68/449/62 500/645/321
f 68/84/62 3/2/2 500/646/321
